<svg width="7695" height="6852" viewBox="0 0 7695 6852" fill="none" xmlns="http://www.w3.org/2000/svg">
<path d="M496.615 5765.56H332.243" stroke="#263238" stroke-width="1.1133" stroke-miterlimit="10"/>
<path d="M7154.57 5765.56H756.602" stroke="#263238" stroke-width="1.1133" stroke-miterlimit="10"/>
<path d="M4747.36 6452.77C5047.89 6452.77 5291.51 6385.76 5291.51 6303.08C5291.51 6220.41 5047.89 6153.4 4747.36 6153.4C4446.84 6153.4 4203.22 6220.41 4203.22 6303.08C4203.22 6385.76 4446.84 6452.77 4747.36 6452.77Z" fill="#263238"/>
<path d="M1934.96 6643.11C1368.61 6643.11 1284.99 6561.28 1276.75 6495.21C1274.88 6481.45 1276.24 6467.44 1280.71 6454.3C1285.19 6441.15 1292.66 6429.23 1302.54 6419.47C1455.09 6259.4 2334.25 6327.08 3550.74 6420.72C3720.49 6433.79 3895.96 6447.22 4075.91 6460.65C5305.12 6551.97 5800.02 6540.15 5902.26 6416.61C5923.03 6391.36 5927.33 6359.84 5915.87 6317.23C5867.17 6139.07 5216.13 6138.18 4969.57 6152.14C4963.93 6152.44 4958.4 6150.5 4954.18 6146.74C4949.95 6142.99 4947.38 6137.73 4947.01 6132.09C4946.84 6129.3 4947.23 6126.5 4948.15 6123.86C4949.06 6121.22 4950.5 6118.79 4952.36 6116.71C4954.23 6114.63 4956.49 6112.94 4959.01 6111.73C4961.54 6110.53 4964.27 6109.84 4967.06 6109.71C5061.43 6104.16 5890.45 6062.44 5956.88 6306.67C5972.1 6362.89 5965.11 6407.83 5935.03 6444.36C5820.26 6583.66 5350.42 6598.52 4072.87 6503.63C3892.74 6490.2 3717.26 6476.77 3547.52 6463.7C2387.97 6374.17 1471.92 6303.8 1333.34 6449.37C1327.86 6454.57 1323.7 6461.01 1321.21 6468.14C1318.71 6475.27 1317.96 6482.89 1319.01 6490.38C1324.2 6532.63 1426.44 6627.17 2250.09 6594.23C2710.8 6576.32 3173.66 6525.65 3178.31 6525.11C3183.7 6524.89 3188.98 6526.73 3193.07 6530.25C3197.16 6533.77 3199.76 6538.71 3200.35 6544.07C3200.94 6549.43 3199.48 6554.82 3196.25 6559.14C3193.02 6563.47 3188.28 6566.41 3182.97 6567.37C3178.31 6567.37 2714.02 6618.22 2251.88 6636.66C2132.99 6640.96 2027.71 6643.11 1934.96 6643.11Z" fill="white" stroke="#263238" stroke-width="1.1133" stroke-miterlimit="10"/>
<path d="M4545.03 6434.51C4899.15 6434.51 5186.23 6147.44 5186.23 5793.32C5186.23 5439.2 4899.15 5152.12 4545.03 5152.12C4190.91 5152.12 3903.84 5439.2 3903.84 5793.32C3903.84 6147.44 4190.91 6434.51 4545.03 6434.51Z" fill="white"/>
<mask id="mask0_124_153" style="mask-type:luminance" maskUnits="userSpaceOnUse" x="3903" y="5152" width="1284" height="1283">
<path d="M4545.03 6434.51C4899.15 6434.51 5186.23 6147.44 5186.23 5793.32C5186.23 5439.2 4899.15 5152.12 4545.03 5152.12C4190.91 5152.12 3903.84 5439.2 3903.84 5793.32C3903.84 6147.44 4190.91 6434.51 4545.03 6434.51Z" fill="white"/>
</mask>
<g mask="url(#mask0_124_153)">
<path d="M4545.03 6434.51C4661.72 6434.59 4776.21 6402.81 4876.17 6342.61C4976.12 6282.41 5057.75 6196.06 5112.25 6092.89C5166.75 5989.71 5192.05 5873.62 5185.43 5757.12C5178.81 5640.62 5140.51 5528.14 5074.68 5431.81C5067.69 5711.13 4913.53 6123.49 4111.72 6265.3C4229.75 6374.17 4384.46 6434.58 4545.03 6434.51Z" fill="#8FD998"/>
<path opacity="0.3" d="M4545.03 6434.51C4661.72 6434.59 4776.21 6402.81 4876.17 6342.61C4976.12 6282.41 5057.75 6196.06 5112.25 6092.89C5166.75 5989.71 5192.05 5873.62 5185.43 5757.12C5178.81 5640.62 5140.51 5528.14 5074.68 5431.81C5067.69 5711.13 4913.53 6123.49 4111.72 6265.3C4229.75 6374.17 4384.46 6434.58 4545.03 6434.51Z" fill="white"/>
<path d="M4860.53 6044.71C4746.19 5933.47 4607.34 5850.62 4455.15 5802.81M4860.53 6044.71H4894.55C4970.01 5969.89 5035 5885.21 5087.75 5792.96C4787.47 5475.67 4495.43 5508.08 4495.43 5508.08C4495.43 5508.08 4788.37 5475.67 5088.64 5793.32C5105.11 5763.77 5118.9 5736.02 5130.18 5710.41C5005.2 5535.3 4789.98 5415.87 4674.49 5397.96L4647.63 5391.52M4860.53 6044.71C4596.78 6040.95 4396.24 6000.12 4246.37 5945.51C4256.04 5540.49 4400.54 5270.66 4476.1 5156.42C4500.17 5153.63 4524.38 5152.19 4548.61 5152.12C4570.64 5152.12 4592.12 5153.38 4613.61 5155.35M4647.63 5391.52C4606.24 5383.99 4563.88 5383.39 4522.29 5389.73M4647.63 5391.52L4724.09 5176.65C4687.96 5166.33 4650.99 5159.2 4613.61 5155.35M4613.61 5155.35C4564.01 5235.38 4436.35 5491.07 4436.35 5998.33M5005.38 5914.18C4750.05 5665.29 4468.22 5652.22 4468.22 5652.22" stroke="#263238" stroke-width="1.1133" stroke-linecap="round" stroke-linejoin="round"/>
<path d="M4245.65 5946.59C4255.32 5541.57 4399.82 5271.73 4475.38 5157.5C4416.26 5164.13 4358.35 5178.95 4303.31 5201.54C4167.61 5400.62 4090.95 5634.01 4082.18 5874.79C4134.76 5902.86 4189.41 5926.86 4245.65 5946.59Z" stroke="#263238" stroke-width="1.1133" stroke-linecap="round" stroke-linejoin="round"/>
<path d="M4303.31 5201C4192.58 5246.66 4096.82 5322.35 4026.83 5419.55C3956.85 5516.74 3915.42 5631.57 3907.24 5751.06C3959.96 5799.54 4018.77 5840.95 4082.18 5874.25C4090.95 5633.48 4167.61 5400.09 4303.31 5201Z" stroke="#263238" stroke-width="1.1133" stroke-linecap="round" stroke-linejoin="round"/>
<path d="M5129.29 5710.41C5143.24 5679.58 5155.2 5647.88 5165.1 5615.52C5138.33 5524.19 5091.67 5439.93 5028.48 5368.78L4978.88 5534.22L5027.58 5368.78C4988.04 5324.41 4942.54 5285.73 4892.4 5253.83L4837.79 5458.13L4892.76 5254.72C4840.33 5221.19 4783.26 5195.55 4723.37 5178.62L4646.91 5393.49C4764.02 5410.32 4945.04 5479.26 5129.29 5710.41Z" stroke="#263238" stroke-width="1.1133" stroke-linecap="round" stroke-linejoin="round"/>
<path d="M4580.49 6288.4C4655.08 6243.28 4726.24 6192.71 4793.38 6137.1C4830.09 6106.3 4897.41 6045.25 4899.56 6045.25C4897.41 6045.25 5025.97 5900.21 5068.59 5824.47C5068.59 5825.55 5087.57 5794.39 5086.49 5793.32C5085.42 5792.24 5101.89 5766.28 5100.82 5765.21C5111.25 5747.65 5120.35 5729.34 5128.03 5710.41C5141.99 5679.58 5153.95 5647.88 5163.84 5615.52C5180.94 5674.03 5189.63 5734.68 5189.63 5795.64C5189.63 5805.67 5189.63 5814.27 5189.63 5823.58C4918.9 6203.71 4710.3 6366.65 4579.05 6438.09C4568.49 6438.09 4557.75 6438.09 4546.82 6438.09C4481.17 6438.1 4415.89 6428.08 4353.27 6408.37C4431.26 6372.8 4507.12 6332.74 4580.49 6288.4ZM4580.49 6288.4H4585.14" stroke="#263238" stroke-width="1.1133" stroke-linecap="round" stroke-linejoin="round"/>
<path d="M5189.63 5823.58C4918.9 6203.71 4710.3 6366.65 4580.13 6436.48C4739.76 6428.44 4890.66 6361.19 5003.37 6247.86C5116.07 6134.53 5182.48 5983.25 5189.63 5823.58Z" stroke="#263238" stroke-width="1.1133" stroke-linecap="round" stroke-linejoin="round"/>
<path d="M4045.83 6196.01C4125.28 6295.88 4232.68 6369.81 4354.34 6408.37C4432.33 6372.8 4508.2 6332.74 4581.56 6288.4C4428.65 6316.69 4189.43 6246.5 4045.83 6196.01Z" stroke="#263238" stroke-width="1.1133" stroke-linecap="round" stroke-linejoin="round"/>
<path d="M4581.56 6288.4C4656.16 6243.28 4727.32 6192.71 4794.46 6137.1C4332.67 6184.37 4047.8 6041.31 3926.76 5960.02C3949.6 6046.11 3990.16 6126.48 4045.83 6196.01C4189.43 6246.5 4428.65 6316.69 4581.56 6288.4Z" stroke="#263238" stroke-width="1.1133" stroke-linecap="round" stroke-linejoin="round"/>
<path d="M4860.53 6045.07H4894.55C4864.29 6075.51 4831.16 6106.3 4794.46 6137.1C4332.67 6184.37 4047.8 6041.31 3926.76 5960.37C3912.63 5906.73 3905.47 5851.48 3905.45 5796C3905.45 5781.14 3906.17 5766.64 3907.24 5751.96C3946.27 5788.66 4025.6 5870.67 4245.65 5946.95C4396.24 6000.48 4596.78 6041.31 4860.53 6045.07ZM4860.53 6045.07C4863.03 6047.4 4865.54 6049.72 4867.87 6052.23" stroke="#263238" stroke-width="1.1133" stroke-linecap="round" stroke-linejoin="round"/>
</g>
<path d="M4545.03 6434.51C4899.15 6434.51 5186.23 6147.44 5186.23 5793.32C5186.23 5439.2 4899.15 5152.12 4545.03 5152.12C4190.91 5152.12 3903.84 5439.2 3903.84 5793.32C3903.84 6147.44 4190.91 6434.51 4545.03 6434.51Z" stroke="#263238" stroke-width="1.1133" stroke-linecap="round" stroke-linejoin="round"/>
<path d="M5726.07 4697.5C5726.07 4697.5 5682.21 4555.16 5554.36 4503.95C5464.83 4468.14 5363.31 4477.81 5271.1 4493.74C5099.56 4523.64 4949.87 4591.86 4787.65 4650.06C4787.65 4650.06 4857.12 4624.45 5142 4763.4C5246.93 4814.43 5366.89 4854.18 5486.86 4851.49C5583.01 4849.34 5730.91 4821.77 5726.07 4697.5Z" fill="#8FD998"/>
<path d="M5741.47 4279.06C5741.47 4279.06 5741.47 4129.9 5634.04 4044.14C5559.2 3984.33 5458.57 3963.74 5365.46 3952.46C5192.49 3931.51 5029.55 3953.53 4856.95 3962.31C4856.95 3962.31 4930.89 3958.01 5163.49 4173.23C5249.25 4252.38 5352.75 4325.07 5467.88 4357.12C5560.63 4382.91 5709.96 4399.38 5741.47 4279.06Z" fill="#8FD998"/>
<path d="M6035.3 4832.51C6035.3 4832.51 5919.09 4739.22 5918.74 4601.53C5918.74 4505.74 5964.75 4414.24 6013.64 4334.56C6104.6 4185.95 6223.13 4072.07 6337.37 3942.25C6337.37 3942.25 6287.95 3997.4 6311.94 4313.43C6320.89 4429.82 6313.37 4556.05 6266.64 4666.53C6229.93 4755.34 6149.9 4882.65 6035.3 4832.51Z" fill="#8FD998"/>
<path d="M6447.13 5061.34C6447.13 5061.34 6430.65 4913.27 6527.7 4815.5C6595.03 4747.64 6692.61 4715.41 6783.39 4693.57C6952.78 4652.74 7117.15 4655.79 7289.58 4644.5C7289.58 4644.5 7215.81 4648.62 7009.54 4889.27C6933.62 4978.8 6839.26 5062.06 6728.06 5107.36C6639.43 5143.71 6492.96 5177.19 6447.13 5061.34Z" fill="#8FD998"/>
<path d="M6420.81 4533.31C6420.81 4533.31 6273.09 4513.08 6202.18 4395.08C6152.76 4313.07 6145.42 4210.66 6146.32 4117.19C6148.11 3943.15 6191.44 3784.33 6222.77 3614.41C6222.77 3614.41 6208.63 3687.1 6391.62 3945.83C6458.94 4041.27 6516.96 4153.36 6534.86 4272.25C6547.58 4367.69 6544.17 4517.91 6420.81 4533.31Z" fill="#8FD998"/>
<path d="M6845.88 4268.13C6845.88 4268.13 6952.06 4372.7 7088.86 4357.66C7183.93 4346.74 7269.52 4289.98 7342.93 4232.32C7479.73 4124.89 7579.11 3993.46 7694.6 3865.08C7694.6 3865.08 7645.72 3920.41 7328.97 3933.48C7212.4 3938.31 7087.96 3960.34 6983.57 4019.78C6899.78 4066.7 6782.85 4161.06 6845.88 4268.13Z" fill="#8FD998"/>
<path d="M6722.87 4164.82C6722.87 4164.82 6871.13 4179.68 6967.82 4081.74C7035.14 4013.52 7066.3 3915.75 7087.25 3824.62C7126.28 3655.05 7121.62 3490.5 7130.93 3318.07C7130.93 3318.07 7127.71 3391.84 6889.03 3600.62C6801.3 3677.43 6718.04 3772.69 6674.17 3884.24C6638.54 3973.95 6606.48 4120.77 6722.87 4164.82Z" fill="#8FD998"/>
<path d="M6193.41 5608.17L5937.36 4978.08L5642.1 4249.51" stroke="#263238" stroke-width="1.1133" stroke-linecap="round" stroke-linejoin="round"/>
<path d="M6252.49 5499.85L6508.36 4623.73L6784.11 4082.27" stroke="#263238" stroke-width="1.1133" stroke-linecap="round" stroke-linejoin="round"/>
<path d="M6350.79 5155.35L6606.84 5007.63" stroke="#263238" stroke-width="1.1133" stroke-linecap="round" stroke-linejoin="round"/>
<path d="M6508.36 4623.73L6380.34 4338.14" stroke="#263238" stroke-width="1.1133" stroke-linecap="round" stroke-linejoin="round"/>
<path d="M6668.62 4339.58L6980.89 4200.27" stroke="#263238" stroke-width="1.1133" stroke-linecap="round" stroke-linejoin="round"/>
<path d="M5986.6 5096.26L6094.93 4663.13" stroke="#263238" stroke-width="1.1133" stroke-linecap="round" stroke-linejoin="round"/>
<path d="M5843 4766.98L5592.86 4633.58" stroke="#263238" stroke-width="1.1133" stroke-linecap="round" stroke-linejoin="round"/>
<path d="M6324.65 5923.13H6111.22C6076.33 5923.12 6042.54 5910.93 6015.67 5888.67C5988.8 5866.41 5970.54 5835.47 5964.04 5801.2L5888.12 5401.37H6547.75L6472.01 5801.2C6465.47 5835.49 6447.18 5866.43 6420.28 5888.69C6393.38 5910.94 6359.57 5923.12 6324.65 5923.13Z" fill="#263238" stroke="#263238" stroke-width="1.1133" stroke-linecap="round" stroke-linejoin="round"/>
<path d="M317.381 3485.66C317.381 3436.07 340.3 3399.54 391.868 3399.54C443.436 3399.54 467.25 3435.35 467.25 3485.66V3659.71C467.25 3709.3 444.331 3745.83 391.868 3745.83C339.405 3745.83 317.381 3710.02 317.381 3659.71V3485.66ZM339.763 3661.14C339.763 3698.2 354.446 3725.42 391.868 3725.42C429.29 3725.42 445.584 3698.2 445.584 3661.14V3484.23C445.584 3447.17 430.544 3419.95 391.868 3419.95C353.192 3419.95 339.763 3447.17 339.763 3484.23V3661.14Z" fill="#263238"/>
<path d="M502.523 3485.66C502.523 3436.07 525.442 3399.54 577.01 3399.54C628.578 3399.54 652.392 3435.35 652.392 3485.66V3659.71C652.392 3709.3 629.473 3745.83 577.01 3745.83C524.547 3745.83 502.523 3710.02 502.523 3659.71V3485.66ZM524.905 3661.14C524.905 3698.2 539.588 3725.42 577.01 3725.42C614.432 3725.42 630.726 3698.2 630.726 3661.14V3484.23C630.726 3447.17 615.686 3419.95 577.01 3419.95C538.334 3419.95 524.905 3447.17 524.905 3484.23V3661.14Z" fill="#263238"/>
<path d="M760.003 3402.4C812.645 3402.4 833.058 3435.53 833.058 3485.13V3522.19C833.058 3575.91 808.169 3602.77 754.274 3602.77H711.838V3742.97H689.456V3402.76L760.003 3402.4ZM754.274 3582.35C793.666 3582.35 810.676 3564.45 810.676 3523.62V3483.69C810.676 3446.81 797.963 3422.82 760.003 3422.82H711.838V3582.35H754.274Z" fill="#263238"/>
<path d="M1010.14 3484.59V3491.93H988.656V3483.16C988.656 3447.35 975.048 3419.95 938.162 3419.95C901.277 3419.95 887.49 3446.27 887.49 3482.08C887.49 3564.63 1010.5 3566.06 1010.5 3660.06C1010.5 3709.12 989.193 3745.11 937.088 3745.11C884.983 3745.11 863.676 3709.3 863.676 3660.06V3642.16H885.162V3661.14C885.162 3696.95 899.129 3723.81 936.551 3723.81C973.973 3723.81 988.119 3697.49 988.119 3661.14C988.119 3579.31 865.108 3577.88 865.108 3483.16C865.108 3431.95 887.49 3399 936.73 3398.46C985.97 3397.93 1010.14 3435.53 1010.14 3484.59Z" fill="#263238"/>
<path d="M1066.01 3700.17V3742.97H1044.16V3700.17H1066.01Z" fill="#263238"/>
<path d="M1126.89 3700.17V3742.97H1104.86V3700.17H1126.89Z" fill="#263238"/>
<path d="M1187.59 3700.17V3742.97H1165.02V3700.17H1187.59Z" fill="#263238"/>
<path d="M389.361 3897.85C442.003 3897.85 462.416 3930.79 462.416 3980.39V4017.46C462.416 4071.17 437.527 4098.21 383.632 4098.21H341.375V4238.23H318.814V3898.03L389.361 3897.85ZM383.632 4076.9C423.024 4076.9 440.034 4059 440.034 4017.99V3978.06C440.034 3941.18 427.321 3917.36 389.361 3917.36H341.375V4076.9H383.632Z" fill="#263238"/>
<path d="M522.22 4162.49L505.209 4237.87H484.618L558.926 3897.67H592.051L667.97 4237.87H645.767L627.862 4162.49H522.22ZM525.622 4142.97H624.818L574.145 3923.09L525.622 4142.97Z" fill="#263238"/>
<path d="M846.666 3980.93V4006.17H824.821V3979.5C824.821 3943.68 810.855 3915.22 773.254 3915.22C735.652 3915.22 721.865 3942.97 721.865 3979.5V4156.58C721.865 4192.39 735.831 4220.14 773.254 4220.14C810.676 4220.14 824.821 4192.93 824.821 4156.58V4082.99H780.058V4062.58H846.666V4154.97C846.666 4204.21 825.179 4241.09 773.254 4241.09C721.328 4241.09 699.841 4204.21 699.841 4154.97V3980.93C699.841 3931.87 721.149 3894.8 773.254 3894.8C825.358 3894.8 846.666 3931.87 846.666 3980.93Z" fill="#263238"/>
<path d="M999.399 4055.06V4075.47H906.47V4217.46H1018.38V4237.87H884.088V3897.67H1018.38V3918.08H906.47V4055.06H999.399Z" fill="#263238"/>
<path d="M1150.7 4238.23H1130.29V3898.03H1159.47L1261.53 4184.51V3898.03H1281.95V4238.23H1257.24L1149.8 3933.84L1150.7 4238.23Z" fill="#263238"/>
<path d="M1319.01 3980.93C1319.01 3931.33 1341.75 3894.8 1393.32 3894.8C1444.89 3894.8 1468.7 3930.61 1468.7 3980.93V4154.97C1468.7 4204.57 1445.96 4241.09 1393.32 4241.09C1340.68 4241.09 1319.01 4205.28 1319.01 4154.97V3980.93ZM1341.39 4156.58C1341.39 4193.47 1355.9 4220.68 1393.32 4220.68C1430.74 4220.68 1447.04 4193.47 1447.04 4156.58V3979.5C1447.04 3942.43 1431.99 3915.22 1393.32 3915.22C1354.64 3915.22 1341.39 3942.43 1341.39 3979.5V4156.58Z" fill="#263238"/>
<path d="M1563.06 4238.23V3918.26H1494.13V3897.85H1655.28V3918.26H1585.62V4238.23H1563.06Z" fill="#263238"/>
<path d="M1868.53 4063.65V4084.06H1780.61V4238.23H1758.23V3898.03H1887.51V3918.44H1780.08V4063.83L1868.53 4063.65Z" fill="#263238"/>
<path d="M1920.1 3980.93C1920.1 3931.33 1943.02 3894.8 1994.58 3894.8C2046.15 3894.8 2069.96 3930.61 2069.96 3980.93V4154.97C2069.96 4204.57 2047.05 4241.09 1994.58 4241.09C1942.12 4241.09 1920.1 4205.28 1920.1 4154.97V3980.93ZM1942.48 4156.58C1942.48 4193.47 1957.16 4220.68 1994.58 4220.68C2032.01 4220.68 2048.3 4193.47 2048.3 4156.58V3979.5C2048.3 3942.43 2033.26 3915.22 1994.58 3915.22C1955.91 3915.22 1942.48 3942.43 1942.48 3979.5V4156.58Z" fill="#263238"/>
<path d="M2128.34 4156.04C2128.34 4191.86 2141.94 4220.68 2179.37 4220.68C2216.79 4220.68 2230.4 4192.57 2230.4 4156.04V3897.85H2251.35V4154.97C2251.35 4203.67 2230.93 4241.09 2179.73 4241.09C2128.52 4241.09 2106.67 4203.67 2106.67 4154.97V3897.85H2129.05L2128.34 4156.04Z" fill="#263238"/>
<path d="M2310.97 4238.23H2290.56V3898.03H2319.75L2421.81 4184.51V3898.03H2442.22V4238.23H2417.51L2310.97 3933.84V4238.23Z" fill="#263238"/>
<path d="M2554.84 3897.85C2607.49 3897.85 2630.23 3932.23 2630.23 3982.36V4153.54C2630.23 4203.67 2607.49 4238.23 2554.84 4238.23H2480V3898.03L2554.84 3897.85ZM2554.84 4217.82C2592.8 4217.82 2608.56 4192.03 2608.56 4154.61V3981.47C2608.56 3944.04 2592.62 3918.26 2554.84 3918.26H2502.74V4217.82H2554.84Z" fill="#263238"/>
<path d="M3405.89 5080.68C3007.31 5080.68 2767.74 4727.05 2682.69 4416.03L2679.82 4405.11C2675.29 4390.03 2673.85 4374.19 2675.58 4358.54C2677.31 4342.88 2682.18 4327.74 2689.9 4314.02C2697.62 4300.29 2708.03 4288.26 2720.5 4278.65C2732.97 4269.04 2747.26 4262.04 2762.5 4258.08C2777.74 4254.12 2793.62 4253.27 2809.2 4255.58C2824.77 4257.9 2839.72 4263.33 2853.15 4271.56C2866.57 4279.79 2878.21 4290.64 2887.34 4303.46C2896.48 4316.29 2902.94 4330.82 2906.33 4346.2L2908.48 4354.26C2973.11 4590.97 3149.13 4861.52 3431.49 4845.94C3484.59 4844.1 3536.71 4831.11 3584.46 4807.82C3632.21 4784.53 3674.53 4751.46 3708.67 4710.75C3863.55 4533.13 3932.85 4146.91 3917.45 3952.1C3915.99 3939.6 3917.07 3926.93 3920.62 3914.86C3924.16 3902.78 3930.11 3891.55 3938.1 3881.82C3946.09 3872.09 3955.95 3864.08 3967.11 3858.25C3978.26 3852.42 3990.48 3848.91 4003.03 3847.91C4015.57 3846.91 4028.19 3848.45 4040.13 3852.43C4052.07 3856.42 4063.08 3862.77 4072.51 3871.11C4081.93 3879.45 4089.58 3889.61 4095 3900.97C4100.41 3912.33 4103.48 3924.67 4104.02 3937.24C4121.93 4154.07 4098.29 4620.15 3885.04 4864.56C3830.46 4928.83 3763.16 4981.1 3687.38 5018.08C3611.6 5055.06 3528.99 5075.94 3444.74 5079.43C3431.67 5080.32 3418.6 5080.68 3405.89 5080.68Z" fill="white"/>
<mask id="mask1_124_153" style="mask-type:luminance" maskUnits="userSpaceOnUse" x="2674" y="3847" width="1435" height="1234">
<path d="M3405.89 5080.68C3007.31 5080.68 2767.74 4727.05 2682.69 4416.03L2679.82 4405.11C2675.29 4390.03 2673.85 4374.19 2675.58 4358.54C2677.31 4342.88 2682.18 4327.74 2689.9 4314.02C2697.62 4300.29 2708.03 4288.26 2720.5 4278.65C2732.97 4269.04 2747.26 4262.04 2762.5 4258.08C2777.74 4254.12 2793.62 4253.27 2809.2 4255.58C2824.77 4257.9 2839.72 4263.33 2853.15 4271.56C2866.57 4279.79 2878.21 4290.64 2887.34 4303.46C2896.48 4316.29 2902.94 4330.82 2906.33 4346.2L2908.48 4354.26C2973.11 4590.97 3149.13 4861.52 3431.49 4845.94C3484.59 4844.1 3536.71 4831.11 3584.46 4807.82C3632.21 4784.53 3674.53 4751.46 3708.67 4710.75C3863.55 4533.13 3932.85 4146.91 3917.45 3952.1C3915.99 3939.6 3917.07 3926.93 3920.62 3914.86C3924.16 3902.78 3930.11 3891.55 3938.1 3881.82C3946.09 3872.09 3955.95 3864.08 3967.11 3858.25C3978.26 3852.42 3990.48 3848.91 4003.03 3847.91C4015.57 3846.91 4028.19 3848.45 4040.13 3852.43C4052.07 3856.42 4063.08 3862.77 4072.51 3871.11C4081.93 3879.45 4089.58 3889.61 4095 3900.97C4100.41 3912.33 4103.48 3924.67 4104.02 3937.24C4121.93 4154.07 4098.29 4620.15 3885.04 4864.56C3830.46 4928.83 3763.16 4981.1 3687.38 5018.08C3611.6 5055.06 3528.99 5075.94 3444.74 5079.43C3431.67 5080.32 3418.6 5080.68 3405.89 5080.68Z" fill="white"/>
</mask>
<g mask="url(#mask1_124_153)">
<path d="M4003.21 3851.29C3978.48 3853.3 3955.55 3865.05 3939.47 3883.95C3923.39 3902.85 3915.47 3927.36 3917.45 3952.1C3924.97 4047.18 3912.25 4187.74 3879.31 4328.11C3926.36 4326.13 3973.41 4332.18 4018.43 4346.02C4007.78 4480.73 3960.47 4609.96 3881.64 4719.71C3707.77 4961.25 3447.07 5038.42 3244.2 5009.42C3153.42 4996.52 3049.39 4948.9 2961.83 4900.01C3080.64 5015.87 3239.95 5080.81 3405.89 5081.04C3418.6 5081.04 3431.67 5081.04 3444.74 5079.96C3528.99 5076.48 3611.6 5055.59 3687.38 5018.61C3763.16 4981.64 3830.46 4929.37 3885.04 4865.1C4098.29 4620.69 4121.21 4154.61 4104.02 3937.78C4103.14 3925.46 4099.82 3913.44 4094.27 3902.41C4088.71 3891.37 4081.03 3881.56 4071.65 3873.51C4062.28 3865.47 4051.4 3859.37 4039.66 3855.55C4027.91 3851.74 4015.52 3850.29 4003.21 3851.29Z" fill="#8FD998"/>
<path opacity="0.5" d="M4003.21 3851.29C3978.48 3853.3 3955.55 3865.05 3939.47 3883.95C3923.39 3902.85 3915.47 3927.36 3917.45 3952.1C3924.97 4047.18 3912.25 4187.74 3879.31 4328.11C3926.36 4326.13 3973.41 4332.18 4018.43 4346.02C4007.78 4480.73 3960.47 4609.96 3881.64 4719.71C3707.77 4961.25 3447.07 5038.42 3244.2 5009.42C3153.42 4996.52 3049.39 4948.9 2961.83 4900.01C3080.64 5015.87 3239.95 5080.81 3405.89 5081.04C3418.6 5081.04 3431.67 5081.04 3444.74 5079.96C3528.99 5076.48 3611.6 5055.59 3687.38 5018.61C3763.16 4981.64 3830.46 4929.37 3885.04 4865.1C4098.29 4620.69 4121.21 4154.61 4104.02 3937.78C4103.14 3925.46 4099.82 3913.44 4094.27 3902.41C4088.71 3891.37 4081.03 3881.56 4071.65 3873.51C4062.28 3865.47 4051.4 3859.37 4039.66 3855.55C4027.91 3851.74 4015.52 3850.29 4003.21 3851.29Z" fill="white"/>
</g>
<path d="M3405.89 5080.68C3007.31 5080.68 2767.74 4727.05 2682.69 4416.03L2679.82 4405.11C2675.29 4390.03 2673.85 4374.19 2675.58 4358.54C2677.31 4342.88 2682.18 4327.74 2689.9 4314.02C2697.62 4300.29 2708.03 4288.26 2720.5 4278.65C2732.97 4269.04 2747.26 4262.04 2762.5 4258.08C2777.74 4254.12 2793.62 4253.27 2809.2 4255.58C2824.77 4257.9 2839.72 4263.33 2853.15 4271.56C2866.57 4279.79 2878.21 4290.64 2887.34 4303.46C2896.48 4316.29 2902.94 4330.82 2906.33 4346.2L2908.48 4354.26C2973.11 4590.97 3149.13 4861.52 3431.49 4845.94C3484.59 4844.1 3536.71 4831.11 3584.46 4807.82C3632.21 4784.53 3674.53 4751.46 3708.67 4710.75C3863.55 4533.13 3932.85 4146.91 3917.45 3952.1C3915.99 3939.6 3917.07 3926.93 3920.62 3914.86C3924.16 3902.78 3930.11 3891.55 3938.1 3881.82C3946.09 3872.09 3955.95 3864.08 3967.11 3858.25C3978.26 3852.42 3990.48 3848.91 4003.03 3847.91C4015.57 3846.91 4028.19 3848.45 4040.13 3852.43C4052.07 3856.42 4063.08 3862.77 4072.51 3871.11C4081.93 3879.45 4089.58 3889.61 4095 3900.97C4100.41 3912.33 4103.48 3924.67 4104.02 3937.24C4121.93 4154.07 4098.29 4620.15 3885.04 4864.56C3830.46 4928.83 3763.16 4981.1 3687.38 5018.08C3611.6 5055.06 3528.99 5075.94 3444.74 5079.43C3431.67 5080.32 3418.6 5080.68 3405.89 5080.68Z" stroke="#263238" stroke-width="1.1133" stroke-linecap="round" stroke-linejoin="round"/>
<path d="M3175.98 4838.42C3185.47 4794.55 3080.55 4863.13 2992.63 4927.05C3025.15 4954.53 3060.16 4978.93 3097.2 4999.93C3128.53 4948.9 3166.85 4880.68 3175.98 4838.42Z" fill="#8FD998" stroke="#263238" stroke-width="1.1133" stroke-linecap="round" stroke-linejoin="round"/>
<path d="M3405.89 5080.68C3418.6 5080.68 3431.67 5080.68 3444.74 5079.61C3482.79 5077.47 3520.58 5072.14 3557.73 5063.67C3508.31 4999.21 3440.27 4913.98 3420.75 4907.54C3398.37 4900.01 3355.22 5009.78 3331.22 5076.38C3356.01 5079.27 3380.94 5080.71 3405.89 5080.68Z" fill="#8FD998" stroke="#263238" stroke-width="1.1133" stroke-linecap="round" stroke-linejoin="round"/>
<path d="M2908.48 4354.26L2906.33 4346.2C2902.94 4330.82 2896.48 4316.29 2887.34 4303.46C2878.21 4290.64 2866.57 4279.79 2853.15 4271.56C2839.72 4263.33 2824.77 4257.9 2809.2 4255.58C2793.62 4253.27 2777.74 4254.12 2762.5 4258.08C2747.26 4262.04 2732.97 4269.04 2720.5 4278.65C2708.03 4288.26 2697.62 4300.29 2689.9 4314.02C2682.18 4327.74 2677.31 4342.88 2675.58 4358.54C2673.85 4374.19 2675.29 4390.03 2679.82 4405.11L2682.69 4416.03C2712.54 4525.26 2758.4 4629.46 2818.77 4725.26L3032.02 4623.73C2976.1 4541.43 2934.34 4450.34 2908.48 4354.26Z" fill="#8FD998" stroke="#263238" stroke-width="1.1133" stroke-linecap="round" stroke-linejoin="round"/>
<path d="M3885.04 4864.56C3901.42 4845.59 3916.61 4825.62 3930.52 4804.76C3862.84 4781.66 3761.49 4749.79 3723.89 4753.19C3679.3 4757.31 3739.82 4900.55 3770.98 4968.06C3812.92 4938.14 3851.2 4903.4 3885.04 4864.56Z" fill="#8FD998" stroke="#263238" stroke-width="1.1133" stroke-linecap="round" stroke-linejoin="round"/>
<path d="M3888.8 4481.92C3881.64 4496.25 3969.19 4559.99 4028.28 4600.99C4047.02 4545.22 4062.1 4488.28 4073.4 4430.54C4001.78 4444.86 3895.78 4467.96 3888.8 4481.92Z" fill="#8FD998" stroke="#263238" stroke-width="1.1133" stroke-linecap="round" stroke-linejoin="round"/>
<path d="M4102.41 4217.1C4106.35 4166.07 4108.32 4117.37 4108.5 4072.61C4046.9 4106.45 3973.85 4153.36 3973.85 4184.16C3973.85 4214.95 4042.25 4218.71 4102.41 4217.1Z" fill="#8FD998" stroke="#263238" stroke-width="1.1133" stroke-linecap="round" stroke-linejoin="round"/>
<path d="M3138.38 2831.76C3138.38 2831.76 2964.52 3335.26 3058.17 3727.03C3085.9 3841.67 3139.75 3948.36 3215.5 4038.77C3291.25 4129.19 3386.86 4200.88 3494.88 4248.26C3494.88 4248.26 3240.8 4337.78 3297.92 4475.48C3355.04 4613.17 3574.02 4524.54 3645.46 4479.95C3716.91 4435.37 3806.61 4301.79 3819.15 4212.63C3827.11 4167.07 3830.11 4120.78 3828.1 4074.57C3828.1 4074.57 4117.63 4043.42 4313.69 3882.99C4313.69 3882.99 4487.56 4021.04 4612.36 3994.36C4737.16 3967.68 4915.32 3744.76 4897.41 3544.4C4879.51 3344.03 4764.02 3344.21 4693.47 3374.65C4656.85 3388.5 4623.45 3409.71 4595.35 3436.96C4595.35 3436.96 4697.77 3311.62 4595.35 3138.48C4565.12 3087.69 4523.73 3044.45 4474.31 3012.03C4424.89 2979.61 4368.74 2958.87 4310.11 2951.37C4310.11 2951.37 4256.4 2666.13 4096.32 2559.24C3936.25 2452.34 3365.6 2341.69 3138.38 2831.76Z" fill="white"/>
<mask id="mask2_124_153" style="mask-type:luminance" maskUnits="userSpaceOnUse" x="3030" y="2467" width="1869" height="2083">
<path d="M3138.38 2831.76C3138.38 2831.76 2964.52 3335.26 3058.17 3727.03C3085.9 3841.67 3139.75 3948.36 3215.5 4038.77C3291.25 4129.19 3386.86 4200.88 3494.88 4248.26C3494.88 4248.26 3240.8 4337.78 3297.92 4475.48C3355.04 4613.17 3574.02 4524.54 3645.46 4479.95C3716.91 4435.37 3806.61 4301.79 3819.15 4212.63C3827.11 4167.07 3830.11 4120.78 3828.1 4074.57C3828.1 4074.57 4117.63 4043.42 4313.69 3882.99C4313.69 3882.99 4487.56 4021.04 4612.36 3994.36C4737.16 3967.68 4915.32 3744.76 4897.41 3544.4C4879.51 3344.03 4764.02 3344.21 4693.47 3374.65C4656.85 3388.5 4623.45 3409.71 4595.35 3436.96C4595.35 3436.96 4697.77 3311.62 4595.35 3138.48C4565.12 3087.69 4523.73 3044.45 4474.31 3012.03C4424.89 2979.61 4368.74 2958.87 4310.11 2951.37C4310.11 2951.37 4256.4 2666.13 4096.32 2559.24C3936.25 2452.34 3365.6 2341.69 3138.38 2831.76Z" fill="white"/>
</mask>
<g mask="url(#mask2_124_153)">
<path d="M4462.13 3004.9C4379.47 3142.79 4265.09 3258.94 4128.5 3343.72C3991.9 3428.49 3837.04 3479.42 3676.8 3492.29C3322.27 3523.45 3123.52 3453.61 3032.2 3405.09C3043.28 3210.28 3079.39 3017.71 3139.64 2832.12C3366.86 2342.05 3937.14 2453.42 4097.58 2560.31C4258.01 2667.21 4311.37 2952.44 4311.37 2952.44C4364.75 2959.14 4416.12 2977.02 4462.13 3004.9ZM4693.47 3374.65C4656.85 3388.5 4623.45 3409.71 4595.35 3436.96C4617.03 3407.07 4631.33 3372.46 4637.07 3335.98C4396.24 3455.94 4415.04 3711.99 4385.14 3711.99C4348.25 3711.99 4329.99 3583.25 4329.99 3583.25C4329.99 3583.25 4283.97 3767.14 4007.69 3896.06C3731.41 4024.98 3418.96 3923.63 3418.96 3923.63C3418.96 3923.63 3483.42 4070.81 3317.79 4052.37C3271.31 4047.93 3226.75 4031.65 3188.34 4005.1C3267.76 4110.99 3373.24 4194.51 3494.52 4247.54C3494.52 4247.54 3240.44 4337.07 3297.56 4474.76C3354.68 4612.45 3573.84 4523.82 3645.11 4479.24C3716.37 4434.65 3806.25 4301.08 3818.79 4211.91C3826.75 4166.35 3829.76 4120.06 3827.74 4073.86C3827.74 4073.86 4117.27 4042.7 4313.34 3882.27C4313.34 3882.27 4487.2 4020.32 4612 3993.64C4736.8 3966.96 4914.96 3744.04 4897.05 3543.68C4879.15 3343.32 4764.02 3344.21 4693.47 3374.65Z" fill="#8FD998"/>
<path opacity="0.5" d="M4462.13 3004.9C4379.47 3142.79 4265.09 3258.94 4128.5 3343.72C3991.9 3428.49 3837.04 3479.42 3676.8 3492.29C3322.27 3523.45 3123.52 3453.61 3032.2 3405.09C3043.28 3210.28 3079.39 3017.71 3139.64 2832.12C3366.86 2342.05 3937.14 2453.42 4097.58 2560.31C4258.01 2667.21 4311.37 2952.44 4311.37 2952.44C4364.75 2959.14 4416.12 2977.02 4462.13 3004.9ZM4693.47 3374.65C4656.85 3388.5 4623.45 3409.71 4595.35 3436.96C4617.03 3407.07 4631.33 3372.46 4637.07 3335.98C4396.24 3455.94 4415.04 3711.99 4385.14 3711.99C4348.25 3711.99 4329.99 3583.25 4329.99 3583.25C4329.99 3583.25 4283.97 3767.14 4007.69 3896.06C3731.41 4024.98 3418.96 3923.63 3418.96 3923.63C3418.96 3923.63 3483.42 4070.81 3317.79 4052.37C3271.31 4047.93 3226.75 4031.65 3188.34 4005.1C3267.76 4110.99 3373.24 4194.51 3494.52 4247.54C3494.52 4247.54 3240.44 4337.07 3297.56 4474.76C3354.68 4612.45 3573.84 4523.82 3645.11 4479.24C3716.37 4434.65 3806.25 4301.08 3818.79 4211.91C3826.75 4166.35 3829.76 4120.06 3827.74 4073.86C3827.74 4073.86 4117.27 4042.7 4313.34 3882.27C4313.34 3882.27 4487.2 4020.32 4612 3993.64C4736.8 3966.96 4914.96 3744.04 4897.05 3543.68C4879.15 3343.32 4764.02 3344.21 4693.47 3374.65Z" fill="white"/>
<path d="M3828.99 4074.93C3732.9 4077.49 3637.5 4057.98 3550.12 4017.91C3462.74 3977.84 3385.71 3918.27 3324.96 3843.77" stroke="#263238" stroke-width="1.1133" stroke-linecap="round" stroke-linejoin="round"/>
</g>
<path d="M3138.38 2831.76C3138.38 2831.76 2964.52 3335.26 3058.17 3727.03C3085.9 3841.67 3139.75 3948.36 3215.5 4038.77C3291.25 4129.19 3386.86 4200.88 3494.88 4248.26C3494.88 4248.26 3240.8 4337.78 3297.92 4475.48C3355.04 4613.17 3574.02 4524.54 3645.46 4479.95C3716.91 4435.37 3806.61 4301.79 3819.15 4212.63C3827.11 4167.07 3830.11 4120.78 3828.1 4074.57C3828.1 4074.57 4117.63 4043.42 4313.69 3882.99C4313.69 3882.99 4487.56 4021.04 4612.36 3994.36C4737.16 3967.68 4915.32 3744.76 4897.41 3544.4C4879.51 3344.03 4764.02 3344.21 4693.47 3374.65C4656.85 3388.5 4623.45 3409.71 4595.35 3436.96C4595.35 3436.96 4697.77 3311.62 4595.35 3138.48C4565.12 3087.69 4523.73 3044.45 4474.31 3012.03C4424.89 2979.61 4368.74 2958.87 4310.11 2951.37C4310.11 2951.37 4256.4 2666.13 4096.32 2559.24C3936.25 2452.34 3365.6 2341.69 3138.38 2831.76Z" stroke="#263238" stroke-width="1.1133" stroke-linecap="round" stroke-linejoin="round"/>
<path d="M4595.35 3437.68C4595.35 3437.68 4501.88 3500.17 4457.3 3691.76" stroke="#263238" stroke-width="1.1133" stroke-linecap="round" stroke-linejoin="round"/>
<path d="M4767.06 3519.69C4756.14 3552.27 4726.24 3571.79 4700.45 3563.02C4674.67 3554.24 4662.85 3520.76 4673.77 3488.17C4684.69 3455.58 4714.6 3436.07 4740.38 3444.84C4766.16 3453.61 4778.16 3487.1 4767.06 3519.69Z" fill="white" stroke="#263238" stroke-width="1.1133" stroke-linecap="round" stroke-linejoin="round"/>
<path d="M4859.27 3577.7C4848.35 3610.29 4818.45 3629.8 4792.66 3621.03C4766.88 3612.26 4754.88 3578.77 4765.98 3546.19C4777.09 3513.6 4806.81 3494.08 4832.59 3502.85C4858.38 3511.63 4870.37 3545.11 4859.27 3577.7Z" fill="white" stroke="#263238" stroke-width="1.1133" stroke-linecap="round" stroke-linejoin="round"/>
<path d="M4878.97 3664.54C4875.39 3670.53 4870.19 3675.39 4863.97 3678.55C4857.74 3681.7 4850.75 3683.03 4843.8 3682.37C4836.86 3681.71 4830.24 3679.09 4824.72 3674.82C4819.2 3670.55 4815 3664.8 4812.62 3658.24C4810.24 3651.68 4809.77 3644.58 4811.26 3637.77C4812.75 3630.95 4816.14 3624.69 4821.05 3619.73C4825.95 3614.76 4832.16 3611.29 4838.96 3609.71C4845.76 3608.14 4852.86 3608.52 4859.45 3610.82C4868.96 3615.58 4876.28 3623.8 4879.92 3633.79C4883.55 3643.79 4883.21 3654.79 4878.97 3664.54Z" fill="white" stroke="#263238" stroke-width="1.1133" stroke-linecap="round" stroke-linejoin="round"/>
<path d="M4761.33 3783.79C4729.1 3841.98 4664.64 3867.77 4617.19 3841.45C4569.74 3815.12 4557.57 3746.9 4589.8 3688.71C4622.03 3630.52 4686.49 3604.74 4733.93 3631.06C4781.38 3657.38 4793.56 3725.6 4761.33 3783.79Z" fill="white" stroke="#263238" stroke-width="1.1133" stroke-linecap="round" stroke-linejoin="round"/>
<path d="M3494.88 4248.62C3554.9 4276.55 3623.13 4281.34 3686.47 4262.04" stroke="#263238" stroke-width="1.1133" stroke-linecap="round" stroke-linejoin="round"/>
<path d="M3298.81 4475.84C3298.81 4475.84 3316.72 4400.1 3427.91 4346.74" stroke="#263238" stroke-width="1.1133" stroke-linecap="round" stroke-linejoin="round"/>
<path d="M3410.19 4542.8C3410.19 4542.8 3454.77 4435.37 3530.51 4386.85" stroke="#263238" stroke-width="1.1133" stroke-linecap="round" stroke-linejoin="round"/>
<path d="M1653.13 3310.19C1634.19 3295.08 1619.09 3275.7 1609.07 3253.63C1599.05 3231.57 1594.39 3207.45 1595.47 3183.24V2758.7H500.375C473.625 2759.71 446.974 2754.91 422.249 2744.65C397.525 2734.39 375.311 2718.91 357.131 2699.26C321.313 2661.37 301.661 2611.02 302.341 2558.88C302.196 2516.51 314.662 2475.07 338.152 2439.81L1387.05 791.435C1465.84 669.797 1570.52 608.978 1701.11 608.978C1771.32 606.593 1839.87 630.615 1893.24 676.303C1944.45 721.066 1970.05 787.615 1970.05 875.948V2478.31H2248.66C2267.9 2477.15 2287.17 2480.23 2305.08 2487.35C2323 2494.47 2339.13 2505.44 2352.33 2519.49C2375.89 2547.1 2388.83 2582.21 2388.83 2618.5C2388.83 2654.8 2375.89 2689.91 2352.33 2717.52C2339.13 2731.57 2323 2742.54 2305.08 2749.66C2287.17 2756.78 2267.9 2759.86 2248.66 2758.7H1968.08V3183.24C1969.24 3207.27 1964.82 3231.23 1955.16 3253.26C1945.5 3275.29 1930.86 3294.77 1912.4 3310.19C1876.35 3340.41 1830.69 3356.73 1783.66 3356.21C1736.11 3356.58 1689.93 3340.3 1653.13 3310.19ZM1594.75 2478.31V1002.9L676.385 2478.31H1594.75Z" fill="#263238"/>
<path d="M3172.76 3318.79C3065.43 3271.95 2970.38 3200.92 2895.05 3111.26C2819.38 3016.53 2760.29 2909.68 2720.29 2795.23C2674.95 2671.59 2643.07 2543.42 2625.21 2412.95C2606.58 2270.9 2597.6 2127.74 2598.35 1984.47C2598.35 1040.62 2920.65 568.691 3565.25 568.691C4209.84 568.691 4531.36 1040.62 4529.81 1984.47C4530.45 2127.06 4521.78 2269.53 4503.85 2410.98C4486.57 2541.48 4454.99 2669.68 4409.67 2793.26C4369.66 2907.71 4310.58 3014.56 4234.91 3109.29C4159.48 3199.07 4064.48 3270.37 3957.2 3317.71C3833.86 3372.24 3700.08 3399.13 3565.25 3396.5C3430.34 3399.2 3296.45 3372.69 3172.76 3318.79ZM3755.76 3047.88C3809.7 3024.87 3858.65 2991.61 3899.9 2949.93C3941.67 2905.46 3976.01 2854.56 4001.6 2799.17C4029.84 2740.49 4052.68 2679.36 4069.82 2616.54C4087.88 2548.08 4101.04 2478.44 4109.21 2408.12C4118.88 2330.53 4125.33 2259.44 4128.55 2194.86C4131.78 2130.28 4133.33 2060.15 4133.21 1984.47C4133.21 1905.09 4131.66 1831.8 4128.55 1764.6C4125.45 1697.39 4118.7 1625.29 4108.32 1548.3C4099.4 1478.03 4085.95 1408.41 4068.03 1339.88C4051.09 1277.68 4028.24 1217.25 3999.81 1159.39C3974.02 1104.88 3939.62 1054.88 3897.93 1011.31C3856.92 970.48 3808.24 938.166 3754.69 916.236C3632.26 868.969 3496.62 868.969 3374.2 916.236C3321.04 937.902 3272.71 969.917 3232.03 1010.42C3190.64 1053.8 3156.33 1103.4 3130.32 1157.42C3101.64 1214.76 3079.08 1274.95 3063 1337.01C3045.52 1405.96 3032.36 1475.92 3023.61 1546.51C3013.22 1624.57 3006.48 1697.27 3003.37 1764.6C3000.27 1831.92 2998.66 1905.21 2998.54 1984.47C2998.54 2060.03 3000.15 2130.46 3003.37 2195.76C3006.6 2261.05 3012.98 2332.67 3022.53 2410.62C3030.79 2480.93 3043.96 2550.57 3061.93 2619.04C3078.83 2681.85 3101.42 2742.98 3129.43 2801.68C3154.76 2856.73 3188.8 2907.33 3230.24 2951.55C3271.18 2992.95 3319.85 3025.92 3373.48 3048.59C3496.02 3098.48 3633.22 3098.48 3755.76 3048.59V3047.88Z" fill="#263238"/>
<path d="M6188.93 3310.19C6169.99 3295.08 6154.89 3275.7 6144.87 3253.63C6134.85 3231.57 6130.19 3207.45 6131.27 3183.24V2758.7H5036.18C5009.43 2759.71 4982.78 2754.91 4958.05 2744.65C4933.33 2734.39 4911.12 2718.91 4892.94 2699.26C4857.12 2661.37 4837.46 2611.02 4838.14 2558.88C4838 2516.52 4850.47 2475.07 4873.96 2439.81L5922.86 791.435C6000.92 669.798 6105.31 608.979 6236.02 608.979C6306.6 606.321 6375.58 630.361 6429.22 676.303C6480.43 721.067 6506.04 787.615 6506.04 875.949V2478.31H6784.64C6803.89 2477.15 6823.15 2480.23 6841.07 2487.35C6858.98 2494.47 6875.11 2505.44 6888.32 2519.49C6911.88 2547.1 6924.82 2582.21 6924.82 2618.51C6924.82 2654.8 6911.88 2689.91 6888.32 2717.52C6875.11 2731.57 6858.98 2742.54 6841.07 2749.66C6823.15 2756.78 6803.89 2759.86 6784.64 2758.7H6503.89V3183.24C6505.05 3207.27 6500.62 3231.23 6490.96 3253.26C6481.3 3275.29 6466.66 3294.78 6448.2 3310.19C6412.16 3340.41 6366.49 3356.73 6319.46 3356.21C6271.91 3356.58 6225.73 3340.3 6188.93 3310.19ZM6131.27 2478.31V1002.9L5212.91 2478.31H6131.27Z" fill="#263238"/>
<path d="M2777.41 2577.86C2777.41 2577.86 2590.3 2840.71 2563.62 3108.04C2536.94 3375.37 2568.09 3553.53 2648.31 3620.49C2728.53 3687.46 2808.56 3660.6 2853.15 3598.11C2897.73 3535.62 2826.47 3317.35 2826.47 3317.35C2826.47 3317.35 2902.21 3108.04 3018.06 2961.04C3133.91 2814.03 3156.11 2791.65 3156.11 2791.65C3156.11 2791.65 2955.57 2564.43 2777.41 2577.86Z" fill="white"/>
<mask id="mask3_124_153" style="mask-type:luminance" maskUnits="userSpaceOnUse" x="2554" y="2577" width="603" height="1083">
<path d="M2777.41 2577.86C2777.41 2577.86 2590.3 2840.71 2563.62 3108.04C2536.94 3375.37 2568.09 3553.53 2648.31 3620.49C2728.53 3687.46 2808.56 3660.6 2853.15 3598.11C2897.73 3535.62 2826.47 3317.35 2826.47 3317.35C2826.47 3317.35 2902.21 3108.04 3018.06 2961.04C3133.91 2814.03 3156.11 2791.65 3156.11 2791.65C3156.11 2791.65 2955.57 2564.43 2777.41 2577.86Z" fill="white"/>
</mask>
<g mask="url(#mask3_124_153)">
<path d="M2777.41 2577.86C2736.58 2638.19 2700.37 2701.51 2669.08 2767.3C2758.61 2803.11 2897.37 2876.52 2985.47 3006.52C2996.21 2990.94 3007.31 2975.54 3018.77 2961.04C3134.62 2814.03 3156.82 2791.65 3156.82 2791.65C3156.82 2791.65 2955.57 2564.43 2777.41 2577.86Z" fill="#8FD998"/>
<path opacity="0.5" d="M2777.41 2577.86C2736.58 2638.19 2700.37 2701.51 2669.08 2767.3C2758.61 2803.11 2897.37 2876.52 2985.47 3006.52C2996.21 2990.94 3007.31 2975.54 3018.77 2961.04C3134.62 2814.03 3156.82 2791.65 3156.82 2791.65C3156.82 2791.65 2955.57 2564.43 2777.41 2577.86Z" fill="white"/>
</g>
<path d="M2777.41 2577.86C2777.41 2577.86 2590.3 2840.71 2563.62 3108.04C2536.94 3375.37 2568.09 3553.53 2648.31 3620.49C2728.53 3687.46 2808.56 3660.6 2853.15 3598.11C2897.73 3535.62 2826.47 3317.35 2826.47 3317.35C2826.47 3317.35 2902.21 3108.04 3018.06 2961.04C3133.91 2814.03 3156.11 2791.65 3156.11 2791.65C3156.11 2791.65 2955.57 2564.43 2777.41 2577.86Z" stroke="#263238" stroke-width="1.1133" stroke-linecap="round" stroke-linejoin="round"/>
<path d="M2648.31 3620.49C2626.43 3562.08 2615.8 3500.05 2616.98 3437.68" stroke="#263238" stroke-width="1.1133" stroke-linecap="round" stroke-linejoin="round"/>
<path d="M2768.46 3647.17C2768.46 3647.17 2724.05 3571.43 2719.57 3442.16" stroke="#263238" stroke-width="1.1133" stroke-linecap="round" stroke-linejoin="round"/>
<path d="M2835.42 3054.5C2835.42 3007.59 2745.89 2915.91 2621.45 2875.45C2604.72 2919.07 2590.91 2963.75 2580.09 3009.2C2628.44 3017.48 2675.39 3032.48 2719.57 3053.79C2786.36 3090.13 2835.42 3108.04 2835.42 3054.5Z" fill="#8FD998" stroke="#263238" stroke-width="1.1133" stroke-linecap="round" stroke-linejoin="round"/>
<path d="M2766.49 2593.8C2737.62 2637.8 2711.09 2683.28 2686.99 2730.06C2724.67 2740.02 2760.81 2755.08 2794.42 2774.82C2932.47 2854.86 2959.15 2864.35 2914.74 2747.96C2887.88 2674.91 2823.78 2625.31 2766.49 2593.8Z" fill="#8FD998" stroke="#263238" stroke-width="1.1133" stroke-linecap="round" stroke-linejoin="round"/>
<path d="M4242.97 2448.04C4242.97 2448.04 4454.97 2691.2 4507.79 2954.77C4560.61 3218.34 4547.18 3398.64 4473.77 3472.95C4400.36 3547.26 4318.17 3528.64 4267.68 3470.8C4217.18 3412.97 4267.68 3188.97 4267.68 3188.97C4267.68 3188.97 4171.7 2987.89 4042.07 2852.89C3912.43 2717.88 3887.9 2698 3887.9 2698C3887.9 2698 4064.27 2452.16 4242.97 2448.04Z" fill="white"/>
<mask id="mask4_124_153" style="mask-type:luminance" maskUnits="userSpaceOnUse" x="3887" y="2448" width="653" height="1074">
<path d="M4242.97 2448.04C4242.97 2448.04 4454.97 2691.2 4507.79 2954.77C4560.61 3218.34 4547.18 3398.64 4473.77 3472.95C4400.36 3547.26 4318.17 3528.64 4267.68 3470.8C4217.18 3412.97 4267.68 3188.97 4267.68 3188.97C4267.68 3188.97 4171.7 2987.89 4042.07 2852.89C3912.43 2717.88 3887.9 2698 3887.9 2698C3887.9 2698 4064.27 2452.16 4242.97 2448.04Z" fill="white"/>
</mask>
<g mask="url(#mask4_124_153)">
<path d="M4242.97 2448.04C4063.91 2452.16 3887.01 2698.72 3887.01 2698.72C3887.01 2698.72 3911.36 2718.77 4041.17 2853.6C4065.45 2879.17 4088.29 2906.07 4109.57 2934.18C4177.33 2819.73 4274.12 2725.22 4390.15 2660.22C4347.45 2585.29 4298.2 2514.28 4242.97 2448.04Z" fill="#8FD998"/>
<path opacity="0.5" d="M4242.97 2448.04C4063.91 2452.16 3887.01 2698.72 3887.01 2698.72C3887.01 2698.72 3911.36 2718.77 4041.17 2853.6C4065.45 2879.17 4088.29 2906.07 4109.57 2934.18C4177.33 2819.73 4274.12 2725.22 4390.15 2660.22C4347.45 2585.29 4298.2 2514.28 4242.97 2448.04Z" fill="white"/>
</g>
<path d="M4242.97 2448.04C4242.97 2448.04 4454.97 2691.2 4507.79 2954.77C4560.61 3218.34 4547.18 3398.64 4473.77 3472.95C4400.36 3547.26 4318.17 3528.64 4267.68 3470.8C4217.18 3412.97 4267.68 3188.97 4267.68 3188.97C4267.68 3188.97 4171.7 2987.89 4042.07 2852.89C3912.43 2717.88 3887.9 2698 3887.9 2698C3887.9 2698 4064.27 2452.16 4242.97 2448.04Z" stroke="#263238" stroke-width="1.1133" stroke-linecap="round" stroke-linejoin="round"/>
<path d="M4473.77 3472.95C4489.82 3412.75 4494.32 3350.05 4487.02 3288.17" stroke="#263238" stroke-width="1.1133" stroke-linecap="round" stroke-linejoin="round"/>
<path d="M4356.67 3511.27C4356.67 3511.27 4393.73 3431.59 4385.49 3302.49" stroke="#263238" stroke-width="1.1133" stroke-linecap="round" stroke-linejoin="round"/>
<path d="M4232.05 2928.09C4227.57 2881.36 4307.61 2781.44 4427.57 2729.7C4448.32 2771.43 4466.27 2814.5 4481.29 2858.62C4434.07 2871.78 4388.89 2891.36 4347 2916.81C4284.33 2958.89 4237.42 2980.73 4232.05 2928.09Z" fill="#8FD998" stroke="#263238" stroke-width="1.1133" stroke-linecap="round" stroke-linejoin="round"/>
<path d="M4255.32 2462.91C4288.26 2503.54 4318.98 2545.92 4347.36 2589.86C4310.7 2603.43 4276.07 2621.92 4244.4 2644.83C4114.94 2738.29 4089.16 2749.75 4122.11 2630.14C4142.7 2555.48 4201.43 2499.79 4255.32 2462.91Z" fill="#8FD998" stroke="#263238" stroke-width="1.1133" stroke-linecap="round" stroke-linejoin="round"/>
<path d="M2759.86 2350.46C2759.86 2350.46 2704.71 2536.5 2725.48 2612.24C2746.25 2687.98 2842.58 2619.22 2939.09 2701.77C3035.6 2784.31 3124.95 2933.28 3490.4 2960.86C3855.85 2988.43 4076.45 2791.29 4152.9 2681C4229.36 2570.7 4221.84 2439.81 4352.73 2433.01C4483.62 2426.2 4373.5 2171.05 4332.14 2129.69C4332.14 2129.69 4587.11 1750.63 4587.11 1654.12C4587.11 1557.61 4345.92 1578.2 4049.95 1667.91C4049.95 1667.91 3829.35 1550.63 3429.52 1619.56C3029.7 1688.5 2912.59 1805.78 2912.59 1805.78C2912.59 1805.78 2416.26 1867.73 2381.88 1929.68C2347.5 1991.64 2449.74 2253.95 2759.86 2350.46Z" fill="white"/>
<mask id="mask5_124_153" style="mask-type:luminance" maskUnits="userSpaceOnUse" x="2375" y="1590" width="2213" height="1374">
<path d="M2759.86 2350.46C2759.86 2350.46 2704.71 2536.5 2725.48 2612.24C2746.25 2687.98 2842.58 2619.22 2939.09 2701.77C3035.6 2784.31 3124.95 2933.28 3490.4 2960.86C3855.85 2988.43 4076.45 2791.29 4152.9 2681C4229.36 2570.7 4221.84 2439.81 4352.73 2433.01C4483.62 2426.2 4373.5 2171.05 4332.14 2129.69C4332.14 2129.69 4587.11 1750.63 4587.11 1654.12C4587.11 1557.61 4345.92 1578.2 4049.95 1667.91C4049.95 1667.91 3829.35 1550.63 3429.52 1619.56C3029.7 1688.5 2912.59 1805.78 2912.59 1805.78C2912.59 1805.78 2416.26 1867.73 2381.88 1929.68C2347.5 1991.64 2449.74 2253.95 2759.86 2350.46Z" fill="white"/>
</mask>
<g mask="url(#mask5_124_153)">
<path d="M4352.19 2433.18C4483.26 2426.2 4372.96 2171.23 4331.6 2129.87C4331.6 2129.87 4380.12 2058.24 4434.73 1968.72C4286.66 1891.37 4141.26 1848.39 4102.59 1891.9C4019.33 1985.37 4064.63 2164.42 4102.59 2339.54C4140.55 2514.65 3988.89 2589.32 3882.89 2740.8C3776.89 2892.28 3625.59 2725.58 3625.59 2725.58C3571.87 2945.28 3345.37 2801.32 3345.37 2801.32C3171.33 2747.6 2876.07 2574.28 2936.59 2453.06C2997.11 2331.84 3012.33 2218.32 2906.33 2120.02C2800.33 2021.72 2377.58 1939.89 2377.58 1939.89C2355.38 2014.55 2462.63 2259.14 2760.04 2351.71C2760.04 2351.71 2704.89 2537.75 2725.66 2613.49C2746.43 2689.23 2842.76 2620.47 2939.27 2703.02C3035.78 2785.56 3125.13 2934.54 3490.58 2962.11C3856.03 2989.68 4076.63 2792.55 4153.08 2682.25C4229.54 2571.95 4221.12 2439.99 4352.19 2433.18Z" fill="#8FD998"/>
<path opacity="0.5" d="M4352.19 2433.18C4483.26 2426.2 4372.96 2171.23 4331.6 2129.87C4331.6 2129.87 4380.12 2058.24 4434.73 1968.72C4286.66 1891.37 4141.26 1848.39 4102.59 1891.9C4019.33 1985.37 4064.63 2164.42 4102.59 2339.54C4140.55 2514.65 3988.89 2589.32 3882.89 2740.8C3776.89 2892.28 3625.59 2725.58 3625.59 2725.58C3571.87 2945.28 3345.37 2801.32 3345.37 2801.32C3171.33 2747.6 2876.07 2574.28 2936.59 2453.06C2997.11 2331.84 3012.33 2218.32 2906.33 2120.02C2800.33 2021.72 2377.58 1939.89 2377.58 1939.89C2355.38 2014.55 2462.63 2259.14 2760.04 2351.71C2760.04 2351.71 2704.89 2537.75 2725.66 2613.49C2746.43 2689.23 2842.76 2620.47 2939.27 2703.02C3035.78 2785.56 3125.13 2934.54 3490.58 2962.11C3856.03 2989.68 4076.63 2792.55 4153.08 2682.25C4229.54 2571.95 4221.12 2439.99 4352.19 2433.18Z" fill="white"/>
<path d="M3813.06 2474.72C3818.25 2518.41 3721.2 2565.5 3596.76 2580.01C3472.32 2594.51 3367.03 2570.88 3361.84 2526.29C3356.65 2481.71 3453.7 2435.69 3578.32 2421.19C3702.94 2406.68 3808.04 2431.21 3813.06 2474.72Z" fill="#8FD998"/>
<path opacity="0.5" d="M3813.06 2474.72C3818.25 2518.41 3721.2 2565.5 3596.76 2580.01C3472.32 2594.51 3367.03 2570.88 3361.84 2526.29C3356.65 2481.71 3453.7 2435.69 3578.32 2421.19C3702.94 2406.68 3808.04 2431.21 3813.06 2474.72Z" fill="white"/>
</g>
<path d="M2759.86 2350.46C2759.86 2350.46 2704.71 2536.5 2725.48 2612.24C2746.25 2687.98 2842.58 2619.22 2939.09 2701.77C3035.6 2784.31 3124.95 2933.28 3490.4 2960.86C3855.85 2988.43 4076.45 2791.29 4152.9 2681C4229.36 2570.7 4221.84 2439.81 4352.73 2433.01C4483.62 2426.2 4373.5 2171.05 4332.14 2129.69C4332.14 2129.69 4587.11 1750.63 4587.11 1654.12C4587.11 1557.61 4345.92 1578.2 4049.95 1667.91C4049.95 1667.91 3829.35 1550.63 3429.52 1619.56C3029.7 1688.5 2912.59 1805.78 2912.59 1805.78C2912.59 1805.78 2416.26 1867.73 2381.88 1929.68C2347.5 1991.64 2449.74 2253.95 2759.86 2350.46Z" stroke="#263238" stroke-width="1.1133" stroke-miterlimit="10"/>
<path d="M4185.49 1798.97C4006.44 1919.3 4069.64 2039.62 4149.68 2106.41C4198.56 2147.23 4277.35 2142.22 4331.24 2130.76C4331.24 2130.76 4586.21 1751.7 4586.21 1655.19C4586.39 1654.3 4363.65 1677.75 4185.49 1798.97Z" fill="#8FD998" stroke="#263238" stroke-width="1.1133" stroke-miterlimit="10"/>
<path d="M2377.4 1938.64C2355.2 2013.3 2462.45 2257.89 2759.86 2350.46C2759.86 2350.46 2986.9 2328.26 2911.16 2145.62C2840.44 1975.16 2482.86 1932.73 2377.4 1938.64Z" fill="#8FD998" stroke="#263238" stroke-width="1.1133" stroke-miterlimit="10"/>
<path d="M3428.45 1619.92C3404.99 1624.04 3382.43 1628.33 3360.77 1632.63C3396.58 1813.48 3455.49 2114.65 3508.13 2114.65C3560.77 2114.65 3601.06 1784.47 3618.25 1599.51C3554.61 1602.19 3491.21 1609.01 3428.45 1619.92Z" fill="#8FD998" stroke="#263238" stroke-width="1.1133" stroke-miterlimit="10"/>
<path d="M3223.07 2060.93C3277.87 2028.7 3269.63 1786.44 3260.86 1655.01C3204.31 1669.06 3148.64 1686.46 3094.16 1707.12C3114.03 1830.13 3164.52 2095.31 3223.07 2060.93Z" fill="#8FD998" stroke="#263238" stroke-width="1.1133" stroke-miterlimit="10"/>
<path d="M3753.25 1949.56C3809.3 1969.25 3840.81 1767.82 3858.54 1612.76C3801.94 1603.53 3744.71 1598.68 3687.36 1598.25C3685.57 1725.56 3692.55 1928.25 3753.25 1949.56Z" fill="#8FD998" stroke="#263238" stroke-width="1.1133" stroke-miterlimit="10"/>
<path d="M3678.23 2646.8C3625.94 2633.05 3570.37 2639.91 3522.99 2665.95C3520.91 2667.15 3519.15 2668.82 3517.83 2670.83C3516.51 2672.83 3515.68 2675.12 3515.4 2677.5C3515.12 2679.88 3515.4 2682.3 3516.22 2684.55C3517.05 2686.81 3518.38 2688.84 3520.13 2690.48L3615.2 2780.01C3616.99 2781.68 3619.14 2782.9 3621.49 2783.58C3623.84 2784.25 3626.31 2784.35 3628.71 2783.88C3631.1 2783.41 3633.35 2782.37 3635.27 2780.86C3637.19 2779.35 3638.72 2777.4 3639.73 2775.18L3688.44 2667.74C3689.31 2665.71 3689.73 2663.52 3689.68 2661.31C3689.62 2659.1 3689.09 2656.92 3688.13 2654.94C3687.16 2652.95 3685.77 2651.19 3684.06 2649.79C3682.36 2648.38 3680.37 2647.36 3678.23 2646.8Z" fill="#8FD998" stroke="#263238" stroke-width="1.1133" stroke-linecap="round" stroke-linejoin="round"/>
<path d="M3452.26 2497.29C3465.34 2531.84 3460.14 2565.86 3440.63 2573.2C3421.11 2580.55 3394.61 2558.7 3381.36 2524.32C3368.11 2489.94 3373.48 2455.74 3393 2448.4C3412.51 2441.06 3439.01 2462.91 3452.26 2497.29Z" fill="#263238"/>
<path d="M3711.53 2472.75C3704.73 2508.57 3715.83 2541.69 3736.42 2545.45C3757.01 2549.21 3779.22 2523.07 3786.02 2486.72C3792.83 2450.37 3781.72 2417.96 3761.13 2414.02C3740.54 2410.09 3718.34 2436.59 3711.53 2472.75Z" fill="#263238"/>
<path d="M3639.73 2775C3639.73 2775 3512.61 2947.61 3396.76 2773.92" stroke="#263238" stroke-width="1.1133" stroke-linecap="round" stroke-linejoin="round"/>
<path d="M3615.2 2779.83C3615.2 2779.83 3699.72 2867.39 3788.89 2818.33C3878.06 2769.27 3824.7 2692.99 3824.7 2692.99" stroke="#263238" stroke-width="1.1133" stroke-linecap="round" stroke-linejoin="round"/>
<path d="M3227.55 2359.41C3227.55 2359.41 3258.71 2248.04 3405.71 2274.72" stroke="#263238" stroke-width="3.33991" stroke-linecap="round" stroke-linejoin="round"/>
<path d="M3673.04 2256.99C3673.04 2256.99 3784.41 2190.21 3886.83 2297.1" stroke="#263238" stroke-width="3.33991" stroke-linecap="round" stroke-linejoin="round"/>
<path d="M3142.86 2658.08L3249.75 2684.76" stroke="#263238" stroke-width="1.1133" stroke-miterlimit="10" stroke-linecap="round"/>
<path d="M3236.32 2724.86L3142.86 2742.59" stroke="#263238" stroke-width="1.1133" stroke-miterlimit="10" stroke-linecap="round"/>
<path d="M3254.23 2773.92L3187.44 2809.56" stroke="#263238" stroke-width="1.1133" stroke-miterlimit="10" stroke-linecap="round"/>
<path d="M3931.41 2609.02L4025.06 2586.63" stroke="#263238" stroke-width="1.1133" stroke-miterlimit="10" stroke-linecap="round"/>
<path d="M3949.32 2653.6H4011.63" stroke="#263238" stroke-width="1.1133" stroke-miterlimit="10" stroke-linecap="round"/>
<path d="M3962.57 2698.18L4047.26 2720.39" stroke="#263238" stroke-width="1.1133" stroke-miterlimit="10" stroke-linecap="round"/>
</svg>
