<svg width="11441" height="11894" viewBox="0 0 11441 11894" fill="none" xmlns="http://www.w3.org/2000/svg">
<path d="M4726.43 11893.1L319.516 9348.49L7033.73 5474.71L11440.6 8019.02L4726.43 11893.1Z" fill="#E0E0E0"/>
<path d="M62.4629 2591.86L125.184 2627.85L1689.35 1724.57L1626.89 1688.58L62.4629 2591.86Z" fill="#F0F0F0"/>
<path d="M1626.89 1688.58L125.186 2555.62V1253.9L1626.89 386.865V1688.58Z" fill="#FAFAFA"/>
<path d="M1752.07 242.401L62.4629 1219.2V2737.61L1752.07 1760.81V242.401ZM1689.35 1725.34L125.955 2627.85V1253.9L1689.35 350.878V1725.34Z" fill="#EBEBEB"/>
<path d="M1689.35 1724.57L1626.89 1688.58V386.865L1689.35 350.878V1724.57Z" fill="#E0E0E0"/>
<path d="M1752.07 242.401L1689.35 206.414L0 1181.67L62.4638 1217.92L1752.07 242.401Z" fill="#F5F5F5"/>
<path d="M0 1181.67L62.4638 1217.92V2736.33L0 2700.08V1181.67Z" fill="#E0E0E0"/>
<path d="M1332.3 1469.83C1390.65 1436.15 1436.92 1463.4 1436.92 1530.75C1434.93 1567.41 1424.33 1603.09 1405.97 1634.89C1387.62 1666.69 1362.03 1693.71 1331.28 1713.77C1272.92 1747.45 1225.63 1719.94 1225.63 1652.59C1227.73 1615.87 1238.49 1580.17 1257.04 1548.41C1275.58 1516.65 1301.37 1489.72 1332.3 1469.83Z" fill="#E0E0E0"/>
<path d="M478.889 1194.78L1273.95 735.171C1296.06 722.319 1314.05 732.858 1314.05 758.306V760.62C1313.27 774.52 1309.23 788.041 1302.27 800.095C1295.3 812.15 1285.6 822.401 1273.95 830.024L478.889 1289.89C456.783 1302.74 438.789 1292.2 438.789 1266.76V1264.19C439.514 1250.27 443.526 1236.73 450.496 1224.66C457.467 1212.6 467.197 1202.36 478.889 1194.78Z" fill="#E0E0E0"/>
<path d="M352.934 1556.71L1399.65 952.381C1421.76 939.529 1439.75 945.441 1439.75 965.234C1438.11 977.557 1433.64 989.331 1426.68 999.634C1419.72 1009.94 1410.47 1018.49 1399.65 1024.61L352.163 1629.2C330.057 1642.05 312.32 1636.14 312.577 1616.09C314.285 1603.76 318.815 1591.98 325.815 1581.68C332.814 1571.39 342.095 1562.84 352.934 1556.71Z" fill="#F0F0F0"/>
<path d="M352.934 1700.92L1399.65 1096.59C1421.76 1083.73 1439.75 1089.65 1439.75 1109.7C1438.11 1121.99 1433.63 1133.73 1426.67 1143.99C1419.71 1154.25 1410.46 1162.75 1399.65 1168.82L352.163 1773.66C330.057 1786.52 312.32 1780.6 312.577 1760.3C314.323 1747.97 318.868 1736.22 325.864 1725.92C332.859 1715.63 342.12 1707.08 352.934 1700.92Z" fill="#F0F0F0"/>
<path d="M352.934 1845.38L1399.65 1241.05C1421.76 1228.2 1439.75 1234.11 1439.75 1253.9C1438.22 1266.36 1433.8 1278.29 1426.84 1288.74C1419.88 1299.18 1410.57 1307.85 1399.65 1314.05L352.163 1918.13C330.057 1930.72 312.32 1924.81 312.577 1904.76C314.285 1892.43 318.815 1880.65 325.815 1870.35C332.814 1860.06 342.095 1851.51 352.934 1845.38Z" fill="#F0F0F0"/>
<path d="M1144.4 1778.8C1136.44 1782.98 1127.67 1785.35 1118.69 1785.75C1096.33 1785.75 1098.39 1762.87 1099.16 1747.19C1099.16 1739.99 1089.65 1729.19 1084.51 1738.45C1070.88 1762.87 1053.66 1785.75 1039.01 1809.39C1030.27 1824.05 1013.3 1856.95 991.71 1852.32C982.713 1850.27 979.886 1840.75 979.629 1828.93C990.547 1808.99 995.457 1786.31 993.766 1763.64C993.766 1756.7 981.428 1748.47 977.829 1757.73C970.416 1776.93 965.827 1797.1 964.205 1817.62C954.57 1835.75 943.299 1852.95 930.531 1869.03C923.077 1878.8 916.908 1889.59 908.682 1898.59C906.883 1900.65 903.027 1906.3 899.942 1906.82C892.745 1906.82 893.516 1903.73 892.488 1898.85C892.123 1891.48 893.351 1884.11 896.086 1877.26C896.002 1876.66 896.002 1876.05 896.086 1875.46C896.086 1868.26 887.09 1857.72 883.491 1866.46C869.774 1904.35 848.919 1939.25 822.055 1969.28L817.942 1972.62C817.942 1968.25 817.942 1964.14 816.4 1960.03C815.944 1950.35 814.304 1940.77 811.516 1931.49C809.717 1927.12 801.748 1919.93 797.378 1926.1C778.242 1960.91 754.841 1993.21 727.717 2022.23C723.135 2026.07 718.233 2029.51 713.065 2032.52C708.438 2029.69 715.892 2004.5 716.664 2000.64C719.491 1989.07 723.347 1978.02 726.946 1966.97C730.928 1958.11 733.778 1948.78 735.428 1939.21C736.714 1930.72 722.062 1917.36 719.234 1928.92C719.234 1933.55 714.093 1945.12 709.723 1959.26C692.672 1993.87 672.992 2027.13 650.858 2058.74C630.385 2091.17 602.103 2117.95 568.601 2136.62C559.347 2141.51 542.896 2148.7 531.843 2141.51C520.79 2134.31 522.589 2121.2 522.332 2111.95C521.838 2087.42 525.133 2062.97 532.1 2039.46C564.853 2021.92 595.328 2000.42 622.839 1975.45C649.702 1953.66 672.802 1927.61 691.215 1898.33C700.726 1881.63 706.125 1853.86 683.761 1844.35C668.081 1837.67 648.031 1848.72 634.664 1855.92C616.264 1866.4 599.469 1879.47 584.796 1894.74C555.601 1927.52 534.319 1966.56 522.589 2008.87C520.532 2015.55 517.962 2024.03 515.391 2034.57C479.915 2052.73 439.688 2059.47 400.232 2053.85C397.918 2053.85 397.147 2058.48 400.232 2058.99C438.068 2066.98 477.442 2063.21 513.078 2048.2C503.053 2091.89 497.141 2151.02 538.783 2161.04C580.426 2171.07 628.752 2121.2 650.601 2091.89C667.256 2069.78 681.881 2046.21 694.3 2021.46C695.437 2019.56 696.726 2017.76 698.156 2016.06C698.156 2036.37 702.269 2051.28 722.062 2047.94C741.855 2044.6 760.62 2015.81 771.673 2000.38C782.726 1984.96 791.723 1970.57 801.234 1955.4C803.033 1973.65 806.375 1994.47 823.855 1990.87C841.334 1987.27 855.729 1957.2 863.955 1944.6C871.095 1934.06 877.701 1923.16 883.748 1911.96C884.79 1914.14 886.179 1916.13 887.861 1917.87C902.256 1933.55 919.478 1917.87 928.732 1904.5C942.099 1887.02 957.265 1868.52 969.603 1848.98C972.627 1857.54 978.909 1864.56 987.083 1868.52C1009.19 1879.06 1030.27 1860.55 1043.12 1842.81C1058.47 1822.01 1071.97 1799.9 1083.48 1776.75C1084.38 1781.2 1086.22 1785.4 1088.88 1789.08C1091.54 1792.76 1094.96 1795.83 1098.9 1798.08C1107.17 1802.34 1116.43 1804.28 1125.71 1803.69C1134.99 1803.11 1143.94 1800.01 1151.6 1794.74C1158.54 1790.12 1151.85 1774.95 1144.4 1778.8ZM654.714 1866.2C664.996 1860.8 686.589 1852.06 687.874 1869.54C686.186 1880.88 681.279 1891.5 673.736 1900.13C656.013 1924.02 635.568 1945.76 612.814 1964.91C589.048 1986.72 563.221 2006.18 535.699 2023C543.672 1990.08 558.358 1959.16 578.838 1932.18C599.318 1905.2 625.149 1882.74 654.714 1866.2Z" fill="#E0E0E0"/>
<path d="M2151.53 2433.52L2214 2469.76L3778.16 1566.48L3715.7 1530.49L2151.53 2433.52Z" fill="#F0F0F0"/>
<path d="M3715.7 1530.49L2214 2397.53V1095.82L3715.7 228.777V1530.49Z" fill="#FAFAFA"/>
<path d="M3840.88 84.3135L2151.27 1061.11V2579.27L3840.62 1604.01L3840.88 84.3135ZM3778.16 1566.48L2213.99 2470.79V1095.82L3778.16 192.79V1566.48Z" fill="#EBEBEB"/>
<path d="M3778.16 1566.48L3715.7 1530.49V228.777L3778.16 192.79V1566.48Z" fill="#E0E0E0"/>
<path d="M3840.88 84.3138L3778.42 48.0693L2088.81 1023.58L2151.27 1059.83L3840.88 84.3138Z" fill="#F5F5F5"/>
<path d="M2088.81 1023.58L2151.27 1059.83L2151.53 2577.98L2088.81 2541.99V1023.58Z" fill="#E0E0E0"/>
<path d="M3421.11 1311.48C3479.46 1277.81 3526.76 1305.31 3526.76 1372.66C3524.77 1409.29 3514.17 1444.93 3495.81 1476.69C3477.45 1508.44 3451.86 1535.42 3421.11 1555.43C3362.76 1589.1 3315.46 1561.85 3315.46 1494.5C3317.46 1457.84 3328.06 1422.17 3346.42 1390.37C3364.77 1358.57 3390.36 1331.54 3421.11 1311.48Z" fill="#E0E0E0"/>
<path d="M2567.96 1036.69L3363.28 577.084C3385.38 564.231 3403.12 574.77 3403.12 600.218V602.532C3402.38 616.414 3398.39 629.928 3391.47 641.984C3384.55 654.04 3374.89 664.3 3363.28 671.936L2567.96 1131.8C2545.85 1144.4 2527.86 1134.12 2527.86 1108.67V1105.84C2528.62 1091.97 2532.65 1078.48 2539.62 1066.46C2546.59 1054.45 2556.3 1044.25 2567.96 1036.69Z" fill="#E0E0E0"/>
<path d="M2441.74 1398.37L3488.46 794.036C3510.57 781.44 3528.56 787.096 3528.56 807.146C3526.92 819.468 3522.44 831.243 3515.49 841.545C3508.53 851.848 3499.28 860.398 3488.46 866.525L2440.97 1471.11C2418.87 1483.97 2401.13 1478.05 2401.39 1458C2403.13 1445.65 2407.67 1433.85 2414.67 1423.52C2421.66 1413.18 2430.92 1404.58 2441.74 1398.37Z" fill="#F0F0F0"/>
<path d="M2441.74 1542.83L3488.46 938.499C3510.57 925.647 3528.56 931.559 3528.56 951.609C3526.88 963.886 3522.39 975.61 3515.43 985.865C3508.48 996.12 3499.25 1004.63 3488.46 1010.73L2440.97 1615.58C2418.87 1628.17 2401.13 1622.26 2401.39 1602.21C2403.13 1589.89 2407.68 1578.13 2414.67 1567.84C2421.67 1557.54 2430.93 1548.99 2441.74 1542.83Z" fill="#F0F0F0"/>
<path d="M2441.74 1687.04L3488.46 1082.71C3510.57 1069.85 3528.56 1075.77 3528.56 1095.56C3526.92 1107.88 3522.44 1119.66 3515.49 1129.96C3508.53 1140.26 3499.28 1148.81 3488.46 1154.94L2440.97 1759.78C2418.87 1772.64 2401.13 1766.72 2401.39 1746.67C2403.13 1734.32 2407.67 1722.52 2414.67 1712.19C2421.66 1701.85 2430.92 1693.25 2441.74 1687.04Z" fill="#F0F0F0"/>
<path d="M3233.21 1620.46C3225.35 1624.86 3216.51 1627.25 3207.5 1627.4C3185.14 1627.4 3187.2 1604.78 3187.71 1589.1C3187.71 1581.9 3178.2 1571.11 3173.06 1580.36C3159.43 1606.07 3142.21 1627.4 3127.56 1651.31C3118.82 1665.96 3101.85 1698.86 3080.26 1694.23C3071.27 1692.18 3068.44 1682.67 3068.44 1670.59C3079.31 1650.63 3084.13 1627.94 3082.32 1605.29C3082.32 1598.61 3069.98 1590.39 3066.38 1599.38C3058.93 1618.65 3054.42 1638.93 3053.01 1659.53C3043.19 1677.61 3031.84 1694.81 3019.08 1710.94C3011.89 1720.71 3005.46 1731.25 2997.49 1740.5C2995.44 1742.56 2991.84 1748.22 2988.75 1748.73C2981.3 1748.73 2982.07 1745.65 2981.04 1740.76C2980.68 1733.39 2981.9 1726.02 2984.64 1719.17C2984.53 1718.57 2984.53 1717.96 2984.64 1717.37C2984.64 1710.43 2975.64 1699.89 2972.04 1708.63C2958.29 1746.5 2937.44 1781.4 2910.61 1811.45L2906.49 1814.79C2906.49 1810.68 2906.49 1806.57 2904.95 1802.45C2904.52 1792.78 2902.88 1783.19 2900.07 1773.92C2898.27 1769.29 2890.3 1762.35 2886.19 1768.52C2866.81 1803.19 2843.43 1835.45 2816.53 1864.66C2811.84 1868.35 2806.94 1871.79 2801.87 1874.94C2796.99 1872.12 2804.45 1846.67 2805.47 1842.81C2808.3 1831.5 2811.9 1820.45 2815.76 1809.39C2819.53 1800.48 2822.29 1791.17 2823.98 1781.63C2825.52 1772.89 2810.61 1759.78 2807.79 1771.35C2807.79 1775.98 2802.65 1787.55 2798.28 1801.68C2781.26 1836.32 2761.58 1869.58 2739.41 1901.16C2719.31 1933.82 2691.28 1960.88 2657.92 1979.82C2648.41 1984.96 2632.22 1992.16 2620.91 1984.96C2609.6 1977.76 2611.66 1964.65 2611.4 1955.14C2611.18 1930.64 2614.47 1906.23 2621.17 1882.65C2654.03 1865.29 2684.53 1843.78 2711.91 1818.65C2738.92 1796.95 2762.12 1770.88 2780.54 1741.53C2789.79 1724.57 2795.45 1697.06 2772.83 1687.55C2757.15 1680.87 2737.1 1691.66 2723.99 1699.12C2705.5 1709.46 2688.69 1722.55 2674.12 1737.93C2644.79 1770.66 2623.42 1809.72 2611.66 1852.07C2609.6 1858.49 2607.03 1867.23 2604.46 1877.77C2568.98 1895.93 2528.75 1902.66 2489.3 1897.05C2487.24 1897.05 2486.21 1901.68 2489.3 1901.93C2527.11 1910 2566.48 1906.32 2602.14 1891.39C2592.12 1935.09 2586.46 1994.22 2627.85 2004.24C2669.24 2014.27 2717.56 1964.4 2739.41 1935.09C2756.12 1912.87 2770.83 1889.22 2783.37 1864.4C2784.39 1862.57 2785.6 1860.85 2786.97 1859.26C2786.97 1879.57 2791.08 1894.22 2810.87 1890.88C2830.66 1887.54 2849.43 1859.01 2860.48 1843.58C2871.54 1828.16 2880.53 1813.76 2890.3 1798.6C2892.1 1816.85 2895.44 1837.67 2912.66 1834.07C2929.89 1830.47 2944.54 1800.14 2952.76 1787.8C2960.09 1777.38 2966.7 1766.47 2972.56 1755.16C2973.6 1757.34 2974.99 1759.33 2976.67 1761.07C2991.06 1776.75 3008.29 1761.07 3017.8 1747.7C3030.91 1730.22 3046.07 1711.71 3058.41 1692.18C3059.88 1696.4 3062.18 1700.29 3065.18 1703.6C3068.19 1706.92 3071.83 1709.59 3075.89 1711.46C3098.26 1722 3119.33 1703.49 3132.19 1685.75C3148 1664.42 3162.02 1641.81 3174.09 1618.15C3175.04 1622.58 3176.9 1626.77 3179.55 1630.44C3182.21 1634.11 3185.6 1637.19 3189.51 1639.48C3197.62 1643.5 3206.64 1645.3 3215.66 1644.72C3224.69 1644.13 3233.4 1641.17 3240.92 1636.14C3247.35 1631.77 3240.66 1616.86 3233.21 1620.46ZM2744.81 1708.12C2755.09 1702.72 2776.94 1693.98 2777.97 1711.46C2776.28 1722.8 2771.37 1733.41 2763.83 1742.05C2745.97 1765.82 2725.54 1787.54 2702.91 1806.82C2679.15 1828.65 2653.32 1848.1 2625.79 1864.92C2633.55 1832.08 2648.01 1801.19 2668.27 1774.21C2688.53 1747.23 2714.15 1724.72 2743.52 1708.12H2744.81Z" fill="#E0E0E0"/>
<path d="M7816.71 3798.47L11117.3 5703.74L11117 2191.89L7816.71 287.128V3798.47Z" fill="white"/>
<path d="M11181.8 5741.27L11117.3 5779.83L7751.94 3837.02L7816.71 3798.47L11181.8 5741.27Z" fill="#FAFAFA"/>
<path d="M7629.84 3907.46L11239.4 5992.41V2121.46L7629.84 37.5293V3907.46ZM7751.94 249.084L11117 2191.89V5779.83L7751.94 3837.02V249.084Z" fill="#F0F0F0"/>
<path d="M7751.94 3837.02L7816.71 3798.47V287.128L7751.94 249.084V3837.02Z" fill="#E0E0E0"/>
<path d="M7629.84 37.5297L7695.64 0L11304.9 2083.93L11239.4 2121.46L7629.84 37.5297Z" fill="#FAFAFA"/>
<path d="M11304.9 2083.93L11239.4 2121.46V5991.38L11304.9 5953.85V2083.93Z" fill="#E0E0E0"/>
<path d="M11063.3 2900.33V2976.41L7751.94 1062.14L7816.71 1023.33L11063.3 2900.33Z" fill="#FAFAFA"/>
<path d="M9538.71 1280.89L9472.91 1243.11V4831.05L9538.71 4793.52V1280.89Z" fill="#E0E0E0"/>
<path d="M9350.8 1172.93L9472.9 1243.11V4831.05L9350.8 4760.36V1172.93Z" fill="#F0F0F0"/>
<path d="M7751.94 1062.14V1202.75L11118.3 3153.78V3012.91L7751.94 1062.14Z" fill="#F0F0F0"/>
<path d="M9472.91 2059.25L9538.71 2018.89L11117.3 2931.43V3012.91L9472.91 2059.25Z" fill="#FAFAFA"/>
<path d="M6807.78 6891.84V5819.42L5414.81 5015.1V6087.52L6807.78 6891.84Z" fill="#F0F0F0"/>
<path d="M6807.78 5819.42L8734.91 4708.43V5780.6L6807.78 6891.84V5819.42Z" fill="#E6E6E6"/>
<path d="M6807.78 5819.42L5373.43 4990.93L7341.68 3855.79L8776.04 4684.27L6807.78 5819.42Z" fill="#FAFAFA"/>
<path d="M6807.78 5819.42V6087.52L5373.43 5259.3V4990.93L6807.78 5819.42Z" fill="#F0F0F0"/>
<path d="M8776.03 4684.27L6807.78 5819.42V6087.52L8776.03 4952.63V4684.27Z" fill="#E6E6E6"/>
<path opacity="0.1" d="M5414.81 5283.2V5342.07L6807.78 6146.64V6087.52L5414.81 5283.2ZM8734.91 4976.54L6807.01 6087.52V6146.64L8734.91 5035.66V4976.54Z" fill="black"/>
<path d="M6349.2 5982.39L5873.4 5707.6C5852.83 5695.77 5836.12 5705.54 5836.12 5729.19V6010.41C5836.84 6023.29 5840.59 6035.83 5847.06 6047C5853.54 6058.17 5862.56 6067.65 5873.4 6074.67L6349.2 6349.46C6369.76 6361.28 6386.22 6351.77 6386.22 6328.12V6046.65C6385.55 6033.78 6381.85 6021.25 6375.42 6010.08C6368.98 5998.91 6360 5989.42 6349.2 5982.39Z" fill="#E0E0E0"/>
<path opacity="0.1" d="M6349.2 5982.39L5873.4 5707.6C5852.83 5695.77 5836.12 5705.54 5836.12 5729.19V6010.41C5836.84 6023.29 5840.59 6035.83 5847.06 6047C5853.54 6058.17 5862.56 6067.65 5873.4 6074.67L6349.2 6349.46C6369.76 6361.28 6386.22 6351.77 6386.22 6328.12V6046.65C6385.55 6033.78 6381.85 6021.25 6375.42 6010.08C6368.98 5998.91 6360 5989.42 6349.2 5982.39Z" fill="black"/>
<path d="M6318.61 6014.26L5903.73 5774.69C5890.1 5766.98 5878.02 5773.4 5878.02 5789.08V6000.12C5878.59 6008.77 5881.21 6017.16 5885.69 6024.58C5890.16 6032.01 5896.35 6038.25 5903.73 6042.79L6318.61 6282.37C6332.24 6290.34 6344.32 6283.91 6344.32 6268.23V6057.19C6343.71 6048.52 6341.07 6040.11 6336.6 6032.65C6332.13 6025.19 6325.97 6018.89 6318.61 6014.26Z" fill="#F5F5F5"/>
<g opacity="0.2">
<path d="M6307.04 6069.53C6308.13 6069.51 6309.2 6069.22 6310.14 6068.68C6311.08 6068.14 6311.88 6067.37 6312.44 6066.44C6313.19 6065.04 6313.37 6063.4 6312.94 6061.86C6312.51 6060.33 6311.5 6059.02 6310.13 6058.22L5918.38 5832.01C5916.98 5831.26 5915.34 5831.08 5913.8 5831.51C5912.27 5831.94 5910.96 5832.95 5910.15 5834.32C5909.74 5835 5909.46 5835.74 5909.34 5836.53C5909.22 5837.31 5909.25 5838.1 5909.45 5838.87C5909.64 5839.64 5909.98 5840.36 5910.46 5840.99C5910.93 5841.62 5911.53 5842.15 5912.21 5842.55L6303.96 6068.76L6307.04 6069.53Z" fill="black"/>
<path d="M6307.04 6120.94C6308.1 6120.93 6309.15 6120.67 6310.08 6120.18C6311.02 6119.68 6311.83 6118.98 6312.44 6118.11C6313.19 6116.71 6313.37 6115.07 6312.94 6113.53C6312.51 6112 6311.5 6110.69 6310.13 6109.89L5918.38 5883.68C5917.02 5882.86 5915.38 5882.62 5913.84 5883C5912.3 5883.39 5910.97 5884.37 5910.15 5885.74C5909.34 5887.1 5909.09 5888.73 5909.48 5890.27C5909.86 5891.82 5910.85 5893.14 5912.21 5893.96L6303.96 6120.17L6307.04 6120.94Z" fill="black"/>
<path d="M6307.04 6173.63C6308.13 6173.62 6309.2 6173.33 6310.14 6172.79C6311.08 6172.25 6311.88 6171.48 6312.44 6170.55C6313.19 6169.14 6313.37 6167.5 6312.94 6165.97C6312.51 6164.44 6311.5 6163.13 6310.13 6162.32L5918.38 5936.12C5916.98 5935.37 5915.34 5935.19 5913.8 5935.62C5912.27 5936.05 5910.96 5937.06 5910.15 5938.43C5909.74 5939.1 5909.46 5939.85 5909.34 5940.63C5909.22 5941.41 5909.25 5942.21 5909.45 5942.98C5909.64 5943.74 5909.98 5944.47 5910.46 5945.1C5910.93 5945.73 5911.53 5946.26 5912.21 5946.66L6303.96 6172.86C6304.91 6173.35 6305.97 6173.62 6307.04 6173.63Z" fill="black"/>
<path d="M6307.04 6225.3C6308.1 6225.29 6309.15 6225.03 6310.08 6224.54C6311.02 6224.05 6311.83 6223.34 6312.44 6222.47C6313.19 6221.07 6313.37 6219.43 6312.94 6217.9C6312.51 6216.36 6311.5 6215.06 6310.13 6214.25L5918.38 5988.04C5917.02 5987.22 5915.38 5986.98 5913.84 5987.37C5912.3 5987.75 5910.97 5988.74 5910.15 5990.1C5909.34 5991.46 5909.09 5993.1 5909.48 5994.64C5909.86 5996.18 5910.85 5997.51 5912.21 5998.32L6303.96 6224.53C6304.91 6225.02 6305.97 6225.29 6307.04 6225.3Z" fill="black"/>
</g>
<path opacity="0.1" d="M8661.65 4618.21L6727.58 5733.56L5407.62 4971.14L7341.68 3855.79L8661.65 4618.21Z" fill="black"/>
<path d="M6715.76 5648.99V4576.57L5322.79 3772.25V4844.67L6715.76 5648.99Z" fill="#F0F0F0"/>
<path d="M6715.76 4576.57L8642.88 3465.33V4537.75L6715.76 5648.99V4576.57Z" fill="#E6E6E6"/>
<path d="M6715.76 4576.57L5281.4 3748.09L7249.66 2612.94L8684.01 3441.42L6715.76 4576.57Z" fill="#FAFAFA"/>
<path d="M6715.76 4576.57V4844.67L5281.4 4016.45V3748.08L6715.76 4576.57Z" fill="#F0F0F0"/>
<path d="M8684.01 3441.42L6715.76 4576.57V4844.67L8684.01 3709.78V3441.42Z" fill="#E6E6E6"/>
<path opacity="0.1" d="M5322.79 4040.35V4099.22L6715.76 4903.54V4844.67L5322.79 4040.35ZM8642.88 3733.69L6714.99 4844.67V4903.54L8642.88 3792.56V3733.69Z" fill="black"/>
<path d="M6257.18 4739.54L5781.11 4464.75C5760.55 4452.92 5743.84 4462.43 5743.84 4486.34V4767.56C5744.56 4780.45 5748.31 4792.98 5754.78 4804.15C5761.26 4815.32 5770.28 4824.8 5781.11 4831.82L6256.92 5106.61C6277.48 5118.43 6293.93 5108.92 6293.93 5085.27V4802.52C6293.1 4789.89 6289.35 4777.63 6282.97 4766.7C6276.59 4755.77 6267.76 4746.47 6257.18 4739.54Z" fill="#E0E0E0"/>
<path opacity="0.1" d="M6257.18 4739.54L5781.11 4464.75C5760.55 4452.92 5743.84 4462.43 5743.84 4486.34V4767.56C5744.56 4780.45 5748.31 4792.98 5754.78 4804.15C5761.26 4815.32 5770.28 4824.8 5781.11 4831.82L6256.92 5106.61C6277.48 5118.43 6293.93 5108.92 6293.93 5085.27V4802.52C6293.1 4789.89 6289.35 4777.63 6282.97 4766.7C6276.59 4755.77 6267.76 4746.47 6257.18 4739.54Z" fill="black"/>
<path d="M6226.59 4771.41L5811.7 4531.84C5798.08 4524.13 5786 4530.3 5786 4546.23V4757.02C5786.52 4765.71 5789.13 4774.15 5793.61 4781.62C5798.08 4789.09 5804.29 4795.38 5811.7 4799.94L6226.59 5039.52C6240.47 5047.49 6252.29 5041.06 6252.29 5025.12V4814.34C6251.77 4805.65 6249.16 4797.21 6244.69 4789.73C6240.21 4782.26 6234 4775.98 6226.59 4771.41Z" fill="#F5F5F5"/>
<g opacity="0.2">
<path d="M6215.02 4827.19C6216.11 4827.18 6217.17 4826.89 6218.12 4826.35C6219.06 4825.81 6219.85 4825.04 6220.42 4824.11C6221.17 4822.7 6221.35 4821.06 6220.92 4819.53C6220.48 4818 6219.48 4816.69 6218.1 4815.88L5826.36 4589.68C5825 4589.25 5823.54 4589.3 5822.22 4589.82C5820.9 4590.34 5819.8 4591.3 5819.11 4592.54C5818.41 4593.77 5818.17 4595.22 5818.41 4596.61C5818.65 4598.01 5819.37 4599.28 5820.44 4600.21L6212.19 4826.42C6213.04 4826.95 6214.02 4827.22 6215.02 4827.19Z" fill="black"/>
<path d="M6215.02 4878.86C6216.08 4878.85 6217.12 4878.59 6218.06 4878.1C6219 4877.61 6219.81 4876.9 6220.42 4876.03C6221.17 4874.63 6221.35 4872.99 6220.92 4871.45C6220.48 4869.92 6219.48 4868.61 6218.1 4867.81L5826.36 4641.6C5825.68 4641.21 5824.94 4640.96 5824.16 4640.86C5823.39 4640.76 5822.61 4640.81 5821.86 4641.02C5821.1 4641.22 5820.4 4641.57 5819.78 4642.04C5819.16 4642.52 5818.65 4643.11 5818.26 4643.79C5817.87 4644.46 5817.62 4645.21 5817.52 4645.98C5817.42 4646.75 5817.47 4647.53 5817.67 4648.29C5817.88 4649.04 5818.23 4649.74 5818.7 4650.36C5819.18 4650.98 5819.77 4651.49 5820.44 4651.88L6212.19 4878.09C6213.04 4878.62 6214.02 4878.88 6215.02 4878.86Z" fill="black"/>
<path d="M6215.02 4930.78C6216.11 4930.77 6217.17 4930.48 6218.12 4929.94C6219.06 4929.4 6219.85 4928.63 6220.42 4927.7C6221.17 4926.29 6221.35 4924.65 6220.92 4923.12C6220.48 4921.59 6219.48 4920.28 6218.1 4919.47L5826.36 4693.27C5825 4692.84 5823.54 4692.89 5822.22 4693.41C5820.9 4693.93 5819.8 4694.89 5819.11 4696.13C5818.41 4697.37 5818.17 4698.81 5818.41 4700.21C5818.65 4701.6 5819.37 4702.88 5820.44 4703.81L6212.19 4930.01C6213.04 4930.54 6214.02 4930.81 6215.02 4930.78Z" fill="black"/>
<path d="M6215.02 4982.45C6216.08 4982.44 6217.12 4982.18 6218.06 4981.69C6219 4981.2 6219.81 4980.49 6220.42 4979.62C6221.18 4978.18 6221.37 4976.5 6220.94 4974.93C6220.51 4973.35 6219.5 4972 6218.1 4971.14L5826.36 4745.19C5825.68 4744.8 5824.94 4744.55 5824.16 4744.45C5823.39 4744.35 5822.61 4744.41 5821.86 4744.61C5821.1 4744.81 5820.4 4745.16 5819.78 4745.64C5819.16 4746.11 5818.65 4746.7 5818.26 4747.38C5817.87 4748.05 5817.62 4748.8 5817.52 4749.57C5817.42 4750.34 5817.47 4751.13 5817.67 4751.88C5817.88 4752.63 5818.23 4753.34 5818.7 4753.95C5819.18 4754.57 5819.77 4755.09 5820.44 4755.47L6212.19 4981.68C6213.04 4982.21 6214.02 4982.48 6215.02 4982.45Z" fill="black"/>
</g>
<path opacity="0.1" d="M5484.22 3631.13L6793.13 4378.89C6797.63 4381.57 6802.8 4382.91 6808.04 4382.75C6813.39 4383.01 6818.71 4381.86 6823.46 4379.41L8447.78 3441.68C8456.26 3436.79 8456.78 3428.57 8447.78 3423.43L7136.81 2675.66L5484.22 3631.13Z" fill="black"/>
<path d="M8351.64 3421.88C8351.05 3426.48 8349.43 3430.88 8346.89 3434.75C8344.35 3438.63 8340.96 3441.87 8336.99 3444.25L6820.38 4318.23C6816.24 4320.5 6811.6 4321.69 6806.88 4321.69C6802.16 4321.69 6797.52 4320.5 6793.39 4318.23L5610.95 3642.44L5612.49 3613.9L7156.35 2722.44L8340.07 3398.49C8343.72 3401.19 8346.68 3404.72 8348.69 3408.79C8350.7 3412.86 8351.71 3417.35 8351.64 3421.88Z" fill="#E6E6E6"/>
<path opacity="0.1" d="M6807.53 4292.78L6806.24 4321.31C6810.96 4321.39 6815.63 4320.33 6819.86 4318.23L8336.47 3444.25C8340.47 3441.85 8343.9 3438.6 8346.52 3434.74C8349.14 3430.88 8350.89 3426.49 8351.64 3421.88C8351.42 3417.33 8350.17 3412.88 8347.99 3408.88C8345.8 3404.87 8342.75 3401.41 8339.05 3398.75C8340.72 3399.42 8342.15 3400.57 8343.16 3402.06C8344.16 3403.55 8344.7 3405.31 8344.7 3407.1C8344.7 3408.9 8344.16 3410.66 8343.16 3412.15C8342.15 3413.64 8340.72 3414.79 8339.05 3415.46L6822.43 4289.44C6817.88 4291.94 6812.71 4293.1 6807.53 4292.78Z" fill="black"/>
<path opacity="0.25" d="M5610.95 3613.39L6793.39 4289.18C6797.43 4291.58 6802.05 4292.82 6806.75 4292.78C6811.57 4292.99 6816.36 4291.92 6820.64 4289.69L8337.25 3415.72C8338.92 3415.05 8340.35 3413.9 8341.36 3412.41C8342.36 3410.92 8342.9 3409.16 8342.9 3407.36C8342.9 3405.56 8342.36 3403.81 8341.36 3402.32C8340.35 3400.83 8338.92 3399.67 8337.25 3399.01L7153.26 2723.22L5610.95 3613.39Z" fill="black"/>
<path opacity="0.15" d="M5610.95 3613.39L5609.4 3641.92L6791.85 4317.71C6795.96 4320.16 6800.68 4321.4 6805.47 4321.31L6806.75 4292.78C6802.05 4292.82 6797.43 4291.58 6793.39 4289.18L5610.95 3613.39Z" fill="black"/>
<path d="M5628.68 3625.21L7173.05 2734.01L7192.33 2356.14L5647.96 3251.46L5628.68 3625.21Z" fill="#E6E6E6"/>
<path opacity="0.3" d="M5628.68 3625.21L7173.05 2734.01L7192.33 2356.14L5647.96 3251.46L5628.68 3625.21Z" fill="black"/>
<path d="M8344.44 3216.24C8349.3 3219.89 8353.23 3224.63 8355.91 3230.08C8358.59 3235.53 8359.95 3241.53 8359.87 3247.6L8356.01 3324.72C8355.39 3330.87 8353.41 3336.81 8350.21 3342.1C8347.01 3347.39 8342.67 3351.9 8337.5 3355.31L6828.09 4226.46C6822.87 4229.25 6817.04 4230.71 6811.12 4230.71C6805.21 4230.71 6799.38 4229.25 6794.16 4226.46L5791.65 3615.19L5797.82 3497.2L7341.68 2606L8344.44 3216.24Z" fill="#EBEBEB"/>
<path d="M7342.97 2605.74L8345.47 3217.27C8354.73 3223.18 8354.21 3232.44 8345.47 3238.09L6835.03 4108.99C6829.81 4111.78 6823.98 4113.24 6818.07 4113.24C6812.15 4113.24 6806.32 4111.78 6801.1 4108.99L5799.11 3496.94L7342.97 2605.74Z" fill="#FAFAFA"/>
<path d="M5929.95 3509.03C5926.34 3510.95 5922.43 3512.26 5918.38 3512.88C5912.34 3514.7 5905.91 3514.7 5899.87 3512.88C5897.89 3512.65 5896.01 3511.85 5894.47 3510.57C5885.22 3505.17 5887.02 3495.14 5898.07 3488.98C5903.06 3486.25 5908.59 3484.67 5914.27 3484.35C5920.91 3483.42 5927.68 3484.68 5933.55 3487.95C5933.55 3487.95 5935.09 3487.95 5935.35 3489.49C5942.29 3494.63 5940.23 3503.11 5929.95 3509.03Z" fill="#E0E0E0"/>
<path d="M6816.78 4112.59L6810.87 4230.83C6816.84 4231.05 6822.78 4229.72 6828.09 4226.97L8337.5 3356.08C8342.65 3352.6 8346.97 3348.03 8350.17 3342.7C8353.36 3337.37 8355.36 3331.41 8356.01 3325.23L8359.87 3248.12C8359.92 3242.91 8358.92 3237.75 8356.93 3232.93C8354.94 3228.12 8352.01 3223.75 8348.3 3220.1C8353.18 3225.5 8351.64 3232.69 8343.67 3237.32L6835.03 4108.73C6829.49 4111.87 6823.12 4113.21 6816.78 4112.59Z" fill="#E6E6E6"/>
<path d="M5757.72 3342.2C5768.61 3336.22 5781.02 3333.57 5793.4 3334.58C5805.78 3335.58 5817.6 3340.2 5827.38 3347.85C5868.26 3373.56 5901.67 3434.74 5915.3 3499.77L5891.9 3502.86C5879.31 3445.28 5850 3391.55 5814.79 3368.67C5806.43 3362.67 5796.53 3359.19 5786.26 3358.65C5779.93 3358.34 5773.65 3359.95 5768.26 3363.28C5749.24 3374.59 5737.42 3405.69 5736.39 3446.56C5734.59 3523.68 5772.37 3614.16 5820.44 3645.52C5830.38 3652.8 5842.61 3656.26 5854.89 3655.29L5879.31 3670.97H5877.77C5868.77 3676.38 5858.44 3679.14 5847.95 3678.94C5833.66 3678.18 5819.87 3673.46 5808.11 3665.31C5753.1 3629.58 5711.45 3533.19 5713.51 3445.79C5714.79 3396.18 5729.7 3358.14 5757.72 3342.2Z" fill="#E0E0E0"/>
<g opacity="0.35">
<path d="M5757.72 3342.2C5768.61 3336.22 5781.02 3333.57 5793.4 3334.58C5805.78 3335.58 5817.6 3340.2 5827.38 3347.85C5868.26 3373.56 5901.67 3434.74 5915.3 3499.77L5891.9 3502.86C5879.31 3445.28 5850 3391.55 5814.79 3368.67C5806.43 3362.67 5796.53 3359.19 5786.26 3358.65C5779.93 3358.34 5773.65 3359.95 5768.26 3363.28C5749.24 3374.59 5737.42 3405.69 5736.39 3446.56C5734.59 3523.68 5772.37 3614.16 5820.44 3645.52C5830.38 3652.8 5842.61 3656.26 5854.89 3655.29L5879.31 3670.97H5877.77C5868.77 3676.38 5858.44 3679.14 5847.95 3678.94C5833.66 3678.18 5819.87 3673.46 5808.11 3665.31C5753.1 3629.58 5711.45 3533.19 5713.51 3445.79C5714.79 3396.18 5729.7 3358.14 5757.72 3342.2Z" fill="black"/>
</g>
<path d="M8363.21 3180.77C8362.57 3185.38 8360.92 3189.8 8358.39 3193.71C8355.86 3197.61 8352.5 3200.92 8348.56 3203.39L6831.95 4077.37C6827.79 4079.58 6823.16 4080.73 6818.45 4080.73C6813.75 4080.73 6809.11 4079.58 6804.96 4077.37L5628.68 3265.34L5629.97 3236.55L7173.83 2345.35L8351.64 3157.89C8355.22 3160.54 8358.13 3163.99 8360.14 3167.96C8362.15 3171.93 8363.2 3176.32 8363.21 3180.77Z" fill="#E6E6E6"/>
<path opacity="0.1" d="M6819.86 4052.69L6818.32 4081.23C6823.14 4081.43 6827.93 4080.37 6832.2 4078.14L8348.81 3204.16C8352.76 3201.69 8356.12 3198.38 8358.65 3194.48C8361.18 3190.57 8362.82 3186.15 8363.47 3181.54C8363.35 3177.03 8362.17 3172.6 8360.03 3168.63C8357.88 3164.66 8354.83 3161.24 8351.13 3158.66C8358.32 3163.29 8357.81 3170.74 8351.13 3175.11L6834.52 4049.09C6830.17 4051.9 6825.01 4053.16 6819.86 4052.69Z" fill="black"/>
<path d="M5629.97 3237.06L6806.24 4049.09C6810.36 4051.54 6815.08 4052.78 6819.86 4052.69C6824.7 4053.15 6829.56 4052.07 6833.75 4049.61L8350.36 3175.63C8358.07 3171.26 8358.58 3163.8 8350.36 3159.18L7173.31 2347.15L5629.97 3237.06Z" fill="#E6E6E6"/>
<path opacity="0.15" d="M5629.97 3237.06L5628.68 3265.85L6804.96 4077.88C6808.98 4080.3 6813.63 4081.46 6818.32 4081.23L6819.86 4052.69C6815.08 4052.79 6810.36 4051.54 6806.24 4049.09L5629.97 3237.06Z" fill="black"/>
<path d="M5610.95 3613.39L5629.97 3237.83L5647.96 3251.46L5628.68 3625.21L5610.95 3613.39Z" fill="#E6E6E6"/>
<path opacity="0.15" d="M5610.95 3613.39L5629.97 3237.83L5647.96 3251.46L5628.68 3625.21L5610.95 3613.39Z" fill="black"/>
<path d="M5674.18 3232.18C5670.69 3230.29 5667.76 3227.51 5665.69 3224.12C5663.61 3220.74 5662.46 3216.87 5662.36 3212.9C5662.36 3206.22 5663.9 3183.6 5663.9 3183.6L7156.09 2339.95C7165.59 2334.75 7176.24 2332.03 7187.06 2332.03C7197.89 2332.03 7208.54 2334.75 7218.04 2339.95L8380.17 3097.48L6835.03 3989.46L5674.18 3232.18Z" fill="#E6E6E6"/>
<path opacity="0.15" d="M5674.18 3232.18C5670.69 3230.29 5667.76 3227.51 5665.69 3224.12C5663.61 3220.74 5662.46 3216.87 5662.36 3212.9C5662.36 3206.22 5663.9 3183.6 5663.9 3183.6L7156.09 2339.95C7165.59 2334.75 7176.24 2332.03 7187.06 2332.03C7197.89 2332.03 7208.54 2334.75 7218.04 2339.95L8380.17 3097.48L6835.03 3989.46L5674.18 3232.18Z" fill="black"/>
<path d="M5675.72 3203.65C5659.01 3192.85 5660.04 3175.89 5677.52 3165.6L7157.38 2311.16C7166.94 2306.03 7177.62 2303.35 7188.48 2303.35C7199.33 2303.35 7210.02 2306.03 7219.58 2311.16L8381.72 3068.69L6837.34 3961.7L5675.72 3203.65Z" fill="#E6E6E6"/>
<path opacity="0.25" d="M5675.72 3203.65C5659.01 3192.85 5660.04 3175.89 5677.52 3165.6L7157.38 2311.16C7166.94 2306.03 7177.62 2303.35 7188.48 2303.35C7199.33 2303.35 7210.02 2306.03 7219.58 2311.16L8381.72 3068.69L6837.34 3961.7L5675.72 3203.65Z" fill="black"/>
<path d="M8115.41 2872.56L7254.8 2311.93C7245.3 2306.73 7234.65 2304.01 7223.82 2304.01C7213 2304.01 7202.35 2306.73 7192.85 2311.93L5818.9 3105.2L5707.08 3031.68L5699.63 3176.91L5701.69 3178.46C5699.58 3183.13 5699.4 3188.45 5701.18 3193.26C5702.96 3198.07 5706.55 3201.98 5711.2 3204.16L6696.48 3846.79L8240.85 2955.85L8248.82 2796.99L8115.41 2872.56Z" fill="#EBEBEB"/>
<path d="M5719.16 3044.53C5702.46 3033.74 5703.48 3016.77 5721.22 3006.49L7200.82 2152.04C7210.49 2147.11 7221.23 2144.65 7232.08 2144.87C7242.94 2145.09 7253.56 2148 7263.02 2153.33L8248.82 2795.96L6704.45 3686.65L5719.16 3044.53Z" fill="#FAFAFA"/>
<path d="M6704.45 3686.65L6696.48 3845.25L8240.85 2954.31L8248.82 2795.45L6704.45 3686.65Z" fill="#E6E6E6"/>
<path d="M6724.24 3624.96C6720.49 3626.78 6716.52 3628.07 6712.42 3628.81C6706.47 3630.62 6700.11 3630.62 6694.17 3628.81C6692.11 3628.54 6690.17 3627.74 6688.51 3626.5C6679.51 3621.1 6681.06 3611.08 6692.11 3604.91C6697.2 3602.21 6702.81 3600.63 6708.56 3600.28C6715.21 3599.37 6721.97 3600.63 6727.84 3603.88C6727.84 3603.88 6729.13 3603.88 6729.64 3605.42C6736.32 3610.56 6734.52 3619.04 6724.24 3624.96Z" fill="#E0E0E0"/>
<path d="M6796.99 3592.57C6784.42 3583.82 6769.62 3578.83 6754.32 3578.17C6745.55 3577.86 6736.83 3579.63 6728.87 3583.34C6720.92 3587.05 6713.96 3592.59 6708.56 3599.51C6701.71 3607.83 6696.79 3617.58 6694.17 3628.04C6700.11 3629.85 6706.47 3629.85 6712.42 3628.04C6715.33 3618.31 6721.39 3609.81 6729.64 3603.88C6738.43 3598.36 6748.75 3595.78 6759.1 3596.52C6769.45 3597.26 6779.3 3601.28 6787.22 3607.99C6809.1 3624.78 6826.77 3646.44 6838.82 3671.25C6850.87 3696.06 6856.96 3723.33 6856.62 3750.91C6854.05 3802.32 6819.09 3823.4 6779.51 3797.44L6761.26 3807.72C6763.83 3809.78 6766.65 3811.32 6768.97 3812.86C6781.41 3821.71 6796.13 3826.79 6811.38 3827.51C6820.18 3827.68 6828.9 3825.8 6836.85 3822C6844.79 3818.21 6851.74 3812.62 6857.14 3805.66C6868.93 3789.92 6875.41 3770.84 6875.64 3751.17C6876.07 3720.39 6869.16 3689.94 6855.48 3662.36C6841.8 3634.78 6821.75 3610.86 6796.99 3592.57Z" fill="#E0E0E0"/>
<path opacity="0.35" d="M6796.99 3592.57C6784.42 3583.82 6769.62 3578.83 6754.32 3578.17C6745.55 3577.86 6736.83 3579.63 6728.87 3583.34C6720.92 3587.05 6713.96 3592.59 6708.56 3599.51C6701.71 3607.83 6696.79 3617.58 6694.17 3628.04C6700.11 3629.85 6706.47 3629.85 6712.42 3628.04C6715.33 3618.31 6721.39 3609.81 6729.64 3603.88C6738.43 3598.36 6748.75 3595.78 6759.1 3596.52C6769.45 3597.26 6779.3 3601.28 6787.22 3607.99C6809.1 3624.78 6826.77 3646.44 6838.82 3671.25C6850.87 3696.06 6856.96 3723.33 6856.62 3750.91C6854.05 3802.32 6819.09 3823.4 6779.51 3797.44L6761.26 3807.72C6763.83 3809.78 6766.65 3811.32 6768.97 3812.86C6781.41 3821.71 6796.13 3826.79 6811.38 3827.51C6820.18 3827.68 6828.9 3825.8 6836.85 3822C6844.79 3818.21 6851.74 3812.62 6857.14 3805.66C6868.93 3789.92 6875.41 3770.84 6875.64 3751.17C6876.07 3720.39 6869.16 3689.94 6855.48 3662.36C6841.8 3634.78 6821.75 3610.86 6796.99 3592.57Z" fill="black"/>
<path d="M6837.6 3601.82L5675.21 2959.19V2979.75C5675.16 2985.32 5676.41 2990.83 5678.87 2995.83C5681.32 3000.82 5684.91 3005.18 5689.35 3008.54L6837.34 3629.33L6837.6 3601.82Z" fill="#E6E6E6"/>
<path opacity="0.15" d="M6837.6 3601.82L5675.21 2959.19V2979.75C5675.16 2985.32 5676.41 2990.83 5678.87 2995.83C5681.32 3000.82 5684.91 3005.18 5689.35 3008.54L6837.34 3629.33L6837.6 3601.82Z" fill="black"/>
<path d="M5687.03 2978.73C5683.33 2976.98 5680.24 2974.18 5678.14 2970.67C5676.04 2967.15 5675.04 2963.1 5675.26 2959.01C5675.48 2954.93 5676.92 2951 5679.38 2947.74C5681.84 2944.47 5685.22 2942.02 5689.09 2940.68L7169.2 2085.21C7178.68 2079.97 7189.34 2077.22 7200.17 2077.22C7211.01 2077.22 7221.67 2079.97 7231.15 2085.21L8399.71 2718.59L6855.08 3612.1L5687.03 2978.73Z" fill="#E6E6E6"/>
<path d="M6835.8 3989.46L8380.17 3098.51L8399.45 2720.39L6855.08 3612.1L6835.8 3989.46Z" fill="#E6E6E6"/>
<path opacity="0.1" d="M6835.8 3989.46L8380.17 3098.51L8399.45 2720.39L6855.08 3612.1L6835.8 3989.46Z" fill="black"/>
<path d="M7121.39 3751.94C7112.77 3751.93 7104.29 3749.82 7096.67 3745.79C7089.06 3741.76 7082.54 3735.93 7077.69 3728.81C7067.61 3712.23 7063.1 3692.86 7064.84 3673.54C7067.77 3642.06 7077.75 3611.65 7094.04 3584.55C7110.33 3557.45 7132.5 3534.36 7158.92 3516.99C7172.14 3508.81 7187.33 3504.37 7202.87 3504.14C7239.12 3504.14 7261.74 3536.27 7259.42 3582.54C7256.54 3614.04 7246.58 3644.47 7230.29 3671.58C7214 3698.68 7191.8 3721.76 7165.34 3739.09C7152.13 3747.27 7136.93 3751.72 7121.39 3751.94Z" fill="#E0E0E0"/>
<path d="M7082.83 3673.8C7080.26 3725.21 7113.42 3747.57 7157.38 3722.38C7180.91 3706.74 7200.67 3686.05 7215.21 3661.82C7229.75 3637.58 7238.71 3610.42 7241.43 3582.29C7244 3530.88 7210.84 3508.51 7166.89 3533.7C7143.4 3549.4 7123.68 3570.1 7109.15 3594.32C7094.61 3618.55 7085.63 3645.69 7082.83 3673.8Z" fill="#F5F5F5"/>
<path d="M7371.5 3489.23L7370.21 3517.77C7367.13 3574.83 7403.89 3598.74 7451.96 3570.98L8187.13 3146.58C8213.02 3129.34 8234.76 3106.56 8250.77 3079.89C8266.77 3053.21 8276.64 3023.31 8279.67 2992.35L8280.95 2963.82C8284.04 2906.49 8247.28 2882.59 8199.21 2910.35L7464.04 3335C7438.08 3352.17 7416.29 3374.94 7400.28 3401.62C7384.27 3428.31 7374.43 3458.25 7371.5 3489.23Z" fill="#F5F5F5"/>
<path d="M6818.06 3977.89L6837.09 3602.08L6855.08 3612.1L6835.8 3989.46L6818.06 3977.89Z" fill="#E6E6E6"/>
<path opacity="0.15" d="M6818.06 3977.89L6837.09 3602.08L6855.08 3612.1L6835.8 3989.46L6818.06 3977.89Z" fill="black"/>
<path d="M5377.54 8287.64C5384.74 8193.3 5309.94 8085.59 5143.37 7957.58C4836.19 7721.61 3719.81 6945.31 3286.16 6657.66C3286.03 6656.73 3285.61 6655.86 3284.96 6655.17C3284.32 6654.48 3283.48 6654.01 3282.56 6653.81C2950.45 6413.98 2876.42 4771.93 2696.48 3987.4C2694.68 3979.95 2682.34 3919.8 2657.15 3842.17C2657.15 3838.57 2654.58 3835.23 2653.55 3831.63C2649.96 3821.09 2646.1 3810.55 2642.24 3799.5C2640.19 3794.1 2638.39 3788.44 2636.59 3783.3C2605.33 3692.82 2556.79 3609.27 2493.67 3537.3C2471.79 3513.39 2446.7 3492.63 2419.12 3475.61C2381.59 3449.9 2290.6 3404.41 2270.55 3390.78C2044.6 3229.87 1471.63 3638.07 1067.03 3819.29C815.371 3932.39 597.133 4073 448.557 4355.76C367.222 4518.46 312.545 4693.16 286.614 4873.2C220.037 5274.72 233.404 6621.16 268.877 7212.38C309.748 8199.47 455.24 8212.83 654.456 8393.28C996.336 8704.06 2000.38 9339.49 2335.58 9503.24C2943 9800.13 3486.15 9460.31 3883.81 9301.96C4281.47 9143.62 5033.6 8775.01 5203.77 8670.9C5304.8 8608.95 5360.06 8542.37 5364.95 8468.6C5364.95 8438.78 5374.97 8318.74 5377.54 8287.64Z" fill="#263238"/>
<path d="M3895.89 9119.72C4293.29 8961.63 5045.94 8592.5 5216.11 8488.39C5446.17 8348.04 5438.98 8184.81 5143.62 7957.84C4732.34 7642.43 3048.13 6500.09 3048.13 6500.09C3048.13 6500.09 1089.13 7443.99 624.895 7856.3C554.72 7918.77 551.892 8050.63 576.312 8081.22C830.794 8399.2 1964.4 9133.08 2347.92 9320.73C2955.59 9616.86 3498.74 9278.06 3895.89 9119.72Z" fill="#455A64"/>
<path d="M2417.58 3473.3C2415.53 3471.86 2413.38 3470.57 2411.15 3469.44C2360.59 3438.08 2302.75 3420.37 2243.3 3418.03C2037.66 3401.32 1713.77 3545.01 1228.45 3858.62C1079.59 3950.64 940.194 4057.15 812.287 4176.59L804.832 4183.79C766.283 4220.6 730.699 4260.4 698.412 4302.81C693.014 4309.75 687.616 4316.69 682.475 4324.14C677.334 4331.6 676.306 4332.11 673.735 4336.22C667.052 4345.73 660.369 4355.5 654.199 4365.27C641.347 4385.06 628.494 4405.63 616.67 4426.7C615.127 4429.02 614.099 4431.07 612.814 4433.39L598.933 4459.09L448.043 4354.73C596.619 4071.97 824.625 3926.48 1059.57 3782.27C1464.43 3534.22 1915.3 3211.87 2202.43 3350.94C2222.99 3361.22 2379.79 3448.88 2417.58 3473.3Z" fill="#455A64"/>
<path d="M2696.48 3987.4C2670.78 3884.58 2579.52 3437.05 2244.58 3419.06C2038.94 3402.86 1715.05 3546.3 1229.74 3859.9C1003.79 4005.91 743.395 4192.79 612.813 4434.67C422.594 4735.17 392.776 5568.53 404.086 6370.02C415.396 7171.51 467.064 7941.39 575.54 8083.28C766.273 7548.61 3017.54 6495.98 3282.56 6655.09C2950.45 6413.98 2876.42 4771.93 2696.48 3987.4Z" fill="#37474F"/>
<path d="M1152.62 6355.88C1018.44 6887.98 1029.75 7394.89 1085.53 7622.64C1153.65 7901.29 1322.79 8242.65 1854.38 8555.48C2610.63 9000.44 3136.3 9295.54 3136.3 9295.54L5640.25 7663.25L3820.57 6604.2L1152.62 6355.88Z" fill="black"/>
<path opacity="0.1" d="M1152.62 6355.88C1018.44 6887.98 1029.75 7394.89 1085.53 7622.64C1153.65 7901.29 1322.79 8242.65 1854.38 8555.48C2610.63 9000.44 3136.3 9295.54 3136.3 9295.54L5640.25 7663.25L3820.57 6604.2L1152.62 6355.88Z" fill="black"/>
<path opacity="0.35" d="M1919.16 8048.83C1898.85 8026.73 1879.31 8004.62 1860.29 7982.77C2048.97 7932.65 2160.02 7698.21 2136.37 7433.71C2123 7282.05 2107.58 7110.08 2128.14 6947.11L2095.24 6942.99C2074.16 7109.31 2089.58 7283.33 2103.21 7436.79C2127.11 7703.61 2014.27 7919.28 1835.87 7954.24C1474.46 7521.36 1530.75 7101.08 1707.35 6543.28L1675.47 6533.25C1482.68 7144.78 1453.38 7593.59 1895.25 8071.46C2185.72 8385.57 2977.96 8814.34 3441.42 9099.67L3472.53 9079.62C3009.57 8796.09 2210.14 8363.72 1919.16 8048.83Z" fill="black"/>
<path opacity="0.35" d="M3940.62 7152.75C3839.85 7477.41 3630.1 7632.15 3630.1 7632.15C4022.36 7917.99 4344.19 8183.01 4568.6 8377.6L4843.13 8203.06L3878.92 7555.04C3991.77 7325.23 3940.62 7152.75 3940.62 7152.75Z" fill="black"/>
<path d="M4724.63 11416.7L486.086 8969.6L7176.4 5108.66L11414.9 7555.81L4724.63 11416.7Z" fill="black"/>
<path opacity="0.8" d="M4724.63 11416.7L486.086 8969.6L7176.4 5108.66L11414.9 7555.81L4724.63 11416.7Z" fill="white"/>
<path d="M486.086 8969.6V9275.49L4724.63 11722.6V11416.7L486.086 8969.6Z" fill="black"/>
<path opacity="0.5" d="M486.086 8969.6V9275.49L4724.63 11722.6V11416.7L486.086 8969.6Z" fill="white"/>
<path d="M4724.63 11722.6L11414.9 7861.7V7555.8L4724.63 11416.7V11722.6Z" fill="black"/>
<path opacity="0.65" d="M4724.63 11416.7L11414.9 7555.8V7861.7L4724.63 11722.6V11416.7Z" fill="white"/>
<path d="M4313.09 3759.65C3909.26 3551.44 3437.56 3614.42 2735.3 3875.33C1800.14 4223.12 1679.58 4638.77 1411.48 5346.44C1223.83 5841.52 1038.75 6644.3 1039.01 7020.11C1366.75 7312.63 1773.92 7322.14 2277.74 7260.45C3194.65 7148.63 3897.17 6702.39 3943.7 6496.75C3935.99 6326.84 4105.9 5924.81 4266.05 5530.49C4451.89 5073.45 4508.19 4955.2 4575.79 4619.75C4635.43 4324.91 4639.8 3927.76 4313.09 3759.65Z" fill="#F0F0F0"/>
<path d="M2239.19 4193.04C2567.44 4210.27 2748.41 4681.44 2904.18 5176.27C3082.58 5741.79 3454.79 6903.41 3454.79 6903.41L2729.64 7374.07C2729.64 7374.07 2581.32 7203.64 2362.31 6660.75C2172.1 6187.51 2088.04 5962.85 1955.91 5519.18C1828.93 5090.67 1650.54 4496.62 2239.19 4193.04Z" fill="#B16668"/>
<path d="M2976.16 6943.51L3384.87 6770.25C3368.16 6703.42 3355.05 6613.96 3330.63 6516.28L3297.47 6413.46C2951.22 6595.46 2719.36 6851.74 2700.6 7121.64L2976.16 6943.51Z" fill="#9A4A4D"/>
<path d="M5806.82 6153.33C5900.13 6126.34 5980.84 6098.32 6085.98 6063.1C6117.55 6053.47 6147.65 6039.55 6175.43 6021.72C6207.05 5998.07 6220.42 5946.66 6193.94 5932.78C6166.13 5923.98 6136.95 5920.32 6107.83 5921.98C6043.56 5922.48 5979.43 5928.15 5916.07 5938.95C5975.7 5920.69 6028.4 5903.21 6080.32 5881.88C6089.03 5879.4 6097.15 5875.22 6104.22 5869.57C6111.29 5863.91 6117.16 5856.91 6121.49 5848.97C6125.82 5841.02 6128.52 5832.29 6129.45 5823.29C6130.37 5814.29 6129.48 5805.19 6126.85 5796.54C6120.17 5765.69 6080.32 5752.58 5996.78 5758.24C5984.44 5732.53 5941.52 5699.89 5856.43 5708.88C5846.41 5684.72 5797.05 5665.18 5735.87 5670.84C5674.7 5676.49 5636.39 5683.95 5576.24 5692.95C5499.13 5704.26 5452.6 5718.65 5377.54 5736.13C5235.91 5768 5099.93 5814.53 4960.86 5855.66C4721.29 5926.35 4636.2 5958.48 4525.41 6006.29C4414.62 6054.1 3993.83 6244.32 3677.14 6371.31C3165.35 6576.95 2903.41 6685.94 2759.72 6976.67C2659.72 7178.45 2624.76 7330.88 2819.61 7451.7C3014.46 7572.51 3402.86 7523.16 3658.63 7348.88C4012.85 7105.71 4380.18 6814.47 4756.5 6569.75C4823.59 6526.31 4883.49 6497.52 4965.23 6502.66C5028.35 6510.28 5092.28 6507.93 5154.68 6495.72C5198.69 6485.19 5241.7 6470.83 5283.2 6452.79C5355.28 6416.73 5423.64 6373.68 5487.3 6324.27C5511.72 6306.27 5535.12 6286.48 5560.31 6269.26C5635.76 6217.7 5718.99 6178.56 5806.82 6153.33Z" fill="#B16668"/>
<path d="M5997.55 5758.24C5956.17 5768 5915.3 5777.77 5874.42 5788.31C5833.55 5798.85 5792.68 5809.13 5752.32 5820.7L5631 5856.69L5509.67 5893.19C5547.47 5873.85 5586.35 5856.69 5626.11 5841.78C5665.7 5826.36 5706.06 5813.25 5746.93 5801.42C5787.8 5789.6 5829.18 5780.34 5871.08 5773.15C5912.84 5765.22 5955.1 5760.24 5997.55 5758.24Z" fill="#9A4A4D"/>
<path d="M5858.23 5709.65C5816.33 5716.59 5775.2 5725.85 5734.07 5735.36L5610.95 5765.69L5487.56 5796.02C5446.43 5805.79 5405.05 5815.82 5363.4 5824.3C5402.73 5807.85 5442.83 5794.22 5483.45 5781.11C5524.06 5768 5564.93 5756.69 5606.06 5746.16C5647.19 5735.62 5688.83 5726.88 5730.99 5720.45C5772.99 5713.01 5815.58 5709.39 5858.23 5709.65Z" fill="#9A4A4D"/>
<path d="M4966.77 6501.38C5010.53 6505.36 5054.51 6506.13 5098.38 6503.69C5061.97 6499.59 5026.46 6489.6 4993.25 6474.13C4901.74 6431.2 4871.41 6324.52 4828.99 6380.56C4786.58 6436.6 4789.15 6483.38 4537.75 6670C4362.95 6798.53 3931.88 7154.8 3930.08 7156.35L4055.52 7064.83L4164.51 6985.15L4208.47 6953.02C4251.65 6921.31 4295.09 6889.78 4338.79 6858.42C4379.66 6828.86 4421.05 6799.3 4462.43 6770.25L4498.42 6744.55C4529.78 6722.7 4560.89 6700.85 4592.25 6679.51L4630.29 6653.81C4672.7 6625.02 4715.37 6596.49 4758.82 6568.72C4820.77 6528.62 4855.72 6512.43 4884.77 6508.83C4911.56 6502.16 4939.22 6499.65 4966.77 6501.38Z" fill="#9A4A4D"/>
<path d="M6081.1 5881.88C6097.75 5877.29 6111.98 5866.42 6120.8 5851.56C6129.61 5836.71 6132.34 5819.01 6128.39 5802.19C6126.75 5814.66 6121.56 5826.39 6113.45 5836.01C6105.34 5845.62 6094.65 5852.71 6082.64 5856.43C6039.97 5870.83 5926.09 5894.99 5837.67 5920.95C5787.02 5935.74 5739.04 5958.47 5695.52 5988.3C5716.85 5983.16 5870.57 5946.14 5916.84 5938.94C5976.47 5920.69 6029.17 5903.21 6081.1 5881.88Z" fill="#9A4A4D"/>
<path d="M2236.1 4112.33C1874.17 4292.27 1612.23 4533.12 1888.82 5486.02C2165.41 6438.91 2577.47 7278.96 2680.55 7422.65C2783.62 7566.35 3045.3 7589.99 3256.09 7552.72C3466.87 7515.45 3691.79 7393.86 4061.69 7099.28C4061.69 7099.28 3621.1 6688 3871.73 6292.65L3359.42 6480.81C3359.42 6480.81 3097.74 5658.24 2948.14 5201.2C2832.21 4848.78 2700.6 4215.66 2236.1 4112.33Z" fill="#E0E0E0"/>
<path opacity="0.1" d="M3359.42 6480.81C3236.55 6526.05 2971.79 6690.57 2852.77 6914.97C2900.58 6663.83 3099.54 6477.98 3329.6 6387.76L3359.42 6480.81Z" fill="black"/>
<path d="M3950.9 6257.95L3893.83 6282.11C3842.94 6414.77 3831.77 6559.38 3861.7 6698.28C3896.84 6834.46 3967.86 6958.74 4067.34 7058.15L4142.4 7006.74C4145.85 7024.63 4145.46 7043.05 4141.25 7060.78C4137.04 7078.5 4129.11 7095.13 4117.98 7109.56C4079.43 7162.77 3973.52 7198.76 3894.6 7268.68C3815.69 7338.6 3695.65 7277.16 3602.85 7155.57C3468.15 6978.72 3422.91 6615.76 3525.73 6440.45C3595.14 6322.98 3643.98 6360 3740.12 6305.24C3836.25 6250.49 3922.11 6195.48 3950.9 6257.95Z" fill="#FAFAFA"/>
<path d="M6483.9 5396.56L5916.58 5938.94C5916.58 5938.94 5709.4 5880.34 5186.81 5541.28C4950.83 5388.34 4647 5183.47 4454.98 5058.54C4507.36 4915.95 4547.86 4769.27 4576.05 4620.01C4635.43 4324.91 4639.8 3927.76 4313.09 3759.39C4173.53 3687.72 4020.42 3646.29 3863.76 3637.81C4295.35 3628.55 4612.29 3801.04 4986.56 4139.32C5378.05 4493.02 6483.9 5396.56 6483.9 5396.56Z" fill="#E0E0E0"/>
<path d="M4837.22 3632.67C4837.22 3632.67 4811.51 3622.9 4798.66 3570.98C4785.81 3519.05 4787.86 3482.03 4775.01 3424.2C4762.16 3366.36 4727.71 3269.97 4672.19 3265.6C4616.66 3261.23 4600.21 3386.41 4607.93 3486.92C4615.64 3587.43 4619.75 3646.55 4562.43 3766.08C4505.1 3885.61 4461.15 4035.73 4543.41 4156.28L4837.22 3632.67Z" fill="#9A4A4D"/>
<path d="M5186.81 3401.06C5147.22 3305.95 5138.74 3182.31 5121 3105.2C5101.32 3029.67 5071.22 2957.26 5031.55 2890.04C4991.45 2815.5 4956.23 2716.28 4926.93 2710.11C4897.62 2703.94 4852.64 2738.12 4860.87 2799.3C4860.87 2799.3 4819.22 2757.66 4783.75 2713.7C4748.28 2669.75 4720 2613.2 4673.99 2607.03C4627.98 2600.86 4613.58 2672.83 4634.4 2719.87C4655.22 2766.91 4669.88 2793.65 4669.88 2793.65C4669.88 2793.65 4627.98 2817.55 4675.27 2901.35C4694.91 2935.06 4718.94 2966 4746.73 2993.38C4768.07 3059.18 4774.24 3092.09 4813.05 3144.01C4838.76 3205.45 4854.7 3258.14 4890.17 3307.24C4879.12 3355.05 4846.47 3413.4 4855.21 3493.35C4863.95 3573.29 4878.6 3590.77 4794.29 3695.9C4737.48 3766.59 4636.72 3850.13 4586.08 3946.02C4535.44 4041.9 4504.33 4138.81 4593.27 4246.51C4682.21 4354.22 4750.33 4432.1 4835.16 4546.49C4899.17 4632.86 4965.74 4749.05 5237.19 5161.62C5447.97 5482.16 5466.48 5523.03 5564.93 5636.91C5663.38 5750.78 5729.96 5849.49 5876.48 5913.5C6016.87 5972.18 6169.22 5996.59 6320.92 5984.7C6365.4 5983.75 6409.17 5973.5 6449.45 5954.62C6548.67 5901.41 6575.41 5771.35 6572.32 5658.76C6567.95 5495.79 6508.06 5353.12 6385.19 5201.46C6272.34 5062.4 6198.31 4991.71 6009.63 4827.45C5855.4 4693.78 5765.18 4596.1 5552.85 4397.14C5360.32 4215.41 5264.44 4101.02 5226.14 4003.6C5188.22 3897.41 5177.27 3783.46 5194.26 3672C5221.25 3543.21 5241.3 3545.53 5186.81 3401.06Z" fill="#B16668"/>
<path d="M4542.63 4156.28C4563.2 4215.41 4611.27 4256.79 4649.05 4306.15C4686.84 4355.5 4726.17 4403.31 4763.7 4452.67C4801.23 4502.02 4838.5 4551.37 4874.49 4601.76C4910.48 4652.14 4951.61 4726.43 4986.56 4777.58C4946.98 4730.03 4903.28 4657.54 4864.98 4608.7C4826.68 4559.86 4787.86 4510.76 4750.85 4461.92L4637.74 4314.63L4581.19 4240.85C4562.35 4215.8 4549.2 4186.94 4542.63 4156.28Z" fill="#9A4A4D"/>
<path d="M4860.87 2798.28C4869.09 2824.87 4879.67 2850.68 4892.48 2875.39C4904.82 2901.1 4918.19 2924.75 4932.58 2947.88L4934.9 2951.48V2956.88C4934.18 2971.63 4934.61 2986.41 4936.18 3001.09C4937.73 3015.99 4940.31 3030.76 4943.89 3045.3C4951.2 3074.38 4963.18 3102.07 4979.37 3127.3L4983.22 3133.73L4981.17 3139.38C4977.17 3150.08 4974.08 3161.08 4971.91 3172.29C4969.47 3183.83 4967.66 3195.5 4966.51 3207.25C4965.23 3219.11 4964.71 3231.05 4964.97 3242.98C4964.97 3255.06 4966.77 3267.14 4968.06 3279.22C4957.37 3256.58 4950.84 3232.2 4948.78 3207.25C4947.75 3194.59 4947.75 3181.86 4948.78 3169.2C4949.87 3156.3 4951.93 3143.49 4954.95 3130.9L4956.75 3142.98C4936.25 3116.22 4921.31 3085.63 4912.79 3053.01C4908.6 3036.85 4905.93 3020.32 4904.82 3003.66C4903.12 2986.54 4903.55 2969.27 4906.11 2952.25L4907.91 2961.25C4894.3 2935.73 4883.2 2908.96 4874.75 2881.3C4865.82 2854.52 4861.13 2826.51 4860.87 2798.28Z" fill="#9A4A4D"/>
<path d="M4669.1 2792.62C4679.45 2805.02 4690.89 2816.46 4703.29 2826.81C4715.58 2836.32 4728.55 2844.91 4742.11 2852.51L4744.68 2853.8L4746.48 2858.43C4758.31 2889.62 4774.4 2919.04 4794.29 2945.82C4813.51 2972.43 4837.47 2995.26 4864.98 3013.17L4873.72 3018.83V3028.85C4872.03 3046.98 4872.03 3065.22 4873.72 3083.35C4875.39 3102.18 4878.23 3120.9 4882.2 3139.38C4886.2 3158.19 4891.35 3176.73 4897.62 3194.91C4903.28 3213.67 4911.25 3231.41 4918.7 3249.92C4905.98 3234.43 4894.54 3217.92 4884.51 3200.56C4874.23 3183.08 4865.62 3164.66 4858.81 3145.55C4851.97 3126.38 4847.06 3106.58 4844.16 3086.43C4840.61 3065.8 4839.92 3044.78 4842.1 3023.97L4849.55 3039.65C4833.42 3030.08 4818.57 3018.51 4805.34 3005.2C4792.15 2992.24 4780.35 2977.94 4770.13 2962.53C4760.25 2947.33 4751.65 2931.34 4744.42 2914.72C4737.24 2898.15 4731.65 2880.93 4727.71 2863.31L4732.08 2869.22C4718.73 2858.86 4706.65 2846.95 4696.09 2833.75C4685.24 2821.35 4676.15 2807.51 4669.1 2792.62Z" fill="#9A4A4D"/>
<path d="M4922.82 3411.09C4925.69 3447.16 4919.87 3483.38 4905.85 3516.74C4892.16 3550.11 4873.25 3581.09 4849.81 3608.51C4855.72 3591.54 4863.44 3575.35 4870.38 3559.15C4877.32 3542.96 4884.51 3527.28 4890.68 3511.08C4903.58 3478.49 4914.32 3445.09 4922.82 3411.09Z" fill="#9A4A4D"/>
<path d="M4651.88 3842.68C4636.67 3904.77 4635.27 3969.44 4647.77 4032.13C4654.7 4062.71 4665.77 4092.2 4680.67 4119.78C4696.55 4148.28 4714.33 4175.67 4733.88 4201.78C4704.68 4183.93 4679.27 4160.53 4659.08 4132.89C4638.38 4104.95 4623.76 4072.99 4616.15 4039.07C4608.53 4005.62 4607.77 3970.97 4613.91 3937.22C4620.05 3903.46 4632.97 3871.3 4651.88 3842.68Z" fill="#9A4A4D"/>
<path d="M5378.83 5380.63C5584.47 5493.22 5976.99 5544.37 6252.81 5427.67C6416.8 5358.52 6412.18 5234.11 6412.18 5234.11C6412.18 5234.11 6736.32 5577.53 6540.7 5902.44C6473.1 6015.03 6277.23 6005.26 6149.98 5994.98C5832.52 5970.82 5597.32 5774.95 5378.83 5380.63Z" fill="#EBEBEB"/>
<path d="M5283.46 5234.11L5322.53 5293.74C5322.53 5293.74 5666.98 5436.66 5990.87 5373.69C6314.76 5310.71 6356.4 5164.44 6356.4 5164.44L6298.05 5097.61C6298.05 5097.61 6360 5089.13 6413.72 5167.02C6467.44 5244.9 6477.73 5286.8 6525.28 5337.7C6572.84 5388.59 6610.88 5574.96 6436.08 5685.49C6261.29 5796.02 5832.52 5829.95 5634.08 5735.36C5479.85 5660.3 5470.85 5560.82 5398.88 5482.93C5326.9 5405.05 5223.05 5338.98 5283.46 5234.11Z" fill="#FAFAFA"/>
<path d="M3204.42 3516.22C3233.98 3297.73 3095.17 3017.03 3058.93 2807.27C3023.71 2604.97 3012.66 2453.05 3073.84 2293.17C3110.08 2198.06 3212.39 2085.73 3293.1 2080.58C3322.41 1695.01 3645.26 1611.21 3799.75 1621.75C3871.58 1628.85 3943.81 1631.09 4015.93 1628.43C4104.36 1620.2 4141.63 1562.88 4221.58 1528.95C4358.84 1470.86 4542.12 1525.86 4568.08 1686.78C4669.62 1616.09 4766.78 1648.99 4870.89 1712.48C4915.27 1738.22 4948.22 1779.85 4963.06 1828.96C4977.9 1878.07 4973.53 1930.98 4950.83 1976.99C5128.46 1939.46 5233.59 2089.84 5219.97 2182.63C5209.69 2251.52 5178.33 2302.42 5203 2374.65C5230.76 2456.14 5322.53 2483.39 5367 2438.66C5353.38 2536.85 5294.77 2596.49 5195.29 2559.73C5204.45 2590.98 5206.6 2623.86 5201.58 2656.03C5196.56 2688.2 5184.49 2718.87 5166.24 2745.84C5142.42 2779.37 5108.95 2804.86 5070.29 2818.92C5031.63 2832.97 4989.6 2834.91 4949.81 2824.49C4924.1 2872.31 4906.36 2918.58 4860.61 2953.02C4816.1 2988.36 4763.72 3012.43 4707.92 3023.2C4532.35 3048.9 4355.5 3019.08 4180.19 3001.86L3971.72 2981.3C3959.64 2981.3 3899.49 2965.1 3889.21 2973.07L3204.42 3516.22Z" fill="#263238"/>
<path d="M3037.08 3169.46C3155.58 3302.1 3283.59 3238.86 3283.59 3238.86L3059.7 3919.28C3159.95 4156.28 3575.09 4527.73 3837.8 4644.69C3904.11 4490.45 3930.08 4261.42 3925.71 4084.82L3973.01 3977.12C4054.97 4004.17 4138.49 4026.23 4223.12 4043.18C4392.52 4071.46 4557.29 3977.89 4657.54 3816.46C4763.44 3647.58 4866.52 3358.14 4895.31 3125.25C4901.9 3065.61 4916.87 3007.2 4939.78 2951.74C5002.76 2805.47 5003.02 2708.82 5003.79 2569.76C4869.86 2369.77 4471.43 2191.37 4012.59 2305.51C3985.34 2548.93 3839.34 2702.91 3645.01 2738.13C3633.44 2802.65 3592.31 2961.76 3490.77 2926.8C3418.03 2901.1 3441.93 2808.3 3392.07 2703.68C3342.2 2599.06 3172.8 2522.2 3067.41 2620.65C2920.37 2758.18 2907.01 3024.22 3037.08 3169.46Z" fill="#B16668"/>
<path d="M4223.12 4043.18C4298.5 4052.44 4374.93 4039.01 4442.64 4004.62C4509.59 3970.8 4567.7 3921.76 4612.3 3861.44C4655.96 3800.2 4693.1 3734.55 4723.09 3665.57C4754 3596.62 4781.04 3525.99 4804.06 3454.02C4828.25 3382.32 4848.24 3309.28 4863.95 3235.26C4871.92 3198.51 4877.83 3161.23 4883.23 3123.96C4887.86 3085.55 4895.86 3047.61 4907.14 3010.6C4917.93 2973.07 4935.67 2938.37 4949.04 2903.67C4962.89 2868.65 4973.81 2832.53 4981.68 2795.7C4995.68 2721.19 5002.99 2645.57 5003.53 2569.75C5008.36 2646.1 5005.6 2722.73 4995.3 2798.53C4988.54 2836.39 4978.65 2873.61 4965.74 2909.84C4952.89 2946.59 4936.95 2980.53 4927.96 3016.77C4918.44 3052.91 4911.49 3089.67 4907.14 3126.79C4902.25 3165.09 4896.6 3203.9 4888.63 3240.41C4873.65 3315.6 4854.26 3389.85 4830.53 3462.76C4806.38 3535.46 4778.23 3606.77 4746.22 3676.37C4715.05 3746.87 4675.71 3813.48 4629 3874.81C4580.92 3935.63 4519.31 3984.39 4449.07 4017.22C4378.23 4048.95 4299.31 4058.02 4223.12 4043.18Z" fill="#9A4A4D"/>
<path d="M4612.3 3350.94L4348.04 3376.64L4409.74 2846.86C4497.14 2920.12 4566.28 3127.3 4612.3 3350.94Z" fill="#9A4A4D"/>
<path d="M4189.19 3524.71C4189.19 3522.14 4186.87 3519.82 4185.59 3517.25C4178.45 3503.39 4168.97 3490.87 4157.57 3480.24C4147.39 3469.94 4135.68 3461.27 4122.87 3454.53C4102.47 3444.72 4080.57 3438.38 4058.09 3435.77C4040.07 3432.9 4021.63 3434.49 4004.37 3440.39C4000.96 3441.45 3997.81 3443.2 3995.11 3445.53C3993.74 3446.72 3992.71 3448.25 3992.13 3449.97C3991.54 3451.68 3991.42 3453.52 3991.77 3455.3C3993.06 3460.44 3999.22 3462.5 4004.62 3463.78C4032.87 3471.48 4060.4 3481.63 4086.88 3494.12C4112.34 3504.24 4135.25 3519.86 4153.97 3539.87C4163.22 3550.93 4171.45 3562.49 4179.68 3573.8C4182.76 3577.4 4187.39 3585.63 4193.3 3584.09C4199.21 3582.54 4198.95 3572.77 4198.95 3568.41C4198.95 3553.3 4195.61 3538.38 4189.19 3524.71Z" fill="#9A4A4D"/>
<path d="M3973.01 3977.12C3724.95 3866.07 3537.81 3776.87 3461.73 3548.1C3414.17 3404.66 3401.83 3193.88 3401.83 3193.88C3401.83 3193.88 3356.85 3430.37 3392.84 3611.33C3420.34 3750.91 3540.9 3904.12 3934.19 4065.29L3973.01 3977.12Z" fill="#9A4A4D"/>
<path d="M4033.16 2916.78C4037.27 2881.82 4070.43 2942.48 4119.27 2948.14C4168.11 2953.79 4214.89 2903.92 4210.52 2938.63C4206.15 2973.33 4163.22 2996.98 4114.13 2990.04C4065.03 2983.1 4028.01 2951.74 4033.16 2916.78Z" fill="#263238"/>
<path d="M4615.12 3016.77C4626.18 2983.35 4642.11 3047.62 4683.76 3061.5C4725.4 3075.38 4776.55 3033.99 4765.24 3067.15C4753.93 3100.31 4711.52 3116.25 4670.13 3102.37C4628.75 3088.49 4603.81 3050.19 4615.12 3016.77Z" fill="#263238"/>
<path d="M4177.62 2678.23L3997.68 2724.24C3992.08 2699.77 3996.15 2674.07 4009.03 2652.52C4021.91 2630.97 4042.62 2615.23 4066.83 2608.57C4078.69 2605.58 4091.04 2605.02 4103.12 2606.94C4115.2 2608.85 4126.77 2613.19 4137.12 2619.71C4147.48 2626.22 4156.41 2634.76 4163.37 2644.82C4170.33 2654.88 4175.18 2666.25 4177.62 2678.23Z" fill="#263238"/>
<path d="M4855.72 2938.37L4708.95 2822.18C4716.03 2812.33 4725.03 2804.02 4735.41 2797.74C4745.8 2791.47 4757.35 2787.37 4769.36 2785.69C4781.38 2784.01 4793.61 2784.78 4805.31 2787.96C4817.02 2791.14 4827.96 2796.66 4837.47 2804.19C4857.16 2819.93 4870.03 2842.65 4873.43 2867.63C4876.83 2892.61 4870.49 2917.94 4855.72 2938.37Z" fill="#263238"/>
<path d="M3837.8 4644.68C3744.74 4596.36 3516.99 4550.09 3516.99 4550.09C3431.91 4680.41 3400.29 4775.01 3308.01 4890.17C3215.98 4799.94 2839.66 4324.65 2801.87 3850.91C2986.69 3702.84 3132.44 3472.27 3195.42 3506.97L3150.18 3644.49C3150.18 3644.49 3218.3 3971.21 3384.87 4173.76C3608.25 4445.47 3800.27 4453.69 3837.8 4644.68Z" fill="#E0E0E0"/>
<path d="M3837.79 4644.68C3917.48 4598.67 4041.89 4455.24 4073.77 4467.06C4105.64 4478.88 4176.59 4670.39 4176.59 4670.39C4176.59 4670.39 4217.46 4521.81 4143.17 4288.67C4068.89 4055.52 3971.98 3977.12 3971.98 3977.12L3934.19 4064.52C3934.19 4064.52 3921.34 4383.26 3837.79 4644.68Z" fill="#E0E0E0"/>
<g opacity="0.2">
<path d="M10713.4 7267.39C10935 7395.92 10935 7601.56 10713.4 7730.09C10491.9 7858.61 10132.2 7858.61 9910.41 7730.09C9688.57 7601.56 9688.83 7394.63 9910.41 7267.39C10132 7140.15 10491.6 7139.38 10713.4 7267.39Z" fill="black"/>
</g>
<path d="M9958.73 7527.79C9765.69 7330.63 9652.33 6838.63 9840.49 6682.34H10798.8C10987.2 6838.63 10873.8 7330.37 10680.8 7527.53L10675.7 7532.93L10669 7539.36C10663.6 7544.75 10657.7 7549.89 10651.5 7555.04L10646.9 7558.63C10642.2 7562.23 10637.4 7566.09 10632.2 7569.43C10623.9 7575.27 10615.3 7580.67 10606.5 7585.63C10447.6 7677.14 10190.1 7677.14 10031.5 7585.63C10022.6 7580.73 10014 7575.32 10005.8 7569.43C10000.9 7566.09 9996.52 7562.75 9992.15 7559.15L9986.5 7554.78C9980.33 7549.89 9974.93 7544.75 9969.53 7539.61L9961.82 7532.16L9958.73 7527.79Z" fill="#F0F0F0"/>
<path d="M10716.5 6619.36C10935 6745.83 10935 6950.45 10716.5 7076.66C10498 7202.87 10143.3 7202.87 9924.55 7076.66C9705.79 6950.45 9706.05 6745.83 9924.55 6619.36C10143 6492.89 10497 6493.15 10716.5 6619.36Z" fill="#FAFAFA"/>
<path d="M10560.5 6709.08C10693.6 6786.19 10693.6 6910.35 10560.5 6987.21C10427.3 7064.07 10211.9 7064.32 10078.8 6987.21C9945.62 6910.09 9945.88 6785.68 10078.8 6709.08C10211.7 6632.47 10427.6 6632.22 10560.5 6709.08Z" fill="#E0E0E0"/>
<path d="M10078.8 6840.68C10211.9 6763.57 10427.6 6763.57 10560.5 6840.68C10592.7 6858.02 10620.1 6883.11 10640.2 6913.69C10620.2 6944.41 10592.8 6969.61 10560.5 6986.95C10427.6 7064.06 10211.9 7064.06 10078.8 6986.95C10046.6 6969.46 10019.2 6944.3 9999.09 6913.69C10019.3 6883.22 10046.7 6858.16 10078.8 6840.68Z" fill="#455A64"/>
<path d="M10531.2 6913.95C10599.3 6844.95 10658 6767.14 10705.5 6682.6C10785.9 6540.45 10854.8 6359.48 10813.2 6336.09C10771.5 6312.7 10548.4 6492.89 10548.4 6492.89C10563.9 6412.91 10569.9 6331.37 10566.1 6249.98C10559 6123.25 10528.1 6008.09 10491.9 5984.96C10455.6 5961.82 10374.4 6121.45 10339.4 6237.38C10304.5 6353.31 10290.8 6425.29 10290.8 6425.29C10290.8 6425.29 10260.3 6291.88 10221.4 6181.86C10179.3 6061.56 10141 6034.31 10111.2 6046.39C10081.3 6058.47 10062.1 6114.25 10053.3 6274.4C10050.1 6350.9 10052.5 6427.54 10060.5 6503.69C10060.5 6503.69 10000.6 6438.14 9934.31 6375.16C9861.57 6305.24 9810.16 6305.5 9789.34 6318.61C9768.52 6331.72 9783.17 6431.2 9895.76 6635.04C9951.72 6738.85 10023.5 6833.3 10108.6 6914.97C10108.6 6914.97 10264.6 7014.71 10531.2 6913.95Z" fill="black"/>
<g opacity="0.2">
<path d="M10531.2 6913.95C10599.3 6844.95 10658 6767.14 10705.5 6682.6C10785.9 6540.45 10854.8 6359.48 10813.2 6336.09C10771.5 6312.7 10548.4 6492.89 10548.4 6492.89C10563.9 6412.91 10569.9 6331.37 10566.1 6249.98C10559 6123.25 10528.1 6008.09 10491.9 5984.96C10455.6 5961.82 10374.4 6121.45 10339.4 6237.38C10304.5 6353.31 10290.8 6425.29 10290.8 6425.29C10290.8 6425.29 10260.3 6291.88 10221.4 6181.86C10179.3 6061.56 10141 6034.31 10111.2 6046.39C10081.3 6058.47 10062.1 6114.25 10053.3 6274.4C10050.1 6350.9 10052.5 6427.54 10060.5 6503.69C10060.5 6503.69 10000.6 6438.14 9934.31 6375.16C9861.57 6305.24 9810.16 6305.5 9789.34 6318.61C9768.52 6331.72 9783.17 6431.2 9895.76 6635.04C9951.72 6738.85 10023.5 6833.3 10108.6 6914.97C10108.6 6914.97 10264.6 7014.71 10531.2 6913.95Z" fill="black"/>
</g>
<path opacity="0.2" d="M10339.4 6237.13C10304.7 6353.06 10290.8 6425.03 10290.8 6425.03L10311.9 6524.77C10311.9 6524.77 10333.8 6306.53 10364.6 6166.18C10354.9 6190.34 10346.4 6214.51 10339.4 6237.13Z" fill="black"/>
<path opacity="0.2" d="M10099.6 6411.92C10071.6 6309.1 10068.8 6135.33 10068.8 6134.05C10060.9 6180.38 10056.1 6227.18 10054.4 6274.14C10051.2 6350.64 10053.6 6427.28 10061.6 6503.43L10215.8 6664.86C10215.8 6664.86 10126.6 6514.49 10099.6 6411.92Z" fill="black"/>
<path opacity="0.2" d="M10451.2 6587.23L10548.4 6492.64C10563.9 6412.65 10569.9 6331.11 10566.1 6249.72C10563.6 6201.37 10557 6153.32 10546.6 6106.03C10556.2 6183.82 10552.4 6262.68 10535.3 6339.18C10512.3 6423.48 10484.2 6506.32 10451.2 6587.23Z" fill="black"/>
<path opacity="0.2" d="M3228.07 9267.01C3228.07 9262.89 3228.07 9258.78 3228.07 9254.67V9252.87C3215.73 8928.47 2792.36 8625.15 2433.26 8564.99C2069.02 8503.82 1853.61 8765.24 1853.61 8932.07V8933.35C1845.38 9054.94 1960.8 9196.57 2181.61 9307.11C2521.17 9477.28 2946.59 9528.43 3132.7 9421.75C3161.2 9407.29 3185.14 9385.23 3201.88 9358.01C3218.62 9330.79 3227.5 9299.48 3227.55 9267.52L3228.07 9267.01Z" fill="black"/>
<path d="M3207.25 9192.46C3207.25 9188.6 3207.25 9184.49 3207.25 9180.63V9179.86C3195.68 8871.4 2792.11 8581.45 2449.71 8523.87C2102.18 8465.51 1897.05 8714.86 1897.05 8873.97V8875.26C1889.34 8991.19 1999.87 9126.14 2209.88 9231.79C2533.51 9393.73 2939.14 9442.57 3115.73 9340.78C3142.92 9327.01 3165.77 9305.99 3181.74 9280.04C3197.71 9254.08 3206.18 9224.22 3206.22 9193.74L3207.25 9192.46Z" fill="#37474F"/>
<path d="M2992.61 8791.46C2667.44 8870.89 2509.35 9151.33 2460.51 9329.47C2472.33 9333.07 2483.9 9336.15 2495.72 9339.24C2543.02 9165.47 2699.31 8888.88 3024.22 8821.28C3013.94 8811.25 3003.4 8801.23 2992.61 8791.46Z" fill="black"/>
<path d="M3156.35 9310.19C3156.45 9211.49 3125.98 9115.18 3069.14 9034.5C3012.29 8953.81 2931.86 8892.71 2838.89 8859.58L2826.55 8894.28C2917.35 8925.64 2995.29 8986.04 3048.3 9066.15C3101.32 9146.26 3126.47 9241.6 3119.85 9337.44C3132.89 9329.59 3145.12 9320.46 3156.35 9310.19Z" fill="black"/>
<path opacity="0.2" d="M3256.09 8212.06L4261.16 8794.29C4278.08 8802.91 4296.8 8807.4 4315.78 8807.4C4334.77 8807.4 4353.49 8802.91 4370.41 8794.29L7255.05 7131.16C7261.65 7128.9 7267.37 7124.64 7271.42 7118.97C7275.47 7113.3 7277.65 7106.51 7277.65 7099.54C7277.65 7092.57 7275.47 7085.78 7271.42 7080.11C7267.37 7074.44 7261.65 7070.18 7255.05 7067.92L6250.23 6485.18C6233.27 6476.56 6214.51 6472.06 6195.48 6472.06C6176.45 6472.06 6157.69 6476.56 6140.73 6485.18L3256.09 8148.31C3249.3 8150.45 3243.38 8154.69 3239.18 8160.42C3234.97 8166.16 3232.7 8173.08 3232.7 8180.19C3232.7 8187.3 3234.97 8194.22 3239.18 8199.95C3243.38 8205.69 3249.3 8209.93 3256.09 8212.06Z" fill="black"/>
<path d="M7137.58 6982.58C7136.96 6975.91 7134.59 6969.52 7130.71 6964.06C7126.83 6958.59 7121.57 6954.25 7115.47 6951.48L6215.79 6432.49C6199.18 6424.06 6180.82 6419.67 6162.19 6419.67C6143.57 6419.67 6125.21 6424.06 6108.6 6432.49L3364.82 8019.27C3358.68 8021.95 3353.36 8026.22 3349.43 8031.65C3345.5 8037.07 3343.09 8043.45 3342.46 8050.12V8144.46C3343.09 8151.13 3345.5 8157.5 3349.43 8162.93C3353.36 8168.35 3358.68 8172.63 3364.82 8175.3L4264.5 8694.29C4281.11 8702.72 4299.47 8707.11 4318.1 8707.11C4336.72 8707.11 4355.08 8702.72 4371.69 8694.29L7115.73 7110.33C7121.79 7107.58 7127.03 7103.28 7130.91 7097.86C7134.78 7092.45 7137.18 7086.12 7137.84 7079.49L7137.58 6982.58Z" fill="#263238"/>
<path d="M4264.5 8597.64L3364.82 8080.97C3358.28 8078.87 3352.58 8074.76 3348.53 8069.21C3344.49 8063.67 3342.3 8056.98 3342.3 8050.12C3342.3 8043.26 3344.49 8036.57 3348.53 8031.03C3352.58 8025.48 3358.28 8021.37 3364.82 8019.27L6108.34 6432.74C6124.95 6424.32 6143.31 6419.93 6161.94 6419.93C6180.56 6419.93 6198.92 6424.32 6215.53 6432.74L7115.22 6951.73C7121.72 6953.9 7127.38 6958.05 7131.39 6963.61C7135.39 6969.17 7137.55 6975.85 7137.55 6982.71C7137.55 6989.56 7135.39 6996.24 7131.39 7001.8C7127.38 7007.36 7121.72 7011.52 7115.22 7013.68L4371.44 8597.64C4354.84 8605.96 4336.53 8610.3 4317.97 8610.3C4299.4 8610.3 4281.1 8605.96 4264.5 8597.64Z" fill="#37474F"/>
<path d="M4314.37 8610.49V8706.89C4296.51 8706.83 4278.9 8702.6 4262.96 8694.55L3364.82 8175.56C3358.72 8172.78 3353.46 8168.44 3349.58 8162.98C3345.7 8157.52 3343.33 8151.13 3342.71 8144.46V8048.83C3343.33 8055.51 3345.7 8061.9 3349.58 8067.36C3353.46 8072.82 3358.72 8077.16 3364.82 8079.94L4264.5 8597.9C4279.96 8605.81 4297.01 8610.12 4314.37 8610.49Z" fill="#263238"/>
<path d="M6156.15 6514.49H6157.95L6246.89 6565.9L6126.33 6635.04L6034.31 6583.63L6154.87 6513.97L6156.15 6514.49ZM6295.47 6594.94H6297.27L6386.21 6646.35L6291.62 6701.11L6199.59 6649.7L6294.19 6594.94H6295.47ZM5987.01 6611.91H5988.81L6077.75 6663.32L5983.16 6718.07L5891.13 6666.66L5986.75 6611.91H5987.01ZM6434.03 6675.4H6436.08L6525.02 6726.81L6372.33 6814.98L6280.05 6763.57L6434.28 6675.14L6434.03 6675.4ZM6151.27 6677.2C6151.94 6676.99 6152.66 6676.99 6153.32 6677.2L6242.26 6728.61L6166.95 6772.05L6074.92 6720.64L6150.24 6677.2H6151.27ZM5842.8 6694.17H5844.86L5933.8 6745.58L5838.95 6800.59L5747.18 6749.18L5841.78 6694.68L5842.8 6694.17ZM6027.63 6748.4H6029.68L6118.62 6799.82L6043.31 6843.51L5951.28 6792.1L6026.34 6748.92L6027.63 6748.4ZM6572.06 6755.86H6574.12L6663.06 6807.27L6542.5 6876.93L6450.48 6825.52L6571.04 6755.86H6572.06ZM5700.14 6776.68H5704L5792.94 6828.09L5107.89 7223.69L5015.87 7172.28L5700.91 6776.68H5700.14ZM6231.73 6791.33H6233.78L6322.72 6842.74L6247.41 6886.18L6155.38 6834.77L6230.7 6791.33H6231.73ZM5904.24 6819.61H5906.3L5995.24 6871.02L5919.92 6914.46L5827.9 6863.05L5903.21 6819.61H5904.24ZM6711.39 6836.32H6713.44L6802.38 6887.73L6727.07 6931.17L6635.04 6879.76L6710.36 6836.32H6711.39ZM6402.92 6853.03H6404.98L6493.92 6904.44L6418.6 6947.88L6326.58 6896.47L6401.89 6853.03H6402.92ZM6108.08 6862.54H6110.14L6199.08 6913.95L6123.76 6957.65L6031.74 6906.23L6106.8 6863.05L6108.08 6862.54ZM5782.91 6892.1H5784.97L5873.91 6943.51L5798.59 6986.95L5706.57 6935.54L5781.11 6892.1H5782.91ZM6590.06 6908.55H6592.11L6681.05 6959.96L6605.74 7003.4L6513.71 6951.99L6588.77 6908.55H6590.06ZM6281.59 6925.51H6283.39L6372.59 6976.92L6297.79 7020.62L6205.76 6969.21L6280.82 6926.03L6281.59 6925.51ZM5986.5 6935.03H5988.55L6077.49 6986.44L6002.18 7029.88L5910.15 6978.47L5985.47 6935.03H5986.5ZM6881.81 6935.03H6883.87L6972.81 6986.44L6877.96 7041.19L6785.93 6989.78L6880.78 6935.28L6881.81 6935.03ZM5659.01 6963.3H5661.07L5750.01 7014.71L5674.69 7058.15L5582.67 7006.74L5657.98 6963.3H5659.01ZM6466.16 6979.75H6468.21L6557.15 7031.16L6481.84 7074.6L6389.81 7023.19L6465.13 6979.75H6466.16ZM6157.69 6996.72H6159.75L6248.69 7048.13L6173.37 7091.83L6081.35 7040.42L6156.67 6996.97L6157.69 6996.72ZM5862.85 7006.23H5864.65L5953.85 7057.64L5878.54 7101.08L5786.51 7049.67L5861.57 7006.23H5862.85ZM5535.37 7034.5H5537.43L5626.37 7085.91L5551.05 7129.36L5459.03 7077.95L5534.34 7034.5H5535.37ZM6684.91 7048.38C6685.58 7048.17 6686.3 7048.17 6686.97 7048.38L6775.91 7099.8L6700.59 7143.24L6608.56 7091.83L6683.88 7048.38H6684.91ZM6342.52 7050.96H6346.63L6435.57 7102.37L6360.25 7145.81L6268.23 7094.4L6343.29 7050.96H6342.52ZM6034.05 7067.92H6038.16L6127.36 7119.33L6052.05 7162.77L5960.02 7111.36L6035.08 7067.92H6034.05ZM5738.96 7077.43H5741.01L5829.95 7128.84L5755.41 7171.26L5663.38 7119.85L5738.7 7076.4L5738.96 7077.43ZM5411.47 7105.45H5413.53L5502.47 7156.86L5428.69 7200.56L5336.67 7149.15L5411.98 7105.96L5411.47 7105.45ZM6561.27 7119.59H6563.32L6652.26 7171L6577.98 7213.41L6485.95 7162L6561.01 7118.56L6561.27 7119.59ZM6218.62 7122.16H6220.67L6309.61 7173.57L6234.3 7217.01L6142.27 7165.6L6218.1 7120.87L6218.62 7122.16ZM5910.15 7139.12H5912.21L6001.15 7190.53L5925.83 7233.98L5833.81 7182.57L5909.12 7139.12H5910.15ZM5615.31 7148.38H5617.11L5706.31 7199.79L5630.99 7243.23L5538.97 7191.82L5614.03 7148.38H5615.31ZM5289.88 7174.85C5290.55 7174.64 5291.27 7174.64 5291.94 7174.85L5380.88 7226.27L5305.56 7269.96L5213.54 7218.55L5288.86 7175.37L5289.88 7174.85ZM6439.42 7188.99H6441.48L6530.42 7240.4L6455.1 7283.84L6363.08 7232.43L6438.4 7188.99H6439.42ZM6097.03 7191.56H6099.09L6188.03 7242.97L6112.71 7286.42L6020.69 7235.01L6095.74 7191.56H6097.03ZM4968.83 7199.28H4970.88L5059.82 7250.69L4965.23 7305.44L4873.2 7254.03L4967.8 7199.53L4968.83 7199.28ZM5789.08 7208.53H5791.14L5880.08 7259.94L5804.76 7303.38L5712.74 7251.97L5787.8 7208.53H5789.08ZM5493.98 7217.78H5496.04L5584.98 7269.19L5509.66 7312.63L5417.64 7261.22L5492.96 7218.04L5493.98 7217.78ZM5166.76 7246.06H5168.56L5257.5 7297.47L5182.18 7340.91L5090.15 7289.5L5165.47 7246.06H5166.76ZM6316.3 7260.2H6318.1L6407.29 7311.61L6331.98 7354.79L6239.95 7303.38L6315.01 7259.94L6316.3 7260.2ZM5973.64 7262.51H5975.7L6064.64 7313.92L5989.33 7357.36L5897.3 7305.95L5972.62 7262.51H5973.64ZM5665.18 7279.48C5665.85 7279.26 5666.57 7279.26 5667.24 7279.48L5756.18 7330.89L5680.86 7374.33L5588.84 7322.92L5664.15 7279.48H5665.18ZM4825.65 7281.79H4827.7L4916.64 7333.2L4822.05 7387.95L4729.77 7336.54L4824.62 7281.79H4825.65ZM5370.34 7288.99C5371.01 7288.77 5371.73 7288.77 5372.4 7288.99L5461.34 7340.4L5386.02 7384.1L5294 7332.69L5369.06 7289.5L5370.34 7288.99ZM5042.86 7317.26H5044.91L5133.85 7368.67L5058.54 7412.11L4966.51 7360.7L5041.83 7317.26H5042.86ZM5850 7333.71C5850.67 7333.5 5851.39 7333.5 5852.06 7333.71L5941 7385.12L5865.68 7428.57L5773.66 7377.16L5848.72 7333.97L5850 7333.71ZM5541.54 7350.68H5543.6L5632.54 7402.09L5557.22 7445.79L5465.19 7394.38L5540.51 7351.19L5541.54 7350.68ZM5246.44 7360.19H5248.5L5337.44 7411.6L5262.12 7455.04L5170.1 7403.63L5245.41 7360.19H5246.44ZM6138.42 7362.25H6140.99L6230.18 7413.66L6155.12 7457.61L6063.87 7406.2L6138.93 7362.76L6138.42 7362.25ZM4682.47 7364.05H4684.53L4773.47 7415.46L4678.61 7469.95L4586.59 7418.54L4681.44 7364.05H4682.47ZM4919.21 7388.47H4921.01L5010.21 7439.88L4935.67 7483.32L4843.64 7431.91L4918.96 7388.47H4919.21ZM5726.1 7404.92C5726.85 7404.66 5727.67 7404.66 5728.42 7404.92L5817.1 7456.33L5741.78 7499.77L5649.76 7448.36L5725.08 7404.92H5726.1ZM5417.64 7421.88H5421.24L5510.18 7473.29L5434.86 7516.73L5342.84 7465.32L5418.15 7421.88H5417.64ZM5122.8 7431.39H5124.6L5213.8 7482.8L5138.48 7526.25L5046.46 7474.84L5123.06 7431.91L5122.8 7431.39ZM6014.52 7433.45H6016.57L6105.51 7484.86L6030.2 7528.3L5938.17 7476.89L6013.49 7433.45H6014.52ZM4539.29 7446.56H4541.35L4630.29 7497.97L4509.47 7567.63L4417.45 7516.22L4538.01 7446.56H4539.29ZM4796.34 7459.41C4797.01 7459.2 4797.73 7459.2 4798.4 7459.41L4887.34 7510.82L4650.08 7648.86L4558.06 7597.45L4795.57 7460.44L4796.34 7459.41ZM5603.49 7476.12H5605.55L5694.49 7527.53L5619.17 7570.97L5527.14 7519.56L5602.46 7476.12H5603.49ZM5295.03 7493.09H5297.08L5386.02 7544.5L5310.71 7587.94L5218.68 7536.53L5294 7493.09H5295.03ZM4999.93 7502.6H5001.99L5090.93 7554.01L5015.61 7597.45L4923.58 7546.04L4998.9 7502.6H4999.93ZM5891.9 7504.65H5893.7L5982.9 7556.06L5909.64 7600.28L5817.61 7548.87L5892.67 7505.42L5891.9 7504.65ZM5480.62 7547.32H5482.42L5571.36 7598.73L5496.04 7642.18L5404.02 7590.77L5479.33 7547.32H5480.62ZM4345.99 7558.89H4347.79L4436.98 7610.3L4361.67 7653.74L4269.64 7602.33L4344.96 7558.89H4345.99ZM5172.41 7564.29H5174.47L5263.41 7615.7L5188.09 7659.14L5096.32 7607.73L5171.38 7564.29H5172.41ZM4877.57 7573.54C4878.15 7573.33 4878.79 7573.33 4879.37 7573.54L4968.57 7624.95L4899.68 7664.54C4897.39 7665.77 4895.47 7667.58 4894.12 7669.79C4892.76 7672.01 4892.02 7674.54 4891.97 7677.14C4892.01 7679.86 4892.8 7682.53 4894.25 7684.84C4895.7 7687.15 4897.75 7689.02 4900.19 7690.25L5017.15 7757.85L4928.73 7809.26L4697.38 7677.14L4877.31 7574.31L4877.57 7573.54ZM5769.29 7575.6H5771.34L5860.28 7627.01L5784.97 7670.45L5692.94 7619.04L5768.26 7575.6H5769.29ZM5358 7618.27H5360.06L5449 7669.68L5373.17 7714.67L5281.14 7663.25L5356.46 7619.81L5358 7618.27ZM4223.37 7630.09H4225.43L4314.37 7681.51L4238.8 7725.72L4146.77 7674.31L4222.09 7630.87L4223.37 7630.09ZM5050.05 7635.49H5052.11L5141.05 7686.9L5065.73 7730.35L4973.71 7678.93L5048.77 7635.49H5050.05ZM5593.21 7677.91H5595.26L5684.2 7729.32L5608.89 7772.76L5516.86 7721.35L5592.18 7677.91H5593.21ZM5234.88 7689.47H5236.93L5325.61 7740.88L5250.3 7784.33L5158.27 7732.92L5233.59 7689.47H5234.88ZM4100.24 7701.04H4102.3L4191.24 7752.45L4115.93 7795.89L4023.9 7744.48L4099.22 7701.04H4100.24ZM4362.7 7710.55H4364.75L4453.69 7761.96L4378.38 7805.41L4286.35 7753.99L4361.67 7710.55H4362.7ZM5470.08 7748.85H5471.88L5561.08 7800.26L5485.76 7843.71L5393.73 7792.3L5468.79 7748.85H5470.08ZM5111.49 7760.68H5113.55L5202.49 7812.09L5068.82 7889.2L4976.79 7837.79L5110.46 7760.68H5111.49ZM3950.9 7786.38H3952.95L4041.89 7837.79L3843.45 7952.44L3751.42 7901.03L3949.87 7786.38H3950.9ZM4764.73 7799.24H4766.78L4855.72 7850.65L4778.61 7895.89L4686.84 7844.48L4761.9 7801.03L4764.73 7799.24ZM5346.69 7819.03H5348.75L5437.69 7870.44L5362.37 7913.88L5270.35 7862.47L5345.66 7819.03H5346.69ZM4089.71 7868.9H4091.76L4180.7 7920.31L4105.39 7963.75L4013.36 7912.34L4088.68 7868.9H4089.71ZM4640.83 7872.24H4642.88L4731.82 7923.65L4656.51 7967.09L4564.48 7915.68L4639.8 7872.24H4640.83ZM4903.28 7881.49H4905.33L4994.53 7932.9L4918.96 7976.34L4827.19 7924.93L4902.25 7881.49H4903.28ZM5223.05 7892.29H5224.85L5314.05 7943.7L5238.73 7987.14L5146.71 7935.73L5221.77 7892.29H5223.05ZM3704.13 7930.59H3705.93L3794.87 7982L3719.55 8025.44L3627.52 7974.03L3702.84 7930.59H3704.13ZM3966.58 7939.84H3968.63L4057.57 7991.25L3981.74 8034.7L3889.72 7983.29L3964.78 7939.84H3966.58ZM4517.7 7943.44H4519.75L4608.69 7994.85L4533.12 8038.55L4441.35 7987.14L4516.41 7943.96L4517.7 7943.44ZM4229.03 7949.1H4231.08L4320.02 8000.51L4244.71 8043.95L4152.68 7992.54L4228 7949.1H4229.03ZM4780.15 7952.7H4782.21L4871.15 8004.11L4795.83 8048.83L4703.8 7997.42L4779.12 7953.98L4780.15 7952.7ZM5072.42 7978.4H5074.47L5163.41 8029.81L5087.07 8074.54L4995.05 8023.13L5070.36 7979.69L5072.42 7978.4ZM3581.51 8001.02H3583.57L3811.83 8132.63L3736.52 8176.33L3505.17 8044.21L3580.48 8000.51L3581.51 8001.02ZM3843.96 8010.28H3846.02L3934.96 8061.69L3859.64 8105.39L3767.62 8053.98L3842.94 8010.79L3843.96 8010.28ZM4106.67 8019.53H4108.73L4197.67 8070.94L4122.35 8114.38L4030.33 8062.97L4105.39 8019.53H4106.67ZM4657.53 8023.13C4658.28 8022.87 4659.1 8022.87 4659.85 8023.13L4748.53 8074.54L4673.47 8118.24L4581.45 8066.83L4656.51 8023.39L4657.53 8023.13ZM4369.12 8028.78H4371.18L4460.12 8080.19L4384.8 8123.64L4292.78 8072.23L4368.09 8029.04L4369.12 8028.78ZM4950.06 8049.61H4952.12L5041.06 8101.02L4965.74 8144.46L4873.72 8093.05L4948.78 8049.61H4950.06ZM3981.74 8090.99H3983.8L4072.74 8142.4L3997.42 8185.84L3905.4 8134.43L3980.72 8090.99H3981.74ZM4244.45 8100.24H4246.25L4335.45 8151.65L4260.13 8195.1L4168.11 8143.69L4243.94 8100.24H4244.45ZM4506.9 8109.5H4508.96L4597.9 8160.91L4522.58 8204.61L4430.56 8153.2L4505.87 8110.01L4506.9 8109.5ZM4825.13 8121.07H4827.19L4916.13 8172.48L4840.81 8215.92L4748.79 8164.51L4824.11 8121.07H4825.13ZM3858.62 8162.19H3860.67L4088.93 8294.06L4013.62 8337.5L3782.27 8205.38L3857.33 8161.94L3858.62 8162.19ZM4121.07 8171.45H4123.12L4212.06 8222.86L4136.75 8266.3L4044.72 8214.89L4120.04 8171.45H4121.07ZM4383.77 8180.7H4385.57L4474.77 8232.11L4399.45 8275.55L4307.43 8224.14L4382.49 8180.7H4383.77ZM4712.54 8228.77C4713.21 8228.55 4713.93 8228.55 4714.6 8228.77L4753.16 8250.62L4677.84 8294.06L4636.46 8271.7L4711.52 8228.51L4712.54 8228.77ZM4261.16 8252.93H4264.5L4353.44 8304.34L4278.13 8347.79L4186.1 8296.38L4261.42 8252.93H4261.16ZM4589.16 8299.97C4590.44 8299.97 4591.22 8299.97 4591.22 8299.97L4630.03 8321.57L4554.71 8365.27L4513.33 8342.9L4588.13 8299.46L4589.16 8299.97ZM4138.03 8324.14H4139.83L4229.03 8375.55L4153.71 8418.99L4061.69 8367.58L4136.75 8324.14H4138.03ZM4466.03 8371.18H4468.09L4506.65 8393.03L4431.33 8436.47L4389.94 8414.36L4465 8370.92L4466.03 8371.18ZM4342.65 8442.38H4344.96L4383.52 8464.23L4308.2 8507.67L4266.81 8485.31L4341.62 8442.12L4342.65 8442.38Z" fill="black"/>
<path opacity="0.2" d="M9842.55 7966.58L9673.92 7872.24C9644.7 7856.23 9612.02 7847.56 9578.71 7846.98C9545.39 7846.4 9512.44 7853.92 9482.67 7868.9L8643.91 8354.73L8533.38 8290.21C8507.04 8276.72 8477.88 8269.68 8448.29 8269.68C8418.7 8269.68 8389.54 8276.72 8363.21 8290.21L7343.22 8883.23C7296.18 8910.47 7296.18 8954.43 7343.22 8981.68L7450.67 9043.88L6236.87 9744.35C6183.66 9775.2 6183.66 9825.32 6236.87 9855.91L6405.75 9953.59C6435.64 9968.69 6468.66 9976.55 6502.15 9976.55C6535.63 9976.55 6568.65 9968.69 6598.54 9953.59L7811.83 9252.1C7838.23 9265.53 7867.43 9272.53 7897.04 9272.53C7926.66 9272.53 7955.86 9265.53 7982.26 9252.1L8998.13 8660.88C9044.14 8635.17 9044.91 8591.99 9001.98 8564.48L9842.55 8080.45C9895.5 8048.83 9896.01 7998.71 9842.55 7966.58Z" fill="black"/>
<path d="M9454.91 7099.28L9669.81 4544.95C9671.67 4507.56 9663.87 4470.33 9647.17 4436.84C9630.47 4403.34 9605.42 4374.71 9574.44 4353.7C9540.18 4337.13 9502.5 4328.86 9464.44 4329.58C9426.39 4330.29 9389.04 4339.97 9355.43 4357.81L6145.61 6210.91C6112.22 6232.75 6083.89 6261.48 6062.52 6295.18C6041.15 6328.87 6027.24 6366.75 6021.71 6406.27L5806.82 8960.34C5804.94 8997.76 5812.72 9035.04 5829.43 9068.58C5846.13 9102.12 5871.19 9130.8 5902.19 9151.85C5936.46 9168.36 5974.14 9176.59 6012.18 9175.88C6050.22 9175.16 6087.56 9165.52 6121.19 9147.73L9331.01 7294.64C9364.4 7272.8 9392.74 7244.07 9414.11 7210.37C9435.48 7176.68 9449.39 7138.8 9454.91 7099.28Z" fill="#263238"/>
<path d="M9454.91 7099.28L9669.81 4544.95C9671.67 4507.56 9663.87 4470.33 9647.17 4436.84C9630.47 4403.34 9605.42 4374.71 9574.44 4353.7C9540.18 4337.13 9502.5 4328.86 9464.44 4329.58C9426.39 4330.29 9389.05 4339.97 9355.43 4357.81L6145.61 6210.91C6112.11 6231.81 6083.95 6260.24 6063.36 6293.93L6456.65 6521.17L6432.49 8968.05L9331.01 7294.64C9364.4 7272.8 9392.74 7244.07 9414.11 7210.37C9435.48 7176.68 9449.39 7138.8 9454.91 7099.28Z" fill="#455A64"/>
<path d="M6018.89 9082.96L6233.78 6528.88C6239.24 6489.34 6253.13 6451.44 6274.5 6417.74C6295.88 6384.03 6324.24 6355.31 6357.68 6333.52L9528.17 4501.51C9590.63 4465.52 9616.6 4492.77 9610.68 4564.74L9454.91 7099.54C9449.39 7139.06 9435.48 7176.93 9414.11 7210.63C9392.74 7244.32 9364.4 7273.06 9331.01 7294.9L6121.19 9147.73C6058.73 9183.72 6012.46 9154.16 6018.89 9082.96Z" fill="#37474F"/>
<path d="M7764.53 6834C7774.3 6715.76 7857.07 6576.95 7949.61 6522.71C8042.15 6468.47 8109.5 6522.71 8099.73 6639.93C8089.96 6757.14 8006.93 6896.98 7914.39 6951.22C7821.85 7005.46 7754.76 6952.5 7764.53 6834Z" fill="black"/>
<path d="M7742.68 7819.8L8428.76 7421.11L8311.8 7353.51L7626.24 7752.45L7742.68 7819.8Z" fill="#455A64"/>
<path d="M8746.99 8590.7L7911.82 9073.19C7896.45 9081 7879.45 9085.07 7862.21 9085.07C7844.97 9085.07 7827.97 9081 7812.6 9073.19L7444.76 8860.61H7442.96C7428.9 8851.16 7417.27 8838.53 7409.01 8823.75C7400.74 8808.97 7396.08 8792.44 7395.4 8775.52V8755.73C7395.4 8724.11 7417.25 8711 7444.76 8726.94L7666.85 8855.46L7716.46 8884.25L7705.41 8827.7L7628.29 7753.99L7744.74 7821.34L8431.07 7422.91L8788.12 8507.16C8789.99 8523.56 8787.11 8540.16 8779.82 8554.97C8772.53 8569.78 8761.13 8582.18 8746.99 8590.7Z" fill="#37474F"/>
<path d="M7409.54 8722.05L7694.61 8557.54L7752.45 8940.81L7409.54 8722.05Z" fill="black"/>
<path d="M7742.68 7819.8L7626.24 7752.45L7703.35 8826.16C7709.78 8857.26 7692.04 8869.86 7664.8 8853.92L7442.7 8725.4C7415.2 8709.46 7393.35 8722.57 7393.35 8754.19V8773.98C7394.03 8790.9 7398.69 8807.42 7406.95 8822.21C7415.21 8836.99 7426.85 8849.62 7440.9 8859.06H7442.7L7811.83 9073.19C7825.95 9080.38 7841.49 9084.33 7857.33 9084.75L7742.68 7819.8Z" fill="#263238"/>
<path opacity="0.2" d="M4024.67 9961.31C4256.02 9840.23 4625.92 9837.41 4851.35 9954.62C5076.79 10071.8 5078.33 10264.6 4854.95 10385.4C4631.57 10506.3 4261.16 10509.3 4028.02 10392.1C3794.87 10274.9 3793.33 10082.1 4024.67 9961.31Z" fill="black"/>
<path d="M4058.86 9149.02C4270.93 9068.3 4610.5 9064.45 4817.17 9140.79C5023.84 9217.14 5025.12 9343.87 4820.25 9423.55C4615.38 9503.24 4275.81 9507.86 4062.2 9432.03C3848.59 9356.2 3846.28 9229.73 4058.86 9149.02Z" fill="black"/>
<g opacity="0.3">
<path d="M4058.86 9149.02C4270.93 9068.3 4610.5 9064.45 4817.17 9140.79C5023.84 9217.14 5025.12 9343.87 4820.25 9423.55C4615.38 9503.24 4275.81 9507.86 4062.2 9432.03C3848.59 9356.2 3846.28 9229.73 4058.86 9149.02Z" fill="black"/>
</g>
<path d="M3885.87 8892.99L4978.08 8882.2L4909.45 10169.8C4904.82 10216.6 4861.64 10263.3 4778.61 10300.1C4601.5 10377.2 4308.2 10381.6 4123.38 10307.3C4036.75 10272.6 3991 10226.8 3985.09 10180.1L3885.87 8892.99Z" fill="#FAFAFA"/>
<path d="M4978.08 8882.2L4964.2 9143.62C4935.82 9163.43 4905.4 9180.15 4873.46 9193.49C4638.52 9294 4248.82 9298.11 4003.6 9203C3993.06 9198.89 3984.06 9194.52 3974.55 9190.15C3950.64 9179.19 3927.54 9166.56 3905.4 9152.36L3885.87 8892.99L4978.08 8882.2Z" fill="#EBEBEB"/>
<path d="M3817.23 8931.81L3815.18 8734.91L3942.42 8733.62C3960.56 8724.1 3979.17 8715.52 3998.2 8707.92C4241.37 8607.67 4630.8 8603.3 4868.06 8698.41C4886.42 8706 4904.35 8714.59 4921.79 8724.11L5045.43 8722.83L5047.49 8919.47C5047.49 8983.48 4989.91 9048 4872.43 9099.41C4637.23 9199.92 4247.8 9204.29 4002.57 9109.18C3878.92 9059.31 3818 8995.82 3817.23 8931.81Z" fill="black"/>
<g opacity="0.2">
<path d="M3817.23 8931.81L3815.18 8734.91L3942.42 8733.62C3960.56 8724.1 3979.17 8715.52 3998.2 8707.92C4241.37 8607.67 4630.8 8603.3 4868.06 8698.41C4886.42 8706 4904.35 8714.59 4921.79 8724.11L5045.43 8722.83L5047.49 8919.47C5047.49 8983.48 4989.91 9048 4872.43 9099.41C4637.23 9199.92 4247.8 9204.29 4002.57 9109.18C3878.92 9059.31 3818 8995.82 3817.23 8931.81Z" fill="black"/>
</g>
<path d="M3996.4 8556C4239.57 8455.49 4629.01 8451.12 4866.26 8546.23C5103.52 8641.34 5105.32 8800.2 4870.12 8900.45C4634.92 9000.7 4245.74 9005.07 4000.25 8910.22C3754.77 8815.36 3753.23 8656.51 3996.4 8556Z" fill="black"/>
<path d="M3927.76 8686.58L3965.29 8523.87L4277.87 8520.27C4380.86 8506.57 4485.13 8505.45 4588.39 8516.93L4891.71 8513.58L4933.1 8675.27C4953.15 8733.88 4907.39 8796.09 4793.78 8842.61C4599.96 8922.04 4279.67 8925.64 4076.6 8850.58C3956.04 8806.88 3907.97 8745.7 3927.76 8686.58Z" fill="black"/>
<path opacity="0.2" d="M3927.76 8686.58L3965.29 8523.87L4277.87 8520.27C4380.86 8506.57 4485.13 8505.45 4588.39 8516.93L4891.71 8513.58L4933.1 8675.27C4953.15 8733.88 4907.39 8796.09 4793.78 8842.61C4599.96 8922.04 4279.67 8925.64 4076.6 8850.58C3956.04 8806.88 3907.97 8745.7 3927.76 8686.58Z" fill="black"/>
<path d="M4099.73 8418.73C4284.04 8349.33 4578.88 8346.24 4758.56 8411.28C4938.24 8476.31 4938.5 8585.82 4761.13 8654.96C4583.76 8724.11 4288.15 8727.45 4102.56 8662.16C3916.97 8596.87 3915.68 8487.88 4099.73 8418.73Z" fill="black"/>
<path d="M4026.47 8541.35C4031.08 8550.81 4038.31 8558.75 4047.29 8564.22C4071.07 8580.36 4097.04 8593 4124.41 8601.75C4224.76 8633.11 4329.57 8647.79 4434.67 8645.2C4538.13 8645.92 4640.96 8629.05 4738.77 8595.33C4765.04 8586.08 4789.68 8572.72 4811.77 8555.74C4826.68 8543.4 4830.79 8534.41 4830.79 8532.35C4830.79 8530.29 4814.34 8499.45 4737.48 8471.43C4638.93 8439.98 4535.76 8425.46 4432.36 8428.5C4327.41 8428.56 4223.19 8445.93 4123.9 8479.91C4045.75 8507.41 4026.73 8535.69 4026.47 8541.35Z" fill="black"/>
<g opacity="0.5">
<path d="M4026.47 8541.35C4031.08 8550.81 4038.31 8558.75 4047.29 8564.22C4071.07 8580.36 4097.04 8593 4124.41 8601.75C4224.76 8633.11 4329.57 8647.79 4434.67 8645.2C4538.13 8645.92 4640.96 8629.05 4738.77 8595.33C4765.04 8586.08 4789.68 8572.72 4811.77 8555.74C4826.68 8543.4 4830.79 8534.41 4830.79 8532.35C4830.79 8530.29 4814.34 8499.45 4737.48 8471.43C4638.93 8439.98 4535.76 8425.46 4432.36 8428.5C4327.41 8428.56 4223.19 8445.93 4123.9 8479.91C4045.75 8507.41 4026.73 8535.69 4026.47 8541.35Z" fill="black"/>
</g>
<path d="M4047.29 8564.22C4071.07 8580.36 4097.04 8593 4124.41 8601.75C4224.76 8633.12 4329.57 8647.79 4434.67 8645.2C4538.13 8645.92 4640.96 8629.05 4738.77 8595.33C4765.04 8586.08 4789.68 8572.72 4811.77 8555.74C4789.26 8539.44 4764.38 8526.7 4738 8517.95C4639.44 8486.51 4536.28 8471.99 4432.87 8475.03C4327.98 8474.42 4223.72 8491.36 4124.41 8525.15C4096.89 8534.22 4070.89 8547.39 4047.29 8564.22Z" fill="black"/>
<g opacity="0.2">
<path d="M4047.29 8564.22C4071.07 8580.36 4097.04 8593 4124.41 8601.75C4224.76 8633.12 4329.57 8647.79 4434.67 8645.2C4538.13 8645.92 4640.96 8629.05 4738.77 8595.33C4765.04 8586.08 4789.68 8572.72 4811.77 8555.74C4789.26 8539.44 4764.38 8526.7 4738 8517.95C4639.44 8486.51 4536.28 8471.99 4432.87 8475.03C4327.98 8474.42 4223.72 8491.36 4124.41 8525.15C4096.89 8534.22 4070.89 8547.39 4047.29 8564.22Z" fill="black"/>
</g>
<g opacity="0.5">
<path d="M4232.63 8566.54C4221.99 8559.4 4210 8554.53 4197.39 8552.23C4184.79 8549.93 4171.85 8550.25 4159.37 8553.17C4146 8561.14 4157.06 8578.87 4185.08 8594.81C4195.69 8601.99 4207.7 8606.87 4220.32 8609.13C4232.93 8611.39 4245.89 8610.97 4258.34 8607.92C4270.93 8599.95 4259.88 8581.45 4232.63 8566.54Z" fill="black"/>
</g>
<path d="M4946.72 9753.35C4946.72 9801.93 4899.42 9850.77 4802.77 9888.82C4609.73 9965.93 4289.95 9968.25 4088.42 9896.79C3987.91 9860.8 3937.28 9813.24 3936.5 9764.92L3900.26 9292.71C3900.26 9344.12 3954.75 9395.53 4061.69 9433.06C4275.3 9508.89 4614.87 9505.29 4819.74 9424.58C4922.56 9384.22 4973.97 9332.3 4973.97 9280.89L4946.72 9753.35Z" fill="black"/>
<g opacity="0.35">
<path d="M4946.72 9753.35C4946.72 9801.93 4899.42 9850.77 4802.77 9888.82C4609.73 9965.93 4289.95 9968.25 4088.42 9896.79C3987.91 9860.8 3937.28 9813.24 3936.5 9764.92L3900.26 9292.71C3900.26 9344.12 3954.75 9395.53 4061.69 9433.06C4275.3 9508.89 4614.87 9505.29 4819.74 9424.58C4922.56 9384.22 4973.97 9332.3 4973.97 9280.89L4946.72 9753.35Z" fill="white"/>
</g>
<path d="M4613.58 9784.97C4629.32 9759.11 4643.31 9732.23 4655.48 9704.51C4681.63 9654.29 4724.97 9615.15 4777.58 9594.23C4781.1 9592.85 4785 9592.76 4788.58 9593.99C4792.16 9595.21 4795.18 9597.67 4797.12 9600.92C4824.36 9655.41 4808.94 9732.02 4753.93 9788.31C4698.92 9844.6 4623.86 9861.83 4568.85 9836.89C4565.77 9835.35 4565 9829.44 4567.31 9827.9C4585.57 9816.98 4601.33 9802.35 4613.58 9784.97Z" fill="#37474F"/>
<path d="M4748.02 9579.58C4719.63 9591.19 4693.53 9607.72 4670.9 9628.42C4647.26 9650.01 4628.35 9676.27 4615.38 9705.54C4600.78 9742.73 4576.67 9775.44 4545.46 9800.39C4543.86 9801.6 4542.04 9802.48 4540.1 9802.98C4538.16 9803.48 4536.14 9803.59 4534.15 9803.3C4532.17 9803.01 4530.26 9802.33 4528.54 9801.31C4526.82 9800.28 4525.32 9798.92 4524.13 9797.31C4487.11 9742.81 4500.74 9658.5 4559.86 9597.83C4618.98 9537.17 4694.55 9523.29 4749.82 9552.08C4752.47 9553.38 4754.67 9555.44 4756.15 9557.99C4757.63 9560.55 4758.31 9563.49 4758.12 9566.43C4757.93 9569.38 4756.87 9572.2 4755.07 9574.54C4753.27 9576.88 4750.82 9578.64 4748.02 9579.58Z" fill="#37474F"/>
<path d="M6581.06 330.056H6430.69V1104.3H6581.06C6594.7 1104.3 6607.77 1098.88 6617.41 1089.24C6627.06 1079.6 6632.47 1066.52 6632.47 1052.89V381.723C6632.51 374.95 6631.2 368.237 6628.63 361.97C6626.06 355.703 6622.28 350.005 6617.51 345.204C6612.73 340.403 6607.05 336.593 6600.8 333.993C6594.54 331.394 6587.83 330.056 6581.06 330.056Z" fill="black"/>
<path d="M5567.25 1533.58H5559.02C5553.77 1533.48 5548.68 1531.78 5544.42 1528.71C5540.17 1525.63 5536.96 1521.33 5535.22 1516.37C5533.48 1511.42 5533.31 1506.05 5534.71 1500.99C5536.12 1495.93 5539.04 1491.43 5543.08 1488.08C5584.95 1455.81 5616.55 1412.09 5634.07 1362.23C5651.59 1312.36 5654.27 1258.48 5641.79 1207.12H5061.37C5020.46 1207.12 4981.23 1190.87 4952.31 1161.95C4923.38 1133.02 4907.13 1093.79 4907.13 1052.89V381.723C4907.13 340.818 4923.38 301.589 4952.31 272.665C4981.23 243.741 5020.46 227.491 5061.37 227.491H6581.83C6622.74 227.491 6661.97 243.741 6690.89 272.665C6719.82 301.589 6736.06 340.818 6736.06 381.723V1052.37C6736.06 1093.28 6719.82 1132.51 6690.89 1161.43C6661.97 1190.36 6622.74 1206.6 6581.83 1206.6H6016.32C5980.59 1369.06 5829.7 1533.58 5567.25 1533.58ZM5061.37 278.645C5034.1 278.645 5007.94 289.478 4988.66 308.76C4969.38 328.043 4958.55 354.196 4958.55 381.466V1052.37C4958.55 1079.64 4969.38 1105.8 4988.66 1125.08C5007.94 1144.36 5034.1 1155.19 5061.37 1155.19H5662.87C5668.67 1155 5674.37 1156.77 5679.04 1160.22C5683.71 1163.68 5687.07 1168.61 5688.57 1174.22C5704.22 1226.11 5706.75 1281.08 5695.94 1334.2C5685.13 1387.31 5661.31 1436.92 5626.63 1478.57C5832.52 1456.46 5948.2 1314.05 5968.76 1177.56C5969.69 1171.43 5972.81 1165.84 5977.53 1161.83C5982.25 1157.81 5988.27 1155.64 5994.47 1155.71H6581.32C6608.59 1155.71 6634.74 1144.88 6654.02 1125.59C6673.31 1106.31 6684.14 1080.16 6684.14 1052.89V381.723C6684.14 354.453 6673.31 328.3 6654.02 309.017C6634.74 289.735 6608.59 278.902 6581.32 278.902L5061.37 278.645Z" fill="#455A64"/>
<path d="M4901.48 454.982H4795.32C4776.15 454.982 4760.62 470.519 4760.62 489.684V944.411C4760.62 963.576 4776.15 979.113 4795.32 979.113H4901.48C4920.65 979.113 4936.18 963.576 4936.18 944.411V489.684C4936.18 470.519 4920.65 454.982 4901.48 454.982Z" fill="#455A64"/>
</svg>
